<svg xmlns="http://www.w3.org/2000/svg" viewBox="0 0 32 32"><rect width="12" height="8" x="10" y="22" fill="#2643c0" rx="1"/><rect width="28" height="22" x="2" y="2" fill="#5389fe" rx="3"/><rect width="22" height="16" x="5" y="5" fill="#2643c0" rx="3"/><path fill="#e9a215" d="M14 8h-4a1 1 0 0 0-1 1v7a1 1 0 0 0 .84 1l6 1H16a1 1 0 0 0 .65-.24A1 1 0 0 0 17 17v-6a3 3 0 0 0-3-3Z"/><path fill="#f4bb2e" d="M22 8h-4a3 3 0 0 0-3 3v6a1 1 0 0 0 .35.76A1 1 0 0 0 16 18h.16l6-1a1 1 0 0 0 .84-1V9a1 1 0 0 0-1-1Z"/><rect width="22" height="5" x="5" y="25" fill="#4165de" rx="2"/></svg>