<svg xmlns="http://www.w3.org/2000/svg" id="Layer_1" x="0" y="0" enable-background="new 0 0 550 550" version="1.1" viewBox="0 0 550 550" xml:space="preserve"><path fill="#4a5b6b" d="M531,467c0,0.9-0.4,1.6-0.9,2.2c-0.6,0.6-1.3,0.9-2.2,0.9H22.1c-1.7,0-3.1-1.4-3.1-3.1
					c0-0.9,0.4-1.6,0.9-2.2c0.6-0.6,1.3-0.9,2.2-0.9h505.8C529.6,463.9,531,465.3,531,467z"/><path fill="#5b6f8b" fill-rule="evenodd" d="M372.5,102.8V441c0,12.6-10.3,22.9-22.9,22.9h-172c-12.6,0-22.9-10.3-22.9-22.9V102.8
									c0-12.6,10.3-22.9,22.9-22.9h172C362.2,79.9,372.5,90.2,372.5,102.8z" clip-rule="evenodd"/><path fill="#fff" fill-rule="evenodd" d="M363.9,102.8V441c0,7.8-6.4,14.2-14.2,14.2h-172c-7.8,0-14.2-6.4-14.2-14.2V102.8
									c0-7.8,6.4-14.2,14.2-14.2h35.7c2.8,0,5.1,1.8,6,4.3v2.4c0,3.4,2.8,6.3,6.3,6.3h76.2c3.4,0,6.3-2.8,6.3-6.3v-2.4
									c0.8-2.5,3.2-4.3,6-4.3h35.7C357.4,88.5,363.9,95,363.9,102.8z" clip-rule="evenodd"/><path fill="#fff" fill-rule="evenodd" d="M280.9,93.1c1.3,0,2.4-1.1,2.4-2.4c0-1.3-1.1-2.4-2.4-2.4h-44.7c-1.3,0-2.4,1.1-2.4,2.4
									c0,1.3,1.1,2.4,2.4,2.4H280.9L280.9,93.1z M288.9,88.2c-1.3,0-2.4,1.1-2.4,2.4c0,1.3,1.1,2.4,2.4,2.4h2.1
									c1.3,0,2.4-1.1,2.4-2.4c0-1.3-1.1-2.4-2.4-2.4H288.9z" clip-rule="evenodd"/><path fill="#f0f4f9" d="M354.7,141.4V232c0,2.9-2.4,5.3-5.3,5.3H177.9c-2.9,0-5.3-2.4-5.3-5.3v-90.6c0-2.9,2.4-5.3,5.3-5.3
								h171.4C352.3,136.1,354.7,138.4,354.7,141.4z"/><path fill="#3d84f2" d="M247.1,136.1h-69.2c-2.9,0-5.3,2.4-5.3,5.3V232c0,2.9,2.4,5.3,5.3,5.3h69.2V136.1z"/><path fill="#fff" d="M215,157.8c0,3.9-3.1,7-7,7c-3.9,0-7-3.1-7-7c0-3.9,3.1-7,7-7C211.9,150.7,215,153.9,215,157.8z"/><path fill="#fff" d="M223.5,185.2h-31c-1.1,0-2.1-1-1.9-2.1c1.2-8.6,8.5-15.1,17.4-15.1c8.9,0,16.2,6.6,17.4,15.1
										C225.5,184.2,224.6,185.2,223.5,185.2z"/><path fill="#fff" d="M235.8,195c0,0.8-0.6,1.4-1.4,1.4h-49.2c-0.8,0-1.4-0.6-1.4-1.4s0.6-1.4,1.4-1.4h49.2
									C235.2,193.7,235.8,194.3,235.8,195z"/><path fill="#fff" d="M235.8,204.9c0,0.8-0.6,1.4-1.4,1.4h-49.2c-0.8,0-1.4-0.6-1.4-1.4s0.6-1.4,1.4-1.4h49.2
									C235.2,203.6,235.8,204.2,235.8,204.9z"/><g><path fill="#fff" d="M235.8,214.8c0,0.8-0.6,1.4-1.4,1.4h-49.2c-0.8,0-1.4-0.6-1.4-1.4s0.6-1.4,1.4-1.4h49.2
									C235.2,213.5,235.8,214.1,235.8,214.8z"/></g><g><path fill="#48dbc5" d="M324.8,189.2l-31.4,18.1c-1.9,1.1-4.2-0.3-4.2-2.5v-36.1c0-2.2,2.4-3.5,4.2-2.5l31.4,18.1
								C326.7,185.3,326.7,188.1,324.8,189.2z"/></g><g><path fill="#fdd333" d="M344.6,266.2v82.8c0,2.8-2.3,5-5,5H181.1c-2.8,0-5-2.3-5-5v-82.8c0-2.8,2.3-5,5-5h158.5
									C342.3,261.1,344.6,263.4,344.6,266.2z"/><path fill="#fff" d="M307.8,285.3v44.4c0,6.4-5.2,11.7-11.7,11.7h-71.6c-6.5,0-11.7-5.2-11.7-11.7v-44.4
										c0-6.4,5.2-11.7,11.7-11.7h71.6C302.6,273.7,307.8,278.9,307.8,285.3z"/><path fill="#fdd333" d="M260.3,315.1c-0.5,0-0.9-0.2-1.3-0.5l-35.6-30.7c-0.8-0.7-0.9-1.9-0.2-2.7c0.7-0.8,1.9-0.9,2.7-0.2
											l34.4,29.6l34.3-29.5c0.8-0.7,2-0.6,2.7,0.2c0.7,0.8,0.6,2-0.2,2.7l-35.6,30.6C261.2,314.9,260.8,315.1,260.3,315.1z"/><path fill="#fdd333" d="M295.9,331.2c-0.4,0-0.9-0.2-1.3-0.5l-27.1-23.4c-0.8-0.7-0.9-1.9-0.2-2.7c0.7-0.8,1.9-0.9,2.7-0.2
											l27.1,23.4c0.8,0.7,0.9,1.9,0.2,2.7C297,331,296.5,331.2,295.9,331.2z"/><path fill="#fdd333" d="M224.7,331.1c-0.5,0-1.1-0.2-1.5-0.7c-0.7-0.8-0.6-2,0.2-2.7l27.1-23.3c0.8-0.7,2-0.6,2.7,0.2
											c0.7,0.8,0.6,2-0.2,2.7L226,330.6C225.6,330.9,225.1,331.1,224.7,331.1z"/></g><g><path fill="#464ae4" d="M407.6,461.4c0.1,0.8,0.2,1.5,0.3,2c0.1,0.3,0.4,0.6,0.7,0.6h34.7c0.5,0,0.8-0.4,0.7-0.9l-1.3-5.6
										l-4.3-18.1l-13.8,1.4c0,0,1,8.1-9.8,11.2C408.3,453.9,407.5,458.5,407.6,461.4z"/><path fill="#2624bd" d="M420.8,449.1c4.6-3.6,4-8.4,4-8.4l13.8-1.4l2.3,9.9H420.8z"/><path fill="#464ae4" d="M457.4,461.4c0.1,0.8,0.2,1.5,0.3,2c0.1,0.3,0.4,0.6,0.7,0.6h34.7c0.5,0,0.8-0.4,0.7-0.9l-1.3-5.6
										l-4.3-18.1l-13.8,1.4c0,0,1,8.1-9.8,11.2C458,453.9,457.2,458.5,457.4,461.4z"/><path fill="#2624bd" d="M470.5,449.1c4.6-3.6,4-8.4,4-8.4l13.8-1.4l2.3,9.9H470.5z"/><path fill="#292561" d="M404.9,443.1h48.7c0.7-3.8,0.5-9.2-0.2-15.2c-0.1-0.5-0.1-1-0.2-1.6c-0.9-6.4-2.3-13.2-3.9-19.5
									c0-0.1-0.1-0.2-0.1-0.3c-0.1-0.5-0.3-1-0.4-1.6c-0.5-2.4-0.9-5-1.1-7.8c-0.3-3.8-0.4-8-0.3-12.3c0-0.5,0-1.1,0.1-1.6
									c0.2-5.7,0.7-11.8,1.5-18.1v0c0.1-0.8,0.2-1.7,0.3-2.5c0.1-0.6,0.1-1.1,0.2-1.7c0.9-6.9,2.1-14,3.4-20.8
									c0.1-0.6,0.2-1.1,0.3-1.7c1.4-7.3,2.9-14.4,4.4-20.9c0.1-0.6,0.3-1.1,0.4-1.7c1.9-8.1,3.7-15.3,5.2-20.9
									c0.1-0.6,0.3-1.1,0.4-1.6c1.8-6.7,3-10.8,3-10.8l-24.3-1.3l-19.8-1.1c0,0-1.2,7.3-3.1,19c-0.1,0.5-0.2,1.1-0.2,1.6
									c-0.9,5.9-2,12.9-3.1,20.5c-0.1,0.5-0.1,1.1-0.2,1.6c-0.9,6.4-1.9,13.3-2.9,20.4c-0.1,0.5-0.1,1.1-0.2,1.6
									c-0.9,6.6-1.8,13.4-2.6,20.3c-0.1,0.5-0.1,1.1-0.2,1.6c-0.8,6.8-1.6,13.6-2.3,20.2c-0.1,0.5-0.1,1.1-0.2,1.6
									c-0.7,6.9-1.3,13.7-1.8,20.1c0,0.5-0.1,1.1-0.1,1.6c-0.5,7.3-0.9,14.1-0.9,20.2c0,0.5,0,1.1,0,1.6
									C404.6,436.1,404.7,439.8,404.9,443.1z"/><path fill="#191937" d="M440.4,361.7c0.6,6.9,0.3,13.8,1.4,20.6c0.8,5.3,2.7,10.8,6.1,14.9c-0.3-3.8-0.4-8-0.3-12.3
									c0-0.5,0-1.1,0.1-1.6c0.2-5.7,0.7-11.8,1.5-18.1v0c-2.9-13.9-3.9-27.7-4.3-41.9c-0.2-6.5-0.4-13.1-0.6-19.6
									c-0.1-4.9,0.6-15.5,1-20.4c-6.1,8.1-10.9,23.8-11.4,33.9C433.1,332.2,439,346.8,440.4,361.7z"/><path fill="#191937" d="M443.8,341.5c0.2,0,0.4-0.1,0.6-0.1c-0.1-0.5-0.2-1.1-0.3-1.6c-0.2,0-0.3,0.1-0.5,0.1
									c-7.3,1.2-14.9,2.4-22.6,3c-2.9,0.2-5.6,0.3-8,0.3c-0.1,0.5-0.1,1.1-0.2,1.6c2.5,0,5.3-0.1,8.4-0.3
									C428.8,343.9,436.4,342.7,443.8,341.5z"/><path fill="#191937" d="M441.2,298.1c0-0.5,0-1.1,0.1-1.6c-6.6,1.1-13.5,2.1-20.3,2.6c-0.5,0-1.1,0.1-1.6,0.1
									c-0.1,0.5-0.2,1.1-0.2,1.6c0.6,0,1.3-0.1,2-0.1C427.9,300.1,434.6,299.1,441.2,298.1z"/><path fill="#191937" d="M421.1,322.6c6.8-0.5,13.6-1.5,20.2-2.6c0-0.5-0.1-1.1-0.1-1.6c-6.6,1-13.4,2.1-20.2,2.6
									c-1.7,0.1-3.4,0.2-4.9,0.3c-0.1,0.5-0.1,1.1-0.2,1.6C417.5,322.8,419.2,322.7,421.1,322.6z"/><path fill="#191937" d="M443.8,363.5c1.6-0.3,3.2-0.5,4.8-0.7c-0.1-0.5-0.2-1.1-0.3-1.6c-1.6,0.2-3.1,0.5-4.7,0.7
									c-7.3,1.2-14.9,2.4-22.6,3c-4.1,0.3-7.7,0.4-10.8,0.2c-0.1,0.5-0.1,1.1-0.2,1.6c3.3,0.2,7,0.1,11.2-0.2
									C428.8,365.9,436.4,364.7,443.8,363.5z"/><path fill="#191937" d="M407.5,388.4c3.9,0.4,8.3,0.4,13.6,0c7.7-0.6,15.3-1.8,22.7-3c1.2-0.2,2.5-0.4,3.7-0.6
									c0-0.5,0-1.1,0.1-1.6c-1.4,0.2-2.7,0.4-4,0.6c-7.3,1.2-14.9,2.4-22.6,3c-5.2,0.4-9.5,0.4-13.3,0
									C407.6,387.4,407.6,387.9,407.5,388.4z"/><path fill="#191937" d="M405.6,410.2c4.3,0.6,9.4,0.7,15.5,0.2c7.7-0.6,15.3-1.8,22.7-3c1.8-0.3,3.7-0.6,5.5-0.9
									c-0.1-0.5-0.3-1-0.4-1.6c-1.8,0.3-3.6,0.6-5.4,0.9c-7.3,1.2-14.9,2.4-22.6,3c-6.1,0.5-11,0.4-15.3-0.2
									C405.7,409.1,405.6,409.6,405.6,410.2z"/><path fill="#191937" d="M404.6,432c4.6,0.8,9.9,0.9,16.5,0.4c7.7-0.6,15.3-1.8,22.7-3c3.1-0.5,6.2-1,9.4-1.5
									c0.1,0,0.2,0,0.3,0c-0.1-0.5-0.1-1-0.2-1.6c-0.1,0-0.2,0-0.3,0c-3.1,0.5-6.3,1-9.4,1.5c-7.3,1.2-14.9,2.4-22.6,3
									c-6.6,0.5-11.8,0.4-16.3-0.4C404.6,430.9,404.6,431.4,404.6,432z"/><g><path fill="#292561" d="M441.2,318.4c0,0.5,0,1.1,0.1,1.6c0.3,5.7,0.9,11,1.9,15.7c0.3,1.3,0.6,2.7,0.9,4.2
											c0.1,0.5,0.2,1,0.3,1.6c1.1,5.4,2.4,12.2,3.9,19.7c0.1,0.5,0.2,1,0.3,1.6c0.1,0.8,0.3,1.6,0.5,2.4c0,0,0,0,0,0
											c1.1,5.6,2.2,11.4,3.4,17.4c0.1,0.5,0.2,1,0.3,1.6c1.3,6.7,2.6,13.4,3.9,19.8c0.1,0.5,0.2,1.1,0.3,1.6
											c1.4,7.3,2.8,14.1,3.9,19.9c0.1,0.5,0.2,1.1,0.3,1.6c1.7,8.6,3,14.7,3.3,15.9c0,0.1,0.1,0.2,0.1,0.2h42.7
											c0.9-2.3,1.6-4.8,2.1-7.4c0.1-0.6,0.2-1.2,0.3-1.8c0.9-6.2,0.7-13.2-1.4-21.1c-0.2-0.8-0.5-1.6-0.7-2.5
											c-1.7-5.2-4.2-10.8-7.8-16.7c-1.1-1.9-2.3-4.8-3.6-8.7c-0.2-0.6-0.4-1.2-0.6-1.8c-1.9-5.9-3.9-13.4-5.8-21.7
											c-0.1-0.6-0.3-1.1-0.4-1.7c-1.6-6.7-3.1-13.8-4.6-21h0c-0.1-0.5-0.2-1.1-0.3-1.6c-1.4-7-2.8-14.1-4-20.7
											c-0.1-0.5-0.2-1.1-0.3-1.6c-0.3-1.6-0.6-3.2-0.8-4.7c-1-6-1.9-11.3-2.7-15.8c-0.1-0.5-0.2-1.1-0.3-1.6
											c-1.1-6.7-1.7-10.8-1.7-10.8l-30.4-19.6c0,0-1.1,7.8-2,18.9c-0.4,4.6-0.7,9.8-1,15.2c0,0.5,0,1.1-0.1,1.6
											C440.9,304.7,440.9,311.7,441.2,318.4z"/></g><g><path fill="#191937" d="M441.2,298.1l2.6-0.4c3.1-0.5,6.2-1,9.4-1.5c3-0.4,6.4-0.9,10-1.2c4.3-0.4,8.9-0.7,13.5-0.6
											c-0.1-0.5-0.2-1.1-0.3-1.6c-4.4,0-8.7,0.2-12.8,0.6c-3.8,0.4-7.4,0.8-10.6,1.3c-3.1,0.5-6.3,1-9.4,1.5
											c-0.8,0.1-1.5,0.2-2.3,0.4C441.2,297,441.2,297.5,441.2,298.1z"/><path fill="#191937" d="M441.2,318.4c0,0.5,0,1.1,0.1,1.6c0.8-0.1,1.7-0.3,2.5-0.4c3.1-0.5,6.2-1,9.4-1.4
											c1.4-0.2,2.9-0.4,4.4-0.6c6.9-0.9,14.9-1.6,22.8-1.1c-0.1-0.5-0.2-1.1-0.3-1.6c-7.7-0.4-15.5,0.3-22.2,1.1
											c-1.8,0.2-3.4,0.4-5,0.7c-3.1,0.5-6.3,1-9.4,1.5C442.8,318.1,442,318.3,441.2,318.4z"/><path fill="#191937" d="M444,339.9c0.1,0.5,0.2,1,0.3,1.6c2.9-0.5,5.7-0.9,8.6-1.3c0.1,0,0.2,0,0.3,0
											c8.9-1.3,20.4-2.6,31.6-1.4c-0.1-0.5-0.2-1.1-0.3-1.6c-11-1.1-22.4,0.1-31.2,1.4c-0.1,0-0.2,0-0.3,0
											C450,339,447,339.4,444,339.9z"/><path fill="#191937" d="M448.3,361.2c0.1,0.5,0.2,1,0.3,1.6c0.3-0.1,0.5-0.1,0.8-0.1c1.3-0.2,2.6-0.4,3.8-0.6
											c9-1.3,20.9-2.7,32.3-1.3c1.5,0.2,2.9,0.4,4.3,0.6c-0.1-0.6-0.3-1.1-0.4-1.7c-1.2-0.2-2.4-0.4-3.7-0.5
											c-11.6-1.3-23.5,0-32.7,1.3c-1.1,0.2-2.3,0.3-3.4,0.5C449.1,361,448.7,361.1,448.3,361.2z"/><path fill="#191937" d="M452.4,382.5c0.1,0.5,0.2,1,0.3,1.6c0.1,0,0.3,0,0.4-0.1c9-1.3,20.9-2.6,32.3-1.3
											c3.8,0.4,7.4,1.2,10.7,2.2c-0.2-0.6-0.4-1.2-0.6-1.8c-3.1-0.9-6.4-1.5-9.9-1.9c-11.6-1.3-23.5,0-32.7,1.3
											C452.8,382.4,452.6,382.5,452.4,382.5z"/><path fill="#191937" d="M456.6,403.9c0.1,0.5,0.2,1.1,0.3,1.6c8.5-1.1,18.7-2,28.5-0.8c9.4,1.1,17.6,4,22.8,8.1
											c-0.2-0.8-0.5-1.6-0.7-2.5c-5.4-3.6-13.2-6.2-21.9-7.2C475.6,401.9,465.2,402.8,456.6,403.9z"/><path fill="#191937" d="M460.8,425.3c0.1,0.5,0.2,1.1,0.3,1.6c7.5-0.8,16-1.3,24.3-0.3c10.1,1.2,18.8,4.5,23.9,9
											c0.1-0.6,0.2-1.2,0.3-1.8c-5.4-4.4-14.1-7.6-24.1-8.8C477.2,424,468.5,424.5,460.8,425.3z"/></g><g><path fill="#464ae4" d="M429.4,253.5c0,0-8.9,12.4-18,15.9c-2.4,0.9-4.8,1.2-7,0.5c-10.9-3.2-15.1-36.4-15.1-36.4l6.1-3.2
									l11.3,15.8c9.4-30.4,18.5-32.2,18.5-32.2l1.2,11.3L429.4,253.5z"/><path fill="#2624bd" d="M429.4,253.5c0,0-8.9,12.4-18,15.9c-0.9-1.2-1.4-2.6-1.1-4.1c0.6-2.6,3.4-4,5.1-6
									c1.7-2.1,2.3-4.8,2.3-7.5c0-2.7-0.6-5.3-0.9-7.9c-0.4-2.7-0.5-5.4-0.4-8.1c0.1-4.8,0.8-9.8,2.5-14.2
									c0.6-1.5,1.8-2.9,3.6-2.2c1.9,0.7,2.9,3.2,3.6,4.9c0.2,0.4,0.3,0.8,0.5,1.1L429.4,253.5z"/><path fill="#464ae4" d="M476.3,287.1c0,3.2-15.8,4.7-30.6,4.5c-1.9,0-3.7-0.1-5.5-0.1c-5.1-0.2-9.7-0.6-13.3-1.3
									c-4.1-0.7-6.6-1.8-6.6-3c1.9-19.2-8.1-57.4,1.6-70.8c4.2-5.8,36.7-8,48.3-0.6c0.1,0,0.1,0.1,0.2,0.1
									c0.4,0.3,0.7,0.5,1.1,0.8c0.9,0.8,1.7,1.9,2.4,3.3C481.8,235.5,476.3,287.1,476.3,287.1z"/><path fill="#2624bd" d="M476.3,287.1c0,3.2-15.8,4.7-30.6,4.5c-1.9,0-3.7-0.1-5.5-0.1c-5.1-0.2-9.7-0.6-13.3-1.3
									c0.5-0.8,1.4-1.4,2.3-1.8c1.5-0.7,3.2-1,4.6-1.9c2.1-1.5,2.9-4.1,3.3-6.7c0.4-2.5,0.5-5.2,1.6-7.4c1.8-3.6,5.9-5.5,9.9-6.3
									s8.1-0.8,12-1.8c3-0.8,6.1-2.6,7.1-5.6c1.1-3.5-0.9-7.1-2.5-10.4c-4.4-9.4-4.6-20.7-0.7-30.3c2.6,1.8,6.1,1.8,9.3,2
									C481.8,235.5,476.3,287.1,476.3,287.1z"/><path fill="#ffd1c4" d="M454.6,202.1l-0.5,9.2c0,2.8-15,2.8-15,0l0-7.4c0,0-6.3,1.6-9.6-1.7c-2.4-2.4-5.1-31.1,7.6-33.5
									c16-2.9,25.2,7.8,26.2,12.1C464.1,185.1,454.6,202.1,454.6,202.1z"/><path fill="#292561" d="M454.6,202.1c-1.9-4.8,2.8-6.9,4.9-10.2c0.1-0.1,0.1-0.3,0.2-0.5c0.2-1,0.1-2.7-0.8-3.6
									c-0.5-0.4-1.1-0.6-2-0.3c-3,0.9-1.2,2.9-2.1,3.4c-1.1,0.6-6.4-7-0.4-12.1c0,0-30.7,1.6-31.1-11.3
									c-0.3-13,13.5-17.4,20.1-13.7c5.4,3,7.4,7.2,12.2,9.3c1,0.5,2.2,0.8,3.5,1c0.3,0,0.6,0.1,0.8,0.2c6.9,1.4,9.2,5.5,5.3,10.8
									C465.2,175,476.9,180.6,454.6,202.1z"/><path fill="#f0f4f9" d="M461.3,191.8l-1.8-0.4l-1.4-0.3c0-0.1,0.3-1.3,0.6-3.2c0.8-5.5,1.7-16.8-3.3-24.8
										c1,0.5,2.2,0.8,3.5,1c0.3,0,0.6,0.1,0.8,0.2C465.1,175.8,461.6,190.9,461.3,191.8z"/><path fill="#292561" d="M445.4,198.6c-1.8,0-3.7-0.2-5.8-0.6l0.2-1.1c13.7,2.8,20.1-5.4,20.2-5.4l0.9,0.7
										C460.8,192.2,455.9,198.6,445.4,198.6z"/><circle cx="460.4" cy="191" r="5" fill="#fcc800"/><circle cx="460.4" cy="191" r="2.5" fill="#fdd333"/><ellipse cx="439.5" cy="197.2" fill="#292561" rx="2.3" ry="2.8" transform="rotate(-86.924 439.5 197.175) scale(1.00004)"/><polygon points="382.3 213.4 382.2 213.6 382.2 213.4"/><path fill="#5b6f8b" d="M412.6,248.7l-17.5-0.9c-0.7,0-1.3-0.5-1.5-1.2l-8.5-29.7c-0.3-1.1,0.5-2.2,1.7-2.1l17.5,0.7
									c0.7,0,1.3,0.5,1.5,1.2l8.6,29.9C414.6,247.7,413.7,248.7,412.6,248.7z"/></g><g><path fill="#ffd1c4" d="M441.6,269.5c0,0-12.8-6.5-12.2,2.9c0.6,9.4,15.7,3.5,15.7,3.5L441.6,269.5z"/></g><g><path fill="#464ae4" d="M467.2,214.1c18,7.3,34.1,58.6,16.3,63.9c-8.9,2.7-40-1.2-40-1.2l-2.4-9.1l33.2-6.5
								C474.3,261.2,455.7,224.9,467.2,214.1z"/></g><g><path fill="none" d="M464.5,217.8C464.5,217.8,464.5,217.7,464.5,217.8"/></g><g><path fill="#ffd1c4" d="M395.5,232.3c0.7,3.5-1.5,6.9-4.9,7.6c-3.4,0.7-5.9-12.1-2.5-12.8C391.5,226.4,394.8,228.8,395.5,232.3z
								"/></g></g><g><path fill="#292561" d="M140.6,461.1c-0.1,0.7-0.2,1.4-0.3,1.8c-0.1,0.6-0.6,0.9-1.2,0.9h-37.9c-0.5,0-0.9-0.5-0.8-1l1.5-6.2
										l4.4-18.9c0.1-0.6,0.7-1,1.3-0.9l13,1.4c0.6,0.1,1,0.5,1.1,1.1c0.1,2.4,1.3,8.6,10.8,11.3
										C139.9,452.8,140.8,457.9,140.6,461.1z"/><path fill="#191937" d="M127.6,448.6c-5-3-5.8-7.3-5.9-9.2c0-0.6-0.5-1.1-1.1-1.1l-13-1.4c-0.6-0.1-1.2,0.3-1.3,0.9
										l-2.5,10.8H127.6z"/><path fill="#292561" d="M81.6,461.1c-0.1,0.7-0.2,1.4-0.3,1.8c-0.1,0.6-0.6,0.9-1.2,0.9H42.2c-0.5,0-0.9-0.5-0.8-1l1.5-6.2
										l4.4-18.9c0.1-0.6,0.7-1,1.3-0.9l13,1.4c0.6,0.1,1,0.5,1.1,1.1c0.1,2.4,1.3,8.6,10.8,11.3
										C80.9,452.8,81.8,457.9,81.6,461.1z"/><path fill="#191937" d="M68.5,448.6c-5-3-5.8-7.3-5.9-9.2c0-0.6-0.5-1.1-1.1-1.1l-13-1.4c-0.6-0.1-1.2,0.3-1.3,0.9l-2.5,10.8
										H68.5z"/><g><path fill="#2624bd" d="M93.1,441h46.8c-2.6-45.1-10.2-145.6-16.8-164.8l-40.4,5.6c6.1,28.3,15.2,90.5,15.8,102.9
										C99.2,400.7,89.9,415.9,93.1,441z"/></g><g><path fill="#464ae4" d="M83.8,441c9.7-48.6,26.3-147,25.7-165.3l-39.7,1c-2.6,28.2-4.9,78.9-23.6,127.5
									c-6.1,15.8-7,27.5-6.2,36.9H83.8z"/></g><g><path fill="#ffd1c4" d="M134.5,218.7c0,0,12.8,6.8,17.5,5.8s31.2-30.1,31.2-30.1s6.7-22.4,15.5-15.6c8.9,6.8-11,19.3-11,19.3
									s-21.8,46.1-36.7,45.2s-22.8-7.1-22.8-7.1L134.5,218.7z"/><path fill="#48dbc5" d="M135.1,216.8l-6.3,17.6l-0.6,1.8l-6.4-1.7l-8.2-2.2l-2-12l-1-6l-1.9-11.7
									C111.1,203.5,124.6,211.1,135.1,216.8z"/><path fill="#2ab19f" d="M128.8,234.4l-0.6,1.8l-6.4-1.7l-8.2-2.2l-2-12l-1-6c2.2-3.3,5.4-5,8.1,0.3
									C122,221.2,125.4,227.8,128.8,234.4z"/><path fill="#48dbc5" d="M125.1,278.7c0,2.5-56.9,3.2-56.9,0.8c0,0,2.7-10.2,1.3-19c-1.1-6.8-6-14.9-9.2-24.1
									c-0.6-1.6-1.1-3.2-1.5-4.8c-1.6-6.4-2.1-13.1,0.5-20.1c2.5-6.9,40.1-17,54.1-6.2c2.8,2.1,3.7,11.4,4,21.9
									c0.1,2,0.1,4.1,0.1,6.2c0.1,6.2,3.4,24.2,5.7,35.5C124.3,274.6,125.1,278.7,125.1,278.7z"/><path fill="#2ab19f" d="M125.1,278.7c0,2.5-56.9,3.2-56.9,0.8c0,0,2.7-10.2,1.3-19c-1.1-6.8-6-14.9-9.2-24.1
									c1.5-2.9,3.1-5.8,4.8-8.5c1.1-1.7,2.1-3.4,3.1-5.1c0.7-1.2,1.4-2.9,3-3.1c2.6-0.3,5.8,3.9,7.3,5.6c4.4,5,7.6,11.1,9.1,17.6
									c0.8,3.6,1.1,7.3,0.9,11c-0.2,2.4-0.6,4.9,0.1,7.3c1.3,4.5,6.3,7,11,7.4c4.7,0.4,9.3-0.9,14-1.2c3.2-0.3,6.7,0,9.5,1.5
									C124.3,274.6,125.1,278.7,125.1,278.7z"/><path fill="#48dbc5" d="M59.8,210.4c0,0-6.4,5.1-4.3,20.2C57.6,245.7,62,253,62,253l21.5-9.6
									C83.5,243.4,73.6,212.2,59.8,210.4z"/><path fill="#a61864" d="M117.3,227.1c0.1,2,0.1,4.1,0.1,6.2l4.3,1.1C120.5,231.9,119,229.4,117.3,227.1z"/><path fill="#5b6f8b" d="M117.5,256.5l17.4-2.6c1.4-0.2,2.4-1.4,2.4-2.7l0.5-23.3c0-1.8-1.5-3.1-3.2-2.9l-17.4,2.6
									c-1.4,0.2-2.4,1.4-2.4,2.7l-0.5,23.3C114.2,255.4,115.7,256.8,117.5,256.5z"/><path fill="#ffd1c4" d="M63.4,252.4c0,0,11.1,31,21.8,29.3c10.7-1.7,32.3-27.2,32.3-27.2s18.1-10.7,10.6-17.2
									s-14.2,11.3-14.2,11.3l-26.1,14.6l-7.4-18.3L63.4,252.4z"/><path fill="#ffd1c4" d="M88.4,200.8l-1.3-7.6c0,0,8.8,4.9,11.3-1.4c2.1-5.3,4.4-27.3-5.5-29.5s-24.4-3.6-23.2,18.2
										c0.2,4.4,6.8,9.4,6.8,9.4l-0.3,13C76,208.2,96.1,207.2,88.4,200.8z"/><path fill="#f1c0ba" d="M87.9,198.2l-7.6-8.3c1.1,0.9,6.9,3.3,6.9,3.3L87.9,198.2z"/><g><path fill="#292561" d="M76.8,191.6c0,0-18-16.9-8.1-23.7c0.1,0,0.1-0.1,0.2-0.1c0,0-4.1-16.7,14-19.5s24.1,6.9,25,10.5
									c2.1,7.6-4.4,16.2-24.3,11.9c0,0-1.4,0.2-1.1,2.7c0.4,2.5,2.6,9.1,0.2,9.1s-7.5-8.6-9.8-3.3
									C71.5,182.6,79.3,187.2,76.8,191.6z"/></g></g></g><g><path fill="#fa5814" d="M344.6,382v40.9c0,4-3.2,7.2-7.2,7.2H183.2c-4,0-7.2-3.2-7.2-7.2V382c0-4,3.2-7.2,7.2-7.2h154.2
					C341.4,374.9,344.6,378.1,344.6,382z"/></g><g><path fill="#fff" d="M204,407.9c-1-0.9-1.5-2.1-1.6-3.7c0-0.3,0-0.9,0-1.6c0-0.8,0-1.3,0-1.7c0.1-1.6,0.6-2.8,1.6-3.7
						c1-0.9,2.4-1.3,4.1-1.3c1.1,0,2.1,0.2,3,0.5c0.9,0.4,1.6,0.9,2.1,1.6c0.5,0.7,0.8,1.5,0.8,2.4c0,0.1,0,0.2-0.1,0.3
						c-0.1,0.1-0.2,0.1-0.3,0.1H211c-0.2,0-0.3,0-0.4-0.1c-0.1-0.1-0.2-0.2-0.2-0.4c-0.2-0.6-0.4-1-0.8-1.3
						c-0.4-0.2-0.8-0.4-1.4-0.4c-1.4,0-2.1,0.8-2.2,2.3c0,0.3,0,0.8,0,1.5c0,0.7,0,1.2,0,1.6c0,1.6,0.8,2.3,2.2,2.3
						c0.6,0,1-0.1,1.4-0.4c0.4-0.2,0.6-0.7,0.8-1.3c0-0.2,0.1-0.3,0.2-0.4c0.1-0.1,0.2-0.1,0.4-0.1h2.6c0.1,0,0.2,0,0.3,0.1
						c0.1,0.1,0.1,0.2,0.1,0.3c0,0.9-0.3,1.7-0.8,2.4c-0.5,0.7-1.2,1.2-2.1,1.6c-0.9,0.4-1.9,0.5-3,0.5
						C206.4,409.2,205,408.7,204,407.9z"/><path fill="#fff" d="M217.1,407.9c-1-0.9-1.5-2.1-1.6-3.8c0-0.3,0-0.9,0-1.6c0-0.7,0-1.3,0-1.6c0.1-1.6,0.6-2.9,1.6-3.8
						c1-0.9,2.4-1.3,4.1-1.3c1.7,0,3.1,0.4,4.1,1.3c1,0.9,1.6,2.1,1.6,3.8c0,0.7,0,1.3,0,1.6c0,0.4,0,0.9,0,1.6
						c-0.1,1.7-0.6,2.9-1.6,3.8c-1,0.9-2.4,1.3-4.1,1.3C219.5,409.2,218.1,408.7,217.1,407.9z M222.8,405.8c0.4-0.4,0.6-1,0.6-1.8
						c0-0.7,0-1.2,0-1.5c0-0.3,0-0.8,0-1.5c0-0.8-0.2-1.4-0.6-1.8c-0.4-0.4-0.9-0.6-1.5-0.6c-0.7,0-1.2,0.2-1.6,0.6
						c-0.4,0.4-0.6,1-0.6,1.8c0,0.3,0,0.8,0,1.5c0,0.7,0,1.2,0,1.5c0,0.8,0.2,1.4,0.6,1.8c0.4,0.4,0.9,0.6,1.6,0.6
						C221.9,406.4,222.4,406.2,222.8,405.8z"/><path fill="#fff" d="M229.2,408.8c-0.1-0.1-0.1-0.2-0.1-0.3v-12c0-0.1,0-0.3,0.1-0.3c0.1-0.1,0.2-0.1,0.3-0.1h2.1
						c0.3,0,0.5,0.1,0.6,0.4l4.4,6.9v-6.8c0-0.1,0-0.3,0.1-0.3c0.1-0.1,0.2-0.1,0.3-0.1h2.3c0.1,0,0.2,0,0.3,0.1
						c0.1,0.1,0.1,0.2,0.1,0.3v12c0,0.1,0,0.2-0.1,0.3c-0.1,0.1-0.2,0.1-0.3,0.1h-2.1c-0.3,0-0.5-0.1-0.6-0.4l-4.3-6.6v6.5
						c0,0.1,0,0.2-0.1,0.3c-0.1,0.1-0.2,0.1-0.3,0.1h-2.3C229.4,409,229.3,408.9,229.2,408.8z"/><path fill="#fff" d="M245.4,408.8c-0.1-0.1-0.1-0.2-0.1-0.3V399H242c-0.1,0-0.2,0-0.3-0.1c-0.1-0.1-0.1-0.2-0.1-0.3v-2.1
						c0-0.1,0-0.3,0.1-0.3c0.1-0.1,0.2-0.1,0.3-0.1h10c0.1,0,0.3,0,0.3,0.1c0.1,0.1,0.1,0.2,0.1,0.3v2.1c0,0.1,0,0.2-0.1,0.3
						c-0.1,0.1-0.2,0.1-0.3,0.1h-3.3v9.5c0,0.1,0,0.2-0.1,0.3c-0.1,0.1-0.2,0.1-0.3,0.1h-2.6C245.6,409,245.5,408.9,245.4,408.8z"/><path fill="#fff" d="M251.9,408.8c-0.1-0.1-0.1-0.2-0.1-0.3c0-0.1,0-0.1,0-0.2l4.3-11.9c0.1-0.4,0.4-0.5,0.7-0.5h2.9
						c0.4,0,0.6,0.2,0.7,0.5l4.3,11.9c0,0,0,0.1,0,0.2c0,0.1,0,0.2-0.1,0.3c-0.1,0.1-0.2,0.1-0.3,0.1H262c-0.3,0-0.5-0.1-0.6-0.4
						l-0.7-1.8h-4.8l-0.7,1.8c-0.1,0.3-0.3,0.4-0.6,0.4h-2.4C252.1,409,252,408.9,251.9,408.8z M256.6,404h3.3l-1.6-4.7L256.6,404z"/><path fill="#fff" d="M267.1,407.9c-1-0.9-1.5-2.1-1.6-3.7c0-0.3,0-0.9,0-1.6c0-0.8,0-1.3,0-1.7c0.1-1.6,0.6-2.8,1.6-3.7
						c1-0.9,2.4-1.3,4.1-1.3c1.1,0,2.1,0.2,3,0.5c0.9,0.4,1.6,0.9,2.1,1.6c0.5,0.7,0.8,1.5,0.8,2.4c0,0.1,0,0.2-0.1,0.3
						c-0.1,0.1-0.2,0.1-0.3,0.1h-2.6c-0.2,0-0.3,0-0.4-0.1c-0.1-0.1-0.2-0.2-0.2-0.4c-0.2-0.6-0.4-1-0.8-1.3
						c-0.4-0.2-0.8-0.4-1.4-0.4c-1.4,0-2.1,0.8-2.2,2.3c0,0.3,0,0.8,0,1.5c0,0.7,0,1.2,0,1.6c0,1.6,0.8,2.3,2.2,2.3
						c0.6,0,1-0.1,1.4-0.4c0.4-0.2,0.6-0.7,0.8-1.3c0-0.2,0.1-0.3,0.2-0.4s0.2-0.1,0.4-0.1h2.6c0.1,0,0.2,0,0.3,0.1
						c0.1,0.1,0.1,0.2,0.1,0.3c0,0.9-0.3,1.7-0.8,2.4c-0.5,0.7-1.2,1.2-2.1,1.6c-0.9,0.4-1.9,0.5-3,0.5
						C269.5,409.2,268.1,408.7,267.1,407.9z"/><path fill="#fff" d="M282,408.8c-0.1-0.1-0.1-0.2-0.1-0.3V399h-3.3c-0.1,0-0.2,0-0.3-0.1c-0.1-0.1-0.1-0.2-0.1-0.3v-2.1
						c0-0.1,0-0.3,0.1-0.3c0.1-0.1,0.2-0.1,0.3-0.1h10c0.1,0,0.3,0,0.3,0.1c0.1,0.1,0.1,0.2,0.1,0.3v2.1c0,0.1,0,0.2-0.1,0.3
						c-0.1,0.1-0.2,0.1-0.3,0.1h-3.3v9.5c0,0.1,0,0.2-0.1,0.3c-0.1,0.1-0.2,0.1-0.3,0.1h-2.6C282.2,409,282.1,408.9,282,408.8z"/><path fill="#fff" d="M295.6,407.9c-1-0.9-1.5-2.1-1.5-3.8v-7.5c0-0.1,0-0.3,0.1-0.3c0.1-0.1,0.2-0.1,0.3-0.1h2.5
						c0.1,0,0.2,0,0.3,0.1c0.1,0.1,0.1,0.2,0.1,0.3v7.5c0,0.8,0.2,1.3,0.5,1.7c0.4,0.4,0.9,0.6,1.6,0.6c0.7,0,1.2-0.2,1.6-0.6
						c0.4-0.4,0.5-1,0.5-1.7v-7.5c0-0.1,0-0.3,0.1-0.3c0.1-0.1,0.2-0.1,0.3-0.1h2.5c0.1,0,0.3,0,0.3,0.1c0.1,0.1,0.1,0.2,0.1,0.3
						v7.5c0,1.7-0.5,3-1.5,3.8c-1,0.9-2.3,1.3-4.1,1.3C297.9,409.2,296.6,408.7,295.6,407.9z"/><path fill="#fff" d="M309.5,408.6c-0.8-0.3-1.5-0.8-1.9-1.4c-0.4-0.6-0.7-1.2-0.7-1.9c0-0.1,0-0.2,0.1-0.3
						c0.1-0.1,0.2-0.1,0.3-0.1h2.5c0.1,0,0.3,0,0.4,0.1c0.1,0,0.2,0.1,0.3,0.3c0.2,0.3,0.4,0.5,0.7,0.7c0.3,0.2,0.8,0.3,1.4,0.3
						c0.7,0,1.2-0.1,1.5-0.3c0.4-0.2,0.5-0.5,0.5-0.8c0-0.3-0.1-0.5-0.3-0.6c-0.2-0.2-0.5-0.3-0.9-0.4c-0.4-0.1-1-0.3-1.8-0.4
						c-1.5-0.3-2.6-0.7-3.3-1.4c-0.7-0.6-1.1-1.5-1.1-2.6c0-0.8,0.2-1.4,0.6-2c0.4-0.6,1-1.1,1.8-1.4c0.8-0.3,1.7-0.5,2.7-0.5
						c1.1,0,2,0.2,2.8,0.6c0.8,0.4,1.4,0.8,1.8,1.4c0.4,0.6,0.7,1.1,0.7,1.7c0,0.1,0,0.2-0.1,0.3c-0.1,0.1-0.2,0.1-0.3,0.1h-2.6
						c-0.3,0-0.5-0.1-0.6-0.3c-0.1-0.3-0.3-0.5-0.6-0.7c-0.3-0.2-0.7-0.3-1.1-0.3c-0.5,0-0.9,0.1-1.2,0.3c-0.3,0.2-0.4,0.5-0.4,0.8
						c0,0.4,0.2,0.6,0.6,0.8c0.4,0.2,1.1,0.4,2.1,0.6c1.2,0.2,2.1,0.5,2.8,0.8c0.7,0.3,1.2,0.7,1.5,1.2c0.3,0.5,0.5,1.1,0.5,1.9
						c0,0.8-0.2,1.6-0.7,2.2c-0.5,0.6-1.1,1.1-2,1.4c-0.9,0.3-1.8,0.5-2.9,0.5C311.4,409.2,310.4,409,309.5,408.6z"/></g></svg>