<svg xmlns="http://www.w3.org/2000/svg" viewBox="0 0 1519.44 828.05"><g data-name="Layer 2"><path fill="#5d21d1" d="M287.17 330.95h362.75v494.28H148.08V470a139.09 139.09 0 0 1 139.09-139.05Z"/><path fill="#fff" d="M689.92 822.89s-7-260.13-5.65-319.91c1.53-68.09-40.48-134.13-55.17-146.17-12.89-10.56-109-1.62-132.5.75 7 23.07 22.1 55.87 53.36 99.93a208.34 208.34 0 0 1 17.51 23.62c26 40.7 45.56 101 42.67 190.13 9.86 96.84 1.66 150.55 1.66 150.55Z"/><path fill="#fe7624" d="M983.72 417.29 921 209.75c-9.25-20.18-17.52-11.54-21-17.85-8.05-14.74-11.25-21.21-11.25-21.21-29.36 24.87-88 14-88 14s-.5 5.37-.91 21.79-18.7 14-16.55 35.82l27.5 147.32-76.41-16.29c-10.8-59.09-61.37-158.12-246.33-108.57-106.95 37.87-111.47 97.4-81.65 148.45-14.14 2.23-48.36 21.5-120.78 123.76-104.19 147.22-99.19 284.58 103.61 288.08 34.08.59 398.69-.53 398.69-.53l-11.3-223.3c238.94 22.71 232.14-79.32 207.1-183.93ZM611.81 821.55S620 767.84 610.15 671a474.83 474.83 0 0 0-2-63.54c0-.22 0-.44-.07-.66-.18-1.81-.39-3.6-.6-5.37 0-.34-.07-.69-.11-1-.21-1.69-.42-3.36-.65-5-.05-.41-.1-.83-.16-1.24-.22-1.61-.45-3.19-.69-4.77-.07-.46-.13-.91-.2-1.37-.24-1.54-.49-3.06-.74-4.58l-.24-1.41c-.25-1.49-.52-3-.79-4.44-.09-.48-.17-1-.26-1.43-.28-1.45-.56-2.89-.85-4.31-.09-.48-.19-1-.29-1.43-.29-1.42-.59-2.82-.9-4.21-.1-.47-.2-.93-.31-1.4-.31-1.38-.63-2.75-.95-4.12l-.33-1.36c-.33-1.36-.67-2.71-1-4l-.34-1.3c-.35-1.34-.71-2.67-1.07-4-.12-.42-.23-.83-.35-1.24-.37-1.32-.75-2.64-1.14-3.94-.11-.39-.22-.77-.34-1.15l-1.2-3.92c-.12-.35-.23-.69-.34-1-.42-1.32-.85-2.62-1.28-3.91-.1-.31-.21-.61-.31-.91-.45-1.32-.9-2.63-1.37-3.93l-.27-.75c-.48-1.34-1-2.67-1.46-4l-.21-.55c-.53-1.37-1.05-2.73-1.59-4.07 0-.09-.07-.18-.11-.28a236.75 236.75 0 0 0-20.14-39.43c-.66-1-1.33-2.06-2-3.07l-.15-.22c-.62-.95-1.26-1.88-1.89-2.8l-.3-.44c-.62-.89-1.24-1.78-1.87-2.65l-.33-.46c-.63-.88-1.27-1.76-1.91-2.62l-.27-.36c-.66-.9-1.33-1.78-2-2.65l-.13-.17q-3.29-4.25-6.65-8.17c-31.26-44.05-46.34-76.86-53.36-99.93 23.53-2.37 119.61-11.31 132.5-.76 6 5 16.75 19.11 27.12 38.78.46.86.91 1.73 1.36 2.61v.09c1.83 3.58 3.65 7.32 5.42 11.21v.08c.41.9.82 1.82 1.23 2.75l.16.36c.38.85.75 1.71 1.11 2.57l.18.42c.39.91.77 1.83 1.15 2.75a1.67 1.67 0 0 1 .08.2c.84 2 1.67 4.12 2.47 6.23.38 1 .74 2 1.11 3l.22.61c.3.83.6 1.65.89 2.48l.27.77c.28.8.56 1.61.83 2.43.09.25.18.5.26.76.3.88.59 1.77.87 2.66.06.17.12.34.17.51.69 2.15 1.35 4.33 2 6.52l.21.74c.24.83.47 1.67.7 2.5l.27 1 .6 2.28.28 1.09c.19.77.38 1.53.56 2.3.09.35.17.69.25 1 .21.88.41 1.77.61 2.65.05.23.11.46.16.69.24 1.12.48 2.26.71 3.39 0 .17.07.35.1.52.19.95.38 1.89.55 2.84.07.37.13.74.2 1.1.14.77.27 1.53.4 2.3l.21 1.24c.12.74.23 1.47.34 2.21.07.42.13.84.19 1.26.11.77.21 1.53.31 2.3 0 .38.11.77.16 1.15.11.95.23 1.89.33 2.84 0 .2 0 .41.07.61.12 1.15.23 2.3.34 3.45 0 .32 0 .64.07 1 .07.84.14 1.67.2 2.51 0 .42.05.85.08 1.27l.12 2.23.06 1.35c0 .73.06 1.47.08 2.2v61.85c0 2.57.06 5.18.09 7.85v9.93c0 1.4 0 2.82.06 4.25v5.16c0 1.39 0 2.79.06 4.21v.79l.06 3.75v.87c0 1.46 0 2.93.07 4.4v.66c0 1.34 0 2.69.07 4v.81c0 1.46 0 2.94.07 4.41v.9c0 1.39 0 2.78.07 4.18v.49c0 1.54.06 3.09.08 4.64v.91c0 1.34 0 2.69.08 4v.74l.09 4.75v.56c1.72 91.21 4.48 194 4.48 194Z"/><path fill="#2e186a" d="M770.09 380.94c-12.06-5-25.26-6.75-35.79-8.45a139.43 139.43 0 0 1 2.6 30.51c-2.27 52.69-25.77 73.13-30.68 92.53 63.35-23.4 68.29-85.18 63.87-114.59Z"/><path fill="#2e186a" d="M405.74 412c-16.38 7.24-39 17.14-58.11 46.24 26.78-11 118.93 71.4 184.25 52.71-30.34-3.26-96.34-46.86-126.14-98.95Z" data-name="shape"/><g data-name="lines hoodie"><path fill="none" stroke="#2e186a" stroke-linecap="round" stroke-linejoin="round" stroke-width="8" d="M553 515.4s33.18 69.06 37.73 116M699.12 502.53s-4 67.7 8.77 113.07" data-name="lines hoodie"/><path fill="none" stroke="#2e186a" stroke-linecap="round" stroke-linejoin="round" stroke-width="6" d="M810.86 389.63C815 393.9 816.6 453 854 452.3"/></g><g data-name="hand II"><g data-name="hand II"><path fill="#fff" stroke="#2e186a" stroke-linecap="round" stroke-linejoin="round" stroke-width="6" d="m751.22 643.32-73.2 14.98-4.48-74.01"/><path fill="#fff" stroke="#2e186a" stroke-linecap="round" stroke-linejoin="round" stroke-width="6" d="M727 637.07c-1 10.23-7 31.74.83 45.87 3.84 6.89 5.66 20.94 5.66 20.94l46.14 11.64c3.9 15 12.52 43.86 19 43.46 9.2-.57 4.28-58.18 3-75.86-.63-9.07-7-38.25-12.2-53-6.79-19.3-37.74-78.07-100.68-56.63l-45.47 11.13"/><path fill="#fff" stroke="#2e186a" stroke-linecap="round" stroke-linejoin="round" stroke-width="6" d="M787.92 682s-4.91 41.78-18.87 45-14.85-8.56-14.85-8.56"/><path fill="#fff" stroke="#2e186a" stroke-linecap="round" stroke-linejoin="round" stroke-width="6" d="M771.17 680.57s-7.54 36.83-21.71 39-14.17-9.57-14.17-9.57"/><path fill="#fff" stroke="#2e186a" stroke-linecap="round" stroke-linejoin="round" stroke-width="6" d="M750.5 678.3s-9.79 44.15-25.51 27.41-14.06-25.27-14.06-25.27 7.56-12.13 19.68 7.24"/></g><path fill="#fe7624" d="M454.31 593.16c48.73-9.73 146-30.18 154-29.85 22.18.91 47 5.24 54.09 6 16.7 1.86 23.9 2.37 23.9 2.37-11.9 36.59 20.39 86.76 20.39 86.76s-4.78 2.49-19.82 9.09-6.83 35.67-27.8 41.94c-8.44 2.52-169.44 86-211 94.48" data-name="shape"/><path fill="#2e186a" d="M675.77 681.84c-35.35-28.68-47.34-100.91-32.4-116.72.6-5 12.08 3.45 19 4.22 16.7 1.86 23.9 2.37 23.9 2.37-6.77 20.82.77 46 8.52 63.91a193 193 0 0 0 11.52 23c-1.33.67-6.7 3.32-19.47 8.92-7.36 3.27-8.92 8.79-11.07 14.3Z" data-name="welt II"/><path fill="none" stroke="#2e186a" stroke-linecap="round" stroke-linejoin="round" stroke-width="6" d="M396.1 573.38c15.61-5.17 57.64-12.33 70.46 17.27"/><path fill="none" stroke="#2e186a" stroke-linecap="round" stroke-linejoin="round" stroke-width="6" d="M396.1 607.24s242.55-62.3 258.23-38.52l36.83 82.35s-14.7 26.65-16 37.8-3.89 15.82-29.95 29.22-164.74 88.1-262.33 103.46"/></g><path fill="#fff" stroke="#2e186a" stroke-linecap="round" stroke-linejoin="round" stroke-width="6" d="m653.59 362.18-109.29 4.88-8.67-43.2-33.92-37.8s-1.5 43.19-2.61 78.85c5.8 16.59 19.23 39.46 35.14 65.11 25.18 13.3 56.65 30 98.68 59.13 11.14-18.5 21.37-84.57 20.67-126.97Z"/><path fill="#fff" stroke="#2e186a" stroke-linecap="round" stroke-linejoin="round" stroke-width="6" d="M489.93 235.85s-38.43.75-31.55 35.15 49.35 14.51 49.35 14.51l-5.68-48.91Z"/><path fill="#fff" stroke="#2e186a" stroke-linecap="round" stroke-linejoin="round" stroke-width="6" d="M599.43 127.42c10.13-.84 79.55-5.21 87.14 52.7s-.6 121.83-7 151-139.29 15.68-146.81 13.07-16.48-11.41-16.48-11.41L498 243.88s-7.39-107.42 101.43-116.46Z"/><path fill="#968bb4" d="M510.68 243.13c6.42 6.38 23.64 43.16 27.84 60.31 0 0 42.61-14.41 103.66-15.29 0 0 33.28.67 46.55 4.63 0 0-2.87 60.73-29.86 92.18s-84 22.65-110.81 3.74-31.18-27.93-37.38-48.16-22.56-95.65-22.56-95.65Z"/><path fill="#fff" stroke="#2e186a" stroke-linecap="round" stroke-linejoin="round" stroke-width="6" d="M623 340.66s16.35-3.25 23 3.25"/><path fill="#2e186a" d="M493.29 256.11s-18.06-28-25-57c-6.55-27.31 6.15-55.94 31.43-68.17 21.16-10.24 36.85-2.21 36.85-2.21s-22.46-38.23 11.23-72a61.36 61.36 0 0 1 45.09-18c41.14 1.21 53.85 36 53.85 36s44-80.92 134.34-33c9.11 4.83 19.37 18.3 24.28 27.36 29.83 55-68.46 120.06-119.63 125.21-56.18 5.65-89.08-3.66-107.17-17.4 13.44 8.1-1.71 92.15-85.27 79.21Z"/><path fill="none" stroke="#2e186a" stroke-linecap="round" stroke-linejoin="round" stroke-width="6" d="m643.84 264.77 6.08 52.91-18.66-4.77"/><ellipse cx="663.37" cy="270.69" fill="#2e186a" rx="5.42" ry="8.39"/><ellipse cx="611.18" cy="269.77" fill="#2e186a" data-name="eye II" rx="5.42" ry="8.39"/><path fill="none" stroke="#2e186a" stroke-linecap="round" stroke-linejoin="round" stroke-width="6" d="M587.67 226a24.86 24.86 0 0 1 23.53-9.25" data-name="brow II"/><path fill="none" stroke="#2e186a" stroke-linecap="round" stroke-linejoin="round" stroke-width="6" d="M661 215.83s15-3.9 18.79 8.39"/><g><g data-name="hand"><path fill="#fff" stroke="#2e186a" stroke-linecap="round" stroke-linejoin="round" stroke-width="6" d="m794.25 148.42 16.89 67.99 74.25-21.96"/><path fill="#fff" stroke="#2e186a" stroke-linecap="round" stroke-linejoin="round" stroke-width="6" d="M818.05 153.68c-8.37 5.52-39.78 20.38-55.55 20-7.69-.2-20.65 4.59-20.65 4.59l-30.93-34.61c-14.75 3.42-43.57 9-46.17 3.2-3.67-8.21 48.33-30 64.17-37 8.12-3.55 36.22-11.26 51.36-13.46 19.75-2.85 91.55-4.67 101.5 59.42l10.63 39.63-70.62 20.94"/><path fill="#fff" stroke="#2e186a" stroke-linecap="round" stroke-linejoin="round" stroke-width="6" d="M736.13 121.3s-33.88 23.15-30.37 36.7 14.11 9 14.11 9"/><path fill="#fff" stroke="#2e186a" stroke-linecap="round" stroke-linejoin="round" stroke-width="6" d="M744.94 135.13s-28.41 23.18-23.9 36.41 14.74 7.89 14.74 7.89"/><path fill="#fff" stroke="#2e186a" stroke-linecap="round" stroke-linejoin="round" stroke-width="6" d="M756.26 152s-33.72 28.43-12.15 34.44 28.2.73 28.2.73 7.06-12-15.16-13.74"/></g><path fill="#2e186a" d="M790.9 222.17c14.19 18.81 110.33 4.64 126.15-19.66-7.58-10.4-13.62-4.47-17-10.61-8.05-14.74-11.25-21.21-11.25-21.21-16.7 14.15-42.89 16.73-62.37 16.33a194.54 194.54 0 0 1-25.67-1.93c-.12 1.49-.53 7.46-.88 21.4-.17 8.07-4.69 11.6-8.98 15.68Z"/></g><path fill="#5d21d1" d="M1315.57 544.92H926.76a11 11 0 0 0-10.71 8.47L862 782.21H721.06s-7.81 40.34 37.74 40.34h496.38a11 11 0 0 0 10.71-8.47l60.38-255.63a11 11 0 0 0-10.7-13.53Z"/><g data-name="Question marks"><path fill="#fe7624" d="M1283.5 643.11a42 42 0 0 1-41.86-45.45c1.5-18.12 1.7-29.28 3.57-37.69 2.56-11.56 25-27.47 51-46.71q20.51-15.06 28.53-28.05t8-32.22q0-23.73-15.07-37.35t-36.5-13.64q-42.57 0-57.17 45.09a43.34 43.34 0 0 1-47.42 29.26 43.15 43.15 0 0 1-33.94-58.68q13.93-35.24 39.94-57.67 43.11-37.18 105.32-37.19 63.48 0 106.44 36.55t43 92.66q0 69.57-71.49 116.38-31.11 20.52-37.67 32.06a38.67 38.67 0 0 0-3.7 10 42.2 42.2 0 0 1-40.94 32.6Zm5.68 125.36h-3.84a48.42 48.42 0 0 1-48.42-48.41 48.42 48.42 0 0 1 48.42-48.42h3.84a48.41 48.41 0 0 1 48.41 48.42 48.41 48.41 0 0 1-48.41 48.41ZM295.88 233.64a10.18 10.18 0 0 1-13.68-6.07 90.19 90.19 0 0 1-2.83-8.71c-.54-2.81 2.9-8.5 6.84-15.28a26.58 26.58 0 0 0 3.64-9 14.69 14.69 0 0 0-1.32-7.93 11.59 11.59 0 0 0-6.95-6.84 12.69 12.69 0 0 0-9.42.49q-9.46 4.1-8.36 15.52a10.5 10.5 0 0 1-7.71 11.06 10.45 10.45 0 0 1-13.19-9.77 35.08 35.08 0 0 1 3.32-16.65q6-12.4 19.81-18.39 14.1-6.12 27.16-2.13a28.2 28.2 0 0 1 18.45 16.44q6.71 15.45-4.67 32.73-4.94 7.55-5.29 10.74a9.59 9.59 0 0 0 .15 2.59 10.21 10.21 0 0 1-5.95 11.18Zm13.32 27.29-.85.37a11.71 11.71 0 0 1-15.41-6.09A11.71 11.71 0 0 1 299 239.8l.85-.37a11.71 11.71 0 0 1 15.41 6.09 11.71 11.71 0 0 1-6.06 15.41ZM349.08 105.6a13.87 13.87 0 0 1-13-15.75c.83-5.95 1.1-9.62 1.87-12.36 1-3.76 8.72-8.6 17.67-14.46q7-4.59 9.92-8.73a20 20 0 0 0 3.23-10.47q.43-7.83-4.29-12.59a17.35 17.35 0 0 0-11.8-5.16q-14-.78-19.66 13.82a14.32 14.32 0 0 1-16.17 8.78 14.24 14.24 0 0 1-10.11-20A47.84 47.84 0 0 1 321 10.44Q335.88-1 356.38.1q20.92 1.16 34.42 14t12.47 31.33q-1.27 22.93-25.7 37.04-10.62 6.21-13 9.88a13.12 13.12 0 0 0-1.4 3.25 13.94 13.94 0 0 1-14.09 10Zm-.41 41.4h-1.27a16 16 0 0 1-15.08-16.84A16 16 0 0 1 349.16 115l1.27.07A16 16 0 0 1 365.51 132a16 16 0 0 1-16.84 15Z"/></g><path fill="none" stroke="#2e186a" stroke-linecap="round" stroke-linejoin="round" stroke-width="6" d="M3 825.05h1513.44"/></g></svg>