<svg xmlns="http://www.w3.org/2000/svg" data-name="Layer 1" viewBox="0 0 1200 1000"><g data-name="Mobile Learning"><path fill="#ff9a05" d="M523.813 887.777a6.31 6.31 0 0 1-6.365 6.365H116.427A16.475 16.475 0 0 1 100 877.715v-59.958a16.475 16.475 0 0 1 16.427-16.427h401.02a6.397 6.397 0 0 1 6.366 6.366 6.31 6.31 0 0 1-6.365 6.365H116.427a3.68 3.68 0 0 0-3.696 3.696v59.958a3.68 3.68 0 0 0 3.696 3.696h401.02a6.397 6.397 0 0 1 6.366 6.366Z"/><path fill="#f0f4f9" d="M513.546 814.061h-397.12a3.68 3.68 0 0 0-3.695 3.696v59.958a3.68 3.68 0 0 0 3.696 3.696h397.12c-9.857-22.381-9.857-44.763 0-67.35Z"/><path fill="#dde3ea" d="M494.245 833.363H131.827a1.643 1.643 0 1 1 0-3.286h362.418a1.643 1.643 0 1 1 0 3.286ZM494.245 849.379H131.827a1.643 1.643 0 1 1 0-3.285h362.418a1.643 1.643 0 1 1 0 3.285ZM494.245 865.395H131.827a1.643 1.643 0 1 1 0-3.285h362.418a1.62 1.62 0 0 1 1.643 1.642 1.767 1.767 0 0 1-1.643 1.643Z"/><path fill="#9859cd" d="M523.813 794.965a6.31 6.31 0 0 1-6.365 6.365H116.427A16.475 16.475 0 0 1 100 784.904v-59.959a16.475 16.475 0 0 1 16.427-16.426h401.02a6.397 6.397 0 0 1 6.366 6.365 6.31 6.31 0 0 1-6.365 6.365H116.427a3.68 3.68 0 0 0-3.696 3.696v59.958a3.68 3.68 0 0 0 3.696 3.696h401.02a6.397 6.397 0 0 1 6.366 6.366Z"/><path fill="#f0f4f9" d="M513.546 721.25h-397.12a3.68 3.68 0 0 0-3.695 3.695v59.959a3.68 3.68 0 0 0 3.696 3.696h397.12c-9.857-22.587-9.857-44.969 0-67.35Z"/><path fill="#dde3ea" d="M494.245 740.551H131.827a1.643 1.643 0 1 1 0-3.285h362.418a1.62 1.62 0 0 1 1.643 1.642 1.767 1.767 0 0 1-1.643 1.643ZM494.245 756.362H131.827a1.643 1.643 0 1 1 0-3.285h362.418a1.643 1.643 0 1 1 0 3.285ZM494.245 772.378H131.827a1.643 1.643 0 1 1 0-3.285h362.418a1.62 1.62 0 0 1 1.643 1.642 1.767 1.767 0 0 1-1.643 1.643Z"/><path fill="#199180" d="M398.353 332.343c-11.91-58.52-44.353-100.614-87.268-121.559s-96.097-20.533-149.484 6.366c24.024 117.041 129.977 168.58 236.752 115.193Z"/><path fill="#fff" d="M385.211 326.8 179.465 226.184c-.205 0-.205-.206-.205-.411s.205-.205.41-.205l205.952 99.793a.75.75 0 0 1 .41 1.027c0 .41-.41.616-.82.41Z"/><path fill="#fff" d="M266.733 268.279a53.899 53.899 0 0 0-18.07 3.08 61.533 61.533 0 0 0-8.419 3.696 47.338 47.338 0 0 0-7.392 5.133.883.883 0 1 1-1.026-1.437 39.972 39.972 0 0 1 8.008-4.928 49.412 49.412 0 0 1 8.624-3.286 61.139 61.139 0 0 1 18.275-2.259ZM329.155 298.874a58.743 58.743 0 0 1-9.446-15.811 48.199 48.199 0 0 1-2.669-8.83 70.664 70.664 0 0 1-1.027-9.24.821.821 0 1 1 1.643 0 44.593 44.593 0 0 0 .616 9.035 42.869 42.869 0 0 0 2.259 8.83 86.44 86.44 0 0 0 8.624 16.016ZM351.126 309.346a53.899 53.899 0 0 0-18.07 3.08 61.537 61.537 0 0 0-8.419 3.696 47.341 47.341 0 0 0-7.392 5.133.883.883 0 0 1-1.026-1.437 39.972 39.972 0 0 1 8.008-4.928 49.411 49.411 0 0 1 8.624-3.286 61.14 61.14 0 0 1 18.275-2.258c0-.206 0 0 0 0ZM234.906 252.878a58.743 58.743 0 0 1-9.446-15.81 48.2 48.2 0 0 1-2.67-8.83 70.662 70.662 0 0 1-1.026-9.24.821.821 0 1 1 1.643 0 44.592 44.592 0 0 0 .616 9.035 42.868 42.868 0 0 0 2.259 8.83 63.769 63.769 0 0 0 8.624 16.015c.205-.205.205 0 0 0Z"/><path fill="#2ab19f" d="M398.353 332.343c22.382-55.44 18.48-108.417-5.75-149.484s-68.787-70.02-128.129-77.207c-44.763 110.882 15.195 212.318 133.879 226.691Z"/><path fill="#fff" d="M390.345 320.434 274.33 123.106c0-.205 0-.41.205-.41s.411 0 .411.205l116.836 196.711c.206.411.206.822-.205 1.027s-1.027.205-1.232-.205Z"/><path fill="#fff" d="M323.816 206.472a63.38 63.38 0 0 0-16.632-7.392 43.846 43.846 0 0 0-9.035-1.642 33.307 33.307 0 0 0-9.035.205.821.821 0 1 1 0-1.643 48.426 48.426 0 0 1 9.446.206 44.4 44.4 0 0 1 9.035 2.053 46.624 46.624 0 0 1 16.221 8.213ZM359.134 266.225a62.129 62.129 0 0 1 .821-18.48 43.817 43.817 0 0 1 2.67-8.83 39.093 39.093 0 0 1 4.312-8.213c.205-.41.82-.41 1.232-.205s.41.821.205 1.232a59.207 59.207 0 0 0-4.517 7.802 42.542 42.542 0 0 0-2.875 8.625 60.717 60.717 0 0 0-1.643 18.274c0-.205 0 0-.205-.205ZM371.66 287.17a63.38 63.38 0 0 0-16.633-7.393 43.846 43.846 0 0 0-9.035-1.642 33.307 33.307 0 0 0-9.034.205.821.821 0 0 1 0-1.643 48.426 48.426 0 0 1 9.445.206 44.4 44.4 0 0 1 9.035 2.053 57.542 57.542 0 0 1 16.221 8.213ZM305.747 175.877a62.129 62.129 0 0 1 .82-18.48 43.816 43.816 0 0 1 2.67-8.83 39.094 39.094 0 0 1 4.312-8.213c.206-.41.822-.41 1.232-.205s.41.821.206 1.232a59.209 59.209 0 0 0-4.518 7.803 42.542 42.542 0 0 0-2.874 8.624 60.717 60.717 0 0 0-1.643 18.275c0-.206 0-.206-.206-.206Z"/><path fill="#48dbc5" d="M398.148 332.138c-45.174-39.22-96.714-52.771-143.325-43.12s-88.5 42.504-114.577 96.302c90.348 78.233 205.952 54.414 257.902-53.182Z"/><path fill="#fff" d="m384.185 335.834-224.227 45.995c-.205 0-.41 0-.41-.205s0-.41.205-.41l224.021-46.817a1.13 1.13 0 0 1 1.027.616c.205.41-.206.821-.616.821Z"/><path fill="#fff" d="M254.823 361.912a59.405 59.405 0 0 0-12.525 13.346 50.465 50.465 0 0 0-4.518 8.009 60.69 60.69 0 0 0-2.874 8.624.847.847 0 0 1-1.643-.411 45.712 45.712 0 0 1 3.285-8.83 51.331 51.331 0 0 1 4.723-8.008 61.293 61.293 0 0 1 13.552-12.73c-.205-.206 0-.206 0 0ZM322.79 347.949a59.21 59.21 0 0 1-17.249-6.776 63.38 63.38 0 0 1-7.597-5.339 51.248 51.248 0 0 1-6.571-6.776.967.967 0 0 1 .205-1.232c.411-.41.822-.205 1.232.205a46.911 46.911 0 0 0 5.955 6.776 61.031 61.031 0 0 0 7.187 5.544 63.38 63.38 0 0 0 16.632 7.393c.41 0 .41 0 .205.205.206-.206.206 0 0 0ZM346.608 343.02a59.405 59.405 0 0 0-12.525 13.348 50.463 50.463 0 0 0-4.518 8.008 60.685 60.685 0 0 0-2.874 8.624.847.847 0 0 1-1.643-.41 45.708 45.708 0 0 1 3.285-8.83 51.33 51.33 0 0 1 4.723-8.008c4.107-4.928 8.419-9.446 13.552-12.731ZM220.121 369.098a59.21 59.21 0 0 1-17.248-6.776 63.38 63.38 0 0 1-7.597-5.338 51.248 51.248 0 0 1-6.57-6.776.883.883 0 1 1 1.436-1.027 46.91 46.91 0 0 0 5.955 6.776 61.032 61.032 0 0 0 7.187 5.544 63.38 63.38 0 0 0 16.632 7.392c.205 0 .205 0 .205.205Z"/><path fill="#5b6f8b" fill-rule="evenodd" d="M829.148 154.112v691.776a48.549 48.549 0 0 1-48.46 48.46H417.244a48.549 48.549 0 0 1-48.46-48.46V154.112a48.549 48.549 0 0 1 48.46-48.46h363.444a48.549 48.549 0 0 1 48.46 48.46Z"/><path fill="#fff" fill-rule="evenodd" d="M810.873 154.112v691.776a30.366 30.366 0 0 1-30.185 30.185H417.244a30.366 30.366 0 0 1-30.184-30.185V154.112a30.366 30.366 0 0 1 30.184-30.185h75.563a13.254 13.254 0 0 1 12.526 9.24v5.134a13.234 13.234 0 0 0 13.141 13.141h160.984a13.234 13.234 0 0 0 13.141-13.141v-5.133a13.254 13.254 0 0 1 12.526-9.24h75.563a30.366 30.366 0 0 1 30.185 30.184Z"/><path fill="#fff" fill-rule="evenodd" d="M635.516 133.578a5.133 5.133 0 1 0 0-10.267h-94.25a5.133 5.133 0 1 0 0 10.267Zm17.043-10.267a5.133 5.133 0 0 0 0 10.267h4.312a5.133 5.133 0 1 0 0-10.267Z"/><path fill="#3d84f2" fill-rule="evenodd" d="M791.571 192.715v337.983a14.635 14.635 0 0 1-14.579 14.579H422.993a14.635 14.635 0 0 1-14.579-14.58V192.716a14.635 14.635 0 0 1 14.58-14.579h353.998a14.635 14.635 0 0 1 14.58 14.579Z"/><path fill="#fff" d="m605.126 405.854 88.91-45.585v77.822c0 22.998-188.087 22.998-188.087 0v-75.769l87.473 43.737a13.779 13.779 0 0 0 5.75 1.232 12.153 12.153 0 0 0 5.954-1.437Z"/><path fill="#fff" d="m735.925 328.237-14.99 7.597v101.641h3.491a2.603 2.603 0 0 1 2.464 2.054l4.518 20.533a2.342 2.342 0 0 1-2.259 2.875h-22.997a2.481 2.481 0 0 1-2.465-2.875l4.518-20.533a2.64 2.64 0 0 1 2.464-2.054h3.49v-98.15l-19.917 10.266-92.606 47.433a5.236 5.236 0 0 1-4.928 0l-90.759-45.584-41.888-20.945a5.32 5.32 0 0 1 .205-9.65l134.29-59.548a5.262 5.262 0 0 1 4.312 0l132.852 57.289a5.32 5.32 0 0 1 .205 9.65Z"/><path fill="#c8e1ff" d="M436.956 589.834 414.78 605.44a3.893 3.893 0 0 1-6.16-3.285v-31.211a3.922 3.922 0 0 1 6.16-3.286l22.176 15.606a4.032 4.032 0 0 1 0 6.57ZM791.571 586.55a3.204 3.204 0 0 1-3.08 3.284H456.668a3.024 3.024 0 0 1-3.08-3.08 3.158 3.158 0 0 1 3.08-3.08h331.823c1.643-.41 3.08 1.027 3.08 2.875Z"/><circle cx="639.212" cy="586.549" r="27.926" fill="#fff"/><circle cx="639.212" cy="586.549" r="15.811" fill="#c8e1ff"/><path fill="#fa5814" fill-rule="evenodd" d="M738.594 653.283v64.476a9.858 9.858 0 0 1-9.856 9.856H469.194a9.858 9.858 0 0 1-9.856-9.856v-64.476a9.858 9.858 0 0 1 9.856-9.856h259.544a9.858 9.858 0 0 1 9.856 9.856Z"/><path fill="#fff" d="M495.888 700.1c-.206-.206-.206-.41-.206-.822v-27.515c0-.41 0-.616.206-.82s.41-.206.82-.206h3.902c.41 0 .616 0 .822.205s.205.41.205.821v23.614h13.552c.41 0 .616 0 .821.205s.206.411.206.822v3.08a1.234 1.234 0 0 1-.206.821c-.205.205-.41.205-.82.205h-18.481a1.067 1.067 0 0 1-.821-.41ZM520.528 700.1c-.206-.206-.206-.41-.206-.822v-27.515c0-.41 0-.616.206-.82s.41-.206.821-.206h18.686c.41 0 .616 0 .821.205s.205.41.205.821v2.875c0 .41 0 .616-.205.821s-.41.206-.821.206h-13.963v7.392h12.936c.41 0 .616 0 .821.205s.206.411.206.822v2.669c0 .41 0 .616-.206.821s-.41.206-.82.206h-12.937v7.802h14.373c.411 0 .616 0 .822.206s.205.41.205.821v2.875c0 .41 0 .616-.205.821s-.41.205-.822.205H521.35a1.556 1.556 0 0 1-.821-.41ZM544.347 700.305a.754.754 0 0 1-.206-.616v-.41l10.267-27.516a1.544 1.544 0 0 1 1.438-1.026h4.722a1.368 1.368 0 0 1 1.438 1.026l10.266 27.515v.411a.726.726 0 0 1-.82.821h-3.697a1.126 1.126 0 0 1-1.232-.82l-2.053-5.134h-12.526l-2.053 5.133a1.126 1.126 0 0 1-1.232.821h-3.696c-.206 0-.41-.205-.616-.205Zm9.035-10.677h9.65l-4.722-13.142ZM576.585 700.1c-.206-.206-.206-.41-.206-.822v-27.515c0-.41 0-.616.206-.82s.41-.206.82-.206h11.089a12.639 12.639 0 0 1 8.213 2.464c2.054 1.642 2.875 3.901 2.875 6.981a8.016 8.016 0 0 1-1.437 5.134 8.748 8.748 0 0 1-4.107 3.08l6.16 10.882a.717.717 0 0 0 .205.411.726.726 0 0 1-.82.821h-3.902a1.568 1.568 0 0 1-1.027-.41 2.834 2.834 0 0 1-.616-.822l-5.544-10.061h-5.75v10.267a1.234 1.234 0 0 1-.205.821c-.205.205-.41.205-.821.205h-4.312a1.557 1.557 0 0 1-.821-.41Zm11.704-15.811a6.802 6.802 0 0 0 3.901-1.027 4.996 4.996 0 0 0 0-6.57 5.228 5.228 0 0 0-3.901-1.232h-5.955v9.034h5.955ZM605.332 700.1c-.206-.206-.206-.41-.206-.822v-27.515c0-.41 0-.616.206-.82s.41-.206.82-.206h3.286a1.126 1.126 0 0 1 1.232.821l12.115 18.891v-18.48c0-.41 0-.616.205-.822s.411-.205.822-.205h3.696c.41 0 .616 0 .821.205s.205.411.205.822v27.72c0 .41 0 .616-.205.821s-.41.206-.821.206h-3.286a1.126 1.126 0 0 1-1.232-.822l-12.114-18.48v18.275a1.234 1.234 0 0 1-.206.821c-.205.206-.41.206-.821.206h-3.696a2.834 2.834 0 0 1-.821-.616ZM635.516 700.1c-.205-.206-.205-.41-.205-.822v-27.515c0-.41 0-.616.205-.82s.41-.206.821-.206h4.107c.41 0 .616 0 .821.205s.206.41.206.821v27.72a1.234 1.234 0 0 1-.206.822c-.205.205-.41.205-.821.205h-4.107a1.067 1.067 0 0 1-.821-.41ZM648.247 700.1c-.206-.206-.206-.41-.206-.822v-27.515c0-.41 0-.616.206-.82s.41-.206.821-.206h3.285a1.126 1.126 0 0 1 1.232.821L665.7 690.45v-18.48c0-.41 0-.616.206-.822s.41-.205.821-.205h3.696c.41 0 .616 0 .821.205s.206.411.206.822v27.72c0 .41 0 .616-.206.821s-.41.206-.821.206h-3.285a1.126 1.126 0 0 1-1.232-.822l-12.115-18.48v18.275a1.234 1.234 0 0 1-.206.821c-.205.206-.41.206-.82.206h-3.697a2.835 2.835 0 0 1-.821-.616ZM680.484 697.841c-2.258-2.053-3.285-4.723-3.49-8.419v-7.802c.205-3.491 1.232-6.366 3.49-8.214a13.032 13.032 0 0 1 9.035-3.08 13.78 13.78 0 0 1 6.776 1.438 12 12 0 0 1 4.312 3.285 6.139 6.139 0 0 1 1.438 3.901.726.726 0 0 1-.822.822h-4.517a.754.754 0 0 1-.616-.206 1.579 1.579 0 0 1-.41-.616 6.264 6.264 0 0 0-2.054-2.67c-1.027-.82-2.259-1.026-4.107-1.026a6.929 6.929 0 0 0-4.722 1.643 7.8 7.8 0 0 0-1.848 4.928v7.392a6.833 6.833 0 0 0 1.848 5.133 6.929 6.929 0 0 0 4.722 1.643 7.493 7.493 0 0 0 4.928-1.643q1.848-1.54 1.848-4.928v-1.232h-5.133a1.234 1.234 0 0 1-.822-.205c-.205-.205-.205-.41-.205-.821v-2.26a1.234 1.234 0 0 1 .205-.82c.206-.206.411-.206.822-.206h10.267c.41 0 .616 0 .82.206s.206.41.206.82v4.518a12.544 12.544 0 0 1-1.642 6.16 9.807 9.807 0 0 1-4.518 4.107 13.78 13.78 0 0 1-6.776 1.438c-3.696-.206-6.776-1.233-9.035-3.286Z"/><path fill="#f0f4f9" d="M762.619 772.173a5.592 5.592 0 0 1-1.848 4.312 5.733 5.733 0 0 1-4.518 1.848H441.68a6.178 6.178 0 0 1-6.16-6.16 5.592 5.592 0 0 1 1.848-4.312 5.733 5.733 0 0 1 4.517-1.848H756.46a6.048 6.048 0 0 1 6.16 6.16ZM702.045 811.186a5.592 5.592 0 0 1-1.848 4.313 5.733 5.733 0 0 1-4.518 1.848H502.253a6.178 6.178 0 0 1-6.16-6.16 5.592 5.592 0 0 1 1.848-4.313 5.734 5.734 0 0 1 4.517-1.848h193.427a6.048 6.048 0 0 1 6.16 6.16Z"/><path fill="#292561" d="M897.73 889.214c.205 1.643.41 3.08.616 3.901a1.544 1.544 0 0 0 1.437 1.027h68.377a1.44 1.44 0 0 0 1.437-1.848l-2.669-11.088-8.419-35.728-27.104 2.874s2.053 16.016-19.302 22.177c-13.141 3.901-14.784 12.936-14.373 18.685Z"/><path fill="#191937" d="M923.602 865.19c9.035-7.187 8.008-16.632 8.008-16.632l27.105-2.875 4.517 19.507Z"/><path fill="#292561" d="M995.88 889.214c.206 1.643.411 3.08.616 3.901a1.544 1.544 0 0 0 1.438 1.027h68.376a1.44 1.44 0 0 0 1.438-1.848l-2.67-11.088-8.418-35.728-27.105 2.874s2.054 16.016-19.301 22.177c-13.142 3.901-14.784 12.936-14.374 18.685Z"/><path fill="#191937" d="M1021.753 865.19c9.034-7.187 8.008-16.632 8.008-16.632l27.104-2.875 4.517 19.507Z"/><path fill="#464ae4" d="M892.391 853.075h96.097c1.438-7.597 1.027-18.275-.41-29.98-.206-1.026-.206-2.052-.411-3.08a352.505 352.505 0 0 0-7.598-38.397c0-.205-.205-.41-.205-.616a17.11 17.11 0 0 0-.821-3.08c-4.928-22.998-2.464-55.235.205-78.643l.616-4.929c.205-1.026.205-2.258.41-3.285 5.545-41.683 16.222-89.937 26.694-130.183.206-1.027.616-2.259.822-3.285 3.49-13.347 5.75-21.15 5.75-21.15-8.009-.41 30.594 1.643-86.858-4.723 0 0-2.464 14.374-5.955 37.577a15.958 15.958 0 0 0-.41 3.285c-10.473 66.53-27.72 188.088-28.542 255.643v3.286c0 7.803.205 15.195.616 21.56Z"/><path fill="#2624bd" d="M962.205 692.708c1.232 13.552.616 27.104 2.67 40.656 1.642 10.472 5.338 21.15 11.909 29.363a233.549 233.549 0 0 1-.616-24.435 18.788 18.788 0 0 1 .205-3.285c.411-11.294 1.438-23.408 2.875-35.729-5.544-27.515-7.597-54.619-8.624-82.545-.41-12.936-.821-25.667-1.232-38.603-.205-9.65 1.232-30.595 2.053-40.246-11.91 16.017-21.56 46.817-22.381 66.94-1.232 29.774 10.472 58.315 13.141 87.884Z"/><path fill="#2624bd" d="M968.981 652.873a8.892 8.892 0 0 0 1.027-.206l-.616-3.08c-.41 0-.616.206-1.027.206-14.579 2.258-29.568 4.722-44.558 5.954-5.749.411-11.088.616-15.81.616-.206 1.027-.206 2.054-.411 3.08 4.928 0 10.472-.205 16.427-.616 15.4-1.232 30.39-3.49 44.968-5.954ZM963.848 567.248a17.663 17.663 0 0 1 .205-3.286c-13.141 2.053-26.488 4.107-40.04 5.134-1.027 0-2.054.205-3.08.205a15.958 15.958 0 0 0-.41 3.285c1.231 0 2.463-.205 3.9-.205 13.347-1.232 26.489-3.08 39.425-5.133ZM924.218 615.501c13.347-1.026 26.694-3.08 39.835-5.133 0-1.027-.205-2.053-.205-3.08-12.936 2.053-26.488 4.107-39.835 5.133-3.491.206-6.571.411-9.651.411-.205 1.027-.205 2.053-.41 3.08 3.285 0 6.775-.205 10.266-.41ZM968.981 696.198c3.08-.41 6.366-1.026 9.446-1.437l-.616-3.08c-3.08.41-6.16 1.027-9.24 1.437-14.58 2.26-29.569 4.723-44.558 5.955a152.993 152.993 0 0 1-21.355.41c-.205 1.028-.205 2.054-.41 3.08a161.301 161.301 0 0 0 21.97-.41c15.195-1.232 30.184-3.696 44.763-5.955ZM897.524 745.479a146.195 146.195 0 0 0 26.9 0c15.194-1.232 30.184-3.49 44.763-5.955l7.392-1.232a18.788 18.788 0 0 1 .205-3.285l-8.008 1.232c-14.579 2.259-29.363 4.723-44.558 5.955a139.676 139.676 0 0 1-26.283 0 20.474 20.474 0 0 0-.41 3.285ZM893.828 788.189c8.625 1.232 18.48 1.437 30.595.41 15.195-1.231 30.185-3.49 44.764-5.954 3.696-.616 7.186-1.232 10.882-1.643a17.11 17.11 0 0 0-.821-3.08c-3.49.616-7.187 1.027-10.677 1.643-14.58 2.259-29.363 4.723-44.558 5.955-11.91.82-21.766.82-30.185-.411v3.08ZM891.775 831.31c9.035 1.437 19.507 1.847 32.443.82 15.195-1.231 30.184-3.49 44.763-5.954 6.16-1.027 12.32-2.053 18.48-2.875h.616c-.205-1.026-.205-2.053-.41-3.08h-.616c-6.16.822-12.32 1.848-18.48 2.875-14.58 2.259-29.363 4.723-44.558 5.955-12.937 1.026-23.409.821-32.238-.822v3.08Z"/><path fill="#464ae4" d="M967.75 641.374c5.133 23.819 23.202 118.273 34.906 176.794l.616 3.08c3.491 17.043 5.75 28.952 6.571 31.416a.717.717 0 0 0 .206.411h84.187a100.726 100.726 0 0 0 4.107-14.579l.616-3.696c1.848-12.115 1.437-25.872-2.875-41.478a151.844 151.844 0 0 0-16.837-37.782c-2.26-3.696-4.518-9.65-7.187-17.248l-1.232-3.696c-7.803-24.64-16.222-62.216-21.355-87.473-.821-3.901-5.339-25.872-10.678-56.467-2.053-11.704-3.9-22.382-5.338-31.006a15.85 15.85 0 0 1-.411-3.08c-2.259-13.141-3.49-21.355-3.49-21.355l-59.959-38.603s-2.053 15.4-3.901 37.166c-2.259 31.21-4.312 77 2.053 107.596Z"/><path fill="#2624bd" d="m963.848 567.248 5.133-.822c6.16-1.026 12.32-2.053 18.48-2.875q8.933-1.232 19.713-2.464a223.915 223.915 0 0 1 26.694-1.232 15.85 15.85 0 0 1-.411-3.08 250.722 250.722 0 0 0-25.256 1.232c-7.393.616-14.58 1.643-20.945 2.465-6.16.82-12.32 1.848-18.48 2.874-1.437.206-3.08.41-4.517.616-.206 1.027-.206 2.053-.411 3.286ZM963.848 607.288a15.54 15.54 0 0 0 .205 3.08c1.643-.205 3.286-.616 4.928-.821 6.16-1.027 12.32-2.054 18.48-2.875 2.67-.41 5.75-.821 8.625-1.232 13.552-1.643 29.363-3.08 44.968-2.259-.205-1.026-.41-2.053-.616-3.285-15.195-.821-30.595.616-43.736 2.259-3.491.41-6.776.82-9.856 1.437-6.16.821-12.32 1.848-18.48 2.875-1.233.205-2.875.616-4.518.821ZM969.597 649.587l.616 3.08c5.544-.821 11.294-1.848 16.838-2.67h.616c17.453-2.463 40.246-5.133 62.217-2.668a98.12 98.12 0 0 1-.616-3.286c-21.766-2.259-44.148.205-61.396 2.875h-.616c-5.955.821-11.91 1.848-17.659 2.67ZM977.81 691.681l.617 3.08a3.494 3.494 0 0 1 1.437-.205c2.464-.411 5.134-.822 7.598-1.232 17.864-2.67 41.272-5.134 63.654-2.67 2.874.411 5.75.822 8.418 1.232-.205-1.026-.616-2.258-.82-3.285-2.465-.41-4.724-.821-7.188-1.027-22.792-2.669-46.406 0-64.475 2.67-2.259.41-4.517.616-6.776 1.026-.616.206-1.643.206-2.464.411ZM986.024 733.775l.616 3.08a1.234 1.234 0 0 0 .822-.205c17.864-2.67 41.272-5.134 63.654-2.67a110.15 110.15 0 0 1 21.15 4.312l-1.233-3.696a142.56 142.56 0 0 0-19.507-3.901c-22.792-2.67-46.406 0-64.475 2.67-.205.205-.616.205-1.027.41ZM994.238 775.869l.616 3.08c16.632-2.259 36.755-3.902 56.262-1.643 18.685 2.259 34.701 8.008 44.968 16.016a44.607 44.607 0 0 0-1.437-4.928c-10.678-7.186-25.873-12.115-43.12-14.168-19.918-2.259-40.247-.616-57.29 1.643ZM1002.656 818.168l.616 3.08c14.785-1.643 31.622-2.464 48.049-.616 19.918 2.259 37.166 8.83 47.227 17.864l.616-3.696c-10.677-8.83-27.72-14.99-47.432-17.248-16.838-2.053-34.086-1.027-49.076.616Z"/><path fill="#ff9a05" d="M940.645 479.364s-17.659 24.64-35.523 31.416c-4.723 1.848-9.446 2.464-13.758 1.027-21.56-6.366-29.773-71.868-29.773-71.868l12.114-6.16 22.382 31.211c18.686-59.958 36.55-63.449 36.55-63.449l2.464 22.382Z"/><path fill="#ec8400" d="M940.645 479.364s-17.659 24.64-35.523 31.416a9.446 9.446 0 0 1-2.053-8.008c1.232-5.133 6.57-7.803 10.061-11.91 3.285-4.106 4.517-9.65 4.517-14.784 0-5.338-1.232-10.472-1.848-15.605a104.671 104.671 0 0 1-.82-16.016 87.17 87.17 0 0 1 4.927-28.131c1.027-3.08 3.696-5.75 7.187-4.312 3.696 1.437 5.75 6.16 6.981 9.65.206.822.616 1.438.822 2.26Z"/><path fill="#ff9a05" d="M1033.046 545.482c0 6.365-31.006 9.24-60.369 8.83-3.696 0-7.392-.206-10.882-.206a208.864 208.864 0 0 1-26.283-2.464c-8.008-1.437-13.142-3.49-13.142-5.955 3.696-37.987-16.016-113.14 3.08-139.628 8.214-11.499 72.278-15.811 95.276-1.232.205 0 .205.205.41.205a8.04 8.04 0 0 1 2.054 1.643 20.134 20.134 0 0 1 4.928 6.365c16.016 30.8 4.928 132.442 4.928 132.442Z"/><path fill="#ec8400" d="M1033.046 545.482c0 6.365-31.006 9.24-60.369 8.83-3.696 0-7.392-.206-10.882-.206a208.864 208.864 0 0 1-26.283-2.464 10.775 10.775 0 0 1 4.517-3.49c3.08-1.438 6.365-1.849 9.035-3.697 4.106-2.875 5.75-8.213 6.57-13.141s1.027-10.267 3.286-14.58c3.696-7.186 11.704-10.882 19.507-12.525s16.016-1.437 23.613-3.696c5.955-1.642 12.115-5.133 13.963-11.088 2.259-6.776-1.848-13.963-4.928-20.533a76.429 76.429 0 0 1-1.437-59.753c5.133 3.696 11.91 3.49 18.48 3.901 16.016 30.8 4.928 132.442 4.928 132.442Z"/><path fill="#ffd1c4" d="m990.336 377.928-1.026 18.275c0 5.544-29.569 5.544-29.569 0v-14.784s-12.525 3.08-18.89-3.286c-4.723-4.723-10.062-61.395 14.989-65.913 31.622-5.749 49.691 15.4 51.54 23.82 1.642 8.418-17.044 41.888-17.044 41.888Z"/><path fill="#292561" d="M990.336 377.928c-3.696-9.446 5.544-13.552 9.651-20.123.205-.205.205-.616.41-.821.411-1.848.206-5.34-1.642-6.982a3.615 3.615 0 0 0-3.901-.616c-5.955 1.848-2.464 5.75-4.107 6.57-2.053 1.233-12.73-13.757-.821-23.818 0 0-60.574 3.285-61.19-22.382s26.693-34.29 39.63-27.104c10.677 5.955 14.784 14.168 24.024 18.275a31.122 31.122 0 0 0 6.981 2.053c.616 0 1.027.206 1.643.206 13.757 2.669 18.275 10.677 10.472 21.355-.206 0 22.792 10.882-21.15 53.387Z"/><path d="m847.833 400.104-.205.411-.206-.411h.411z"/><path fill="#5b6f8b" d="m907.586 469.713-34.497-1.643a2.896 2.896 0 0 1-2.874-2.258l-16.838-58.521a3.207 3.207 0 0 1 3.286-4.107l34.496 1.438a3.337 3.337 0 0 1 3.08 2.258l16.838 58.932a3.269 3.269 0 0 1-3.491 3.901Z"/><path fill="#ffd1c4" d="M968.16 510.78s-33.675-15.81-32.443 5.544c1.437 21.355 35.728 8.008 35.728 8.008Z"/><path fill="#ff9a05" d="M1015.182 401.541c35.523 14.374 67.145 115.605 32.032 126.077-17.659 5.338-78.849-2.26-78.849-2.26l-4.722-17.863 65.502-12.936c.205 0-36.55-71.663-13.963-93.018Z"/><path fill="#ffd1c4" d="M873.705 437.475a12.451 12.451 0 0 1-9.65 14.99c-6.571 1.232-11.5-24.025-4.928-25.257a12.554 12.554 0 0 1 14.578 10.267Z"/></g></svg>