<svg xmlns="http://www.w3.org/2000/svg" enable-background="new 0 0 300 300" viewBox="0 0 300 300"><path fill="#f68d3e" d="M279,199.7l-121.2-20.3L51.3,211.5c-1.3,0.1-2.5,0.8-2.8,2.1c-0.3,1.4,0.9,2.8,2.3,3.1l0.1,0
				c0,0,78.2,15.4,78.2,28.6c0,17.8-77.4,0.2-77.5,0.2c-1.3-0.1-2.5,0.8-2.7,2.1c-0.3,1.4,0.7,2.8,2.1,3l131.7,24.1
				c3.8,0.7,7.8,0.4,11.5-0.9l88.5-31.3c8.9-3.1,14.8-11.5,14.8-20.9l0,0C297.5,210.7,289.7,201.5,279,199.7z"/><path fill="#f68d3e" d="M183,234.9c16.6,7.9,13.7,38.2-8.8,38.2c-0.2,0-0.3,0-0.5,0l9,1.7c3.8,0.7,7.8,0.4,11.5-0.9l88.5-31.3
				c8.9-3.1,14.8-11.5,14.8-20.9c0-8.6-4.9-16.2-12.3-19.9L183,234.9z"/><path fill="#f1552b" d="M174.2,273.1c0.5,0,1,0,1.4,0c-0.1,0.1-0.3,0.2-0.4,0.3l-1.5-0.3C173.8,273.1,174,273.1,174.2,273.1z"/><path fill="#f68d3e" d="M297.5,221.6c0,9.4-5.9,17.8-14.8,20.9l-9.4,3.3c8.8-3.2,14.6-11.8,14.6-21.1
				c0-8.6-4.9-16.2-12.3-19.9l9.6-3.1C292.5,205.4,297.5,213,297.5,221.6z"/><path fill="#f68d3e" d="M282.1,226.9c0,9.4-5.9,17.9-14.8,21l-9.4,3.4c8.8-3.2,14.6-11.8,14.6-21.3
				c0-8.7-4.9-16.3-12.3-20l9.6-3.1C277.2,210.6,282.1,218.2,282.1,226.9z"/><path fill="#f68d3e" d="M266.7,231.9c0,9.6-5.9,18.2-14.8,21.4l-9.4,3.4c8.8-3.3,14.6-12,14.6-21.6
				c0-8.8-4.9-16.6-12.3-20.3l9.6-3.2C261.8,215.3,266.7,223.1,266.7,231.9z"/><path fill="#f68d3e" d="M251.3,237.2c0,9.7-5.9,18.3-14.8,21.6l-9.4,3.4c8.8-3.3,14.6-12.1,14.6-21.8
				c0-8.9-4.9-16.7-12.3-20.5l9.6-3.2C246.4,220.5,251.3,228.3,251.3,237.2z"/><path fill="#f68d3e" d="M236,242.3c0,9.8-5.9,18.5-14.8,21.8l-9.4,3.5c8.8-3.3,14.6-12.3,14.6-22
				c0-9-4.9-16.9-12.3-20.7l9.6-3.2C231,225.4,236,233.4,236,242.3z"/><path fill="#f68d3e" d="M220.6,247.6c0,9.9-5.9,18.8-14.8,22.1l-9.4,3.5c8.8-3.4,14.6-12.4,14.6-22.3
				c0-9.1-4.9-17.1-12.3-21l9.6-3.3C215.6,230.5,220.6,238.5,220.6,247.6z"/><path fill="#f1552b" d="M205.2,252.6c0,9.9-5.9,18.7-14.8,22l-0.8,0.3h0c-1,0.1-2.1,0.2-3.2,0.2
				c5.7-4.4,9.2-11.6,9.2-19.2c0-9.1-4.9-17.1-12.3-20.9l8.1-2.8l1.5-0.5c0,0,0,0,0,0C200.3,235.5,205.2,243.5,205.2,252.6z"/><path fill="#58597d" d="M174.3,233.1c-1,0-122.9-21.5-122.9-21.5c-1.3,0.1-2.5,0.8-2.8,2.1c-0.3,1.4,0.9,2.8,2.3,3.1l0.1,0
					c0,0,79.2,21.1,79.2,27.8c0,9.1-78.5,0.9-78.6,0.9c-1.3-0.1-2.5,0.8-2.7,2.1c-0.3,1.4,0.7,2.8,2.1,3l123.1,22.5
					C195.1,279,206.9,233.5,174.3,233.1z"/><path fill="#f7f9fd" d="M176.8,238.8L54.1,217.7v28.6l117.6,21.5c9,1.7,17.4-5.3,17.4-14.5l0,0C189.1,246.1,183.9,240,176.8,238.8
					z"/><path fill="#dfdfde" d="M184.1,170L51.3,211.5c-1.3,0.1-2.5,0.8-2.8,2.1c-0.1,0.5,0,1.1,0.2,1.5
				c0.3,0.6,0.9,1.1,1.5,1.4c0.2,0.1,0.3,0.1,0.5,0.1l3.2,0.9v10.2c0,0,96.1,17.9,96.4,18l13.2-13.6L184.1,170z"/><path fill="#58597d" d="M249.2,154.7L119.5,133L5.5,167.4c-1.4,0.2-2.7,0.9-3,2.3c-0.3,1.5,1,3,2.5,3.3l0.2,0
				c0,0,84.8,22.6,84.8,29.8c0,9.8-84,1-84.1,0.9c-1.4-0.1-2.6,0.9-2.9,2.3c-0.3,1.5,0.7,3,2.3,3.3l141,25.8c4.1,0.8,8.3,0.4,12.3-1
				l94.8-33.6c9.5-3.4,15.8-12.3,15.8-22.4l0,0C269.1,166.6,260.7,156.7,249.2,154.7z"/><path fill="#2b2b3d" d="M137.1,190.5c-1.1,0-131.6-23-131.6-23c-1.4,0.2-2.7,0.9-3,2.3c-0.3,1.5,1,3,2.5,3.3l0.2,0
				c0,0,84.8,22.6,84.8,29.8c0,9.8-84,1-84.1,0.9c-1.4-0.1-2.6,0.9-2.9,2.3c-0.3,1.5,0.7,3,2.3,3.3l141,25.8c4.1,0.8,8.3,0.4,12.3-1
				C158.4,234.1,169.1,190.7,137.1,190.5z"/><path fill="#f15e71" d="M146.4,192.4c17.8,8.4,14.6,40.9-9.4,40.9c-0.2,0-0.4,0-0.6,0l9.7,1.8
				c4.1,0.8,8.3,0.4,12.3-1l94.8-33.6c9.5-3.4,15.8-12.3,15.8-22.4c0-9.2-5.3-17.4-13.2-21.3L146.4,192.4z"/><path fill="#f7f9fd" d="M139.9,196.6L8.5,174v30.6l125.9,23c9.7,1.8,18.6-5.7,18.6-15.5l0,0C153,204.5,147.4,197.9,139.9,196.6z"/><path fill="#f6c327" d="M229.1,192.6c0,7.9-3.5,15.1-9.2,19.7l-37.7,13.3c8.7-3.9,14.4-12.9,14.4-23c0-6.1-2.1-11.8-5.6-16.1
				c-2-2.5-4.6-4.6-7.4-6.2c-2.1-1.1-4.3-1.9-6.8-2.3l-130.5-23l33.1-10L209.3,168c2.2,0.4,4.3,1.1,6.2,2c3.1,1.5,5.8,3.8,8,6.5
				C227,180.9,229.1,186.5,229.1,192.6z"/><path fill="#fdc828" d="M229.1,192.6c0,7.9-3.5,15.1-9.2,19.7l-37.7,13.3c8.7-3.9,14.4-12.9,14.4-23c0-6.1-2.1-11.8-5.6-16.1
				c-2-2.5-4.5-4.7-7.4-6.2c-0.4-0.2,31.9-10.4,31.9-10.4c3.1,1.5,5.8,3.8,8,6.5C227,180.9,229.1,186.5,229.1,192.6z"/><path fill="#f15e71" d="M218.3,113.2L114,95.7l-91.5,27.7c-1.1,0.1-2.2,0.7-2.4,1.8c-0.2,1.2,0.8,2.4,2,2.6l0.1,0
				c0,0,68.1,18.1,68.1,23.9c0,7.9-67.5,0.8-67.6,0.8c-1.1,0-2.1,0.7-2.3,1.8c-0.2,1.2,0.6,2.4,1.8,2.6l113.2,20.7
				c3.3,0.6,6.7,0.3,9.9-0.8l76.1-27c7.6-2.7,12.7-9.9,12.7-18l0,0C234.2,122.7,227.5,114.8,218.3,113.2z"/><path fill="#7e2e38" d="M128.2,141.9c-0.9,0-105.7-18.5-105.7-18.5c-1.1,0.1-2.2,0.7-2.4,1.8c-0.2,1.2,0.8,2.4,2,2.6l0.1,0
				c0,0,68.1,18.1,68.1,23.9c0,7.9-67.5,0.8-67.6,0.8c-1.1,0-2.1,0.7-2.3,1.8c-0.2,1.2,0.6,2.4,1.8,2.6l113.2,20.7
				c3.3,0.6,6.7,0.3,9.9-0.8C145.3,177,153.9,142.1,128.2,141.9z"/><path fill="#63c2ee" d="M219.2,113.4l-91,28.5c22.2,0.1,22.1,34.5-0.1,34.5c-0.2,0-0.3,0-0.4,0l7.8,1.4c3.3,0.6,6.7,0.3,9.9-0.8
				l76.1-27c7.6-2.7,12.7-9.9,12.7-18C234.2,123.1,227.9,115.4,219.2,113.4z"/><path fill="#f7f9fd" d="M130.4,146.8L24.9,128.7v24.6L126,171.8c7.8,1.4,14.9-4.5,14.9-12.4l0,0
				C140.9,153.2,136.5,147.9,130.4,146.8z"/><path fill="#2a617d" d="M146.7,176.6c0,0,23.7-15.9,8.8-43.1c0,0,23.6,2.3,23.6,31.3c0,0,17-17.4,3.2-39.9
				c0,0,22.7,3,22.7,30.5c0,0,13.1-10.8,1.6-37.9c0,0,24.8,7,15.3,31.8L146.7,176.6z"/><path fill="#f5af86" d="M239.1,179.3c-0.9-0.6-8,2.5-7.9,3c0.2,1.4,1.6,6.6,2.5,7.1c0.9,0.4,8.1-2,7.8-3.4
				C241.3,184.8,240,179.9,239.1,179.3z"/><path fill="#08090b" d="M232.7,188c0,0-1.7,5.9,1.9,8.9c0,0,17.7-5,22.7-7.6c0,0-2-6.5-6.7-5.5c-4.7,1-9.2,2.6-9.2,2.6
				S237.2,190.4,232.7,188z"/><path fill="#08090b" d="M174.3,114.7c4.6,9.1,21,12.8,33.3,16c7.3,1.9,13.1,3.7,13.9,6.4c3,10.4,5.2,37.8,8.1,47.4
				c1,1.2,3.2,1.2,5.4,0.8c3.6-0.7,7.5-2.5,7.5-2.5c-0.7-21.3,1.1-41.2-2.3-56c-5.7-24.9-43.4-36.2-43.4-36.2
				C190.1,83.3,166.2,98.8,174.3,114.7z"/><path fill="#f5af86" d="M200.6,187.3c-0.5-1-8-2.2-8.2-1.8c-0.6,1.3-2.3,6.4-1.8,7.3c0.5,0.8,7.9,2.7,8.4,1.5
				C199.4,193.1,201,188.3,200.6,187.3z"/><path fill="#08090b" d="M186.3,109.9c3.9,4,8.5,7.3,12.5,11.3c3.1,3,6,6.2,8.7,9.6c7.3,1.9,13.1,3.7,13.9,6.4
				c3,10.4,5.2,37.8,8.1,47.4c1,1.2,3.2,1.2,5.4,0.8c0.3-1.6,0.4-3.4,0.4-5c0.2-5-0.3-9.9-1.3-14.8c-1.9-9.7-4.9-20-9-29
				c-2.3-5-4.5-9.4-5.7-14.9c-0.7-3.6-1.6-7.1-3.8-10.1c-5.6-7.5-15.6-9.6-23.1-14.7c-0.1-0.1-0.2-0.1-0.2-0.1
				c-0.1-0.4-0.4-0.8-0.9-0.7C184.2,98,180.7,103.9,186.3,109.9z"/><path fill="#08090b" d="M190.5,191c0,0-4.7,4-3.2,8.5c0,0,17.6,5.5,23.2,6c0,0,1.8-6.5-2.6-8.3c-4.5-1.8-9.1-2.8-9.1-2.8
				S192.9,195.5,190.5,191z"/><path fill="#08090b" d="M151.3,115.6c7.3,14.6,36.1,10.4,38.1,17.5c3,10.4,5,48.1,1.1,54.1c0.3,0.4,0.7,0.7,1.2,1.1
				c3.3,2.4,8.9,3.6,8.9,3.6c6.6-14.5,13.2-42.8,14.2-59.2c1.6-25.5-41.1-41.3-41.1-41.3c-5.4-5.9-22.3,3.4-24,15.6
				C149.4,109.8,149.8,112.7,151.3,115.6z"/><path fill="#08090b" d="M151.3,115.6c7.3,14.6,36.1,10.4,38.1,17.5c3,10.4,5,48.1,1.1,54.1c0.3,0.4,0.7,0.7,1.2,1.1
				c4.5-7.3,6.7-15.4,6.7-24.1c0-4.8-0.5-9.5-0.8-14.2c-0.3-4.8-0.3-9.8-1.3-14.6c-1.6-8-7.5-10.2-14.9-11.6
				c-10.4-2-22.9-4.9-26.9-16c0.6-0.4,0.5-1.5-0.4-1.6c-1.6-0.2-3.2,0.2-4.5,0.8C149.4,109.8,149.8,112.7,151.3,115.6z"/><path fill="#f7c228" d="M203.4,104.3c-0.2,0.7-18.5,4.9-24.1,5.8c-6,0.9-13.1,1.2-18.3,1c-4-0.2-6.8-0.7-7.2-1.5
		c-0.8-1.7,0.8-16.6,0.5-27.5c-0.1-1.8-0.1-3.5-0.1-5.3c-0.1-11.4,0.6-22.4,3.2-24.3c0.6-0.4,1.2-0.9,1.9-1.4
		c1.1-0.7,2.3-1.5,3.8-2.3c2.2-1.2,4.8-2.3,7.8-3c4.5-1.2,9.7-1.6,15.5-0.2c0,0,0,0,0,0c1.4,0.3,2.8,0.7,4.3,1.3
		c0.3,0.1,0.7,0.3,1,0.4c4.9,2,4.2,12.6,3.4,21.5c-0.4,4.1-0.7,7.9-0.6,10.2c0.1,0.8,0.1,1.6,0.3,2.3
		C195.9,87.8,202.6,99.6,203.4,104.3z"/><path fill="#e3b323" d="M161.3,56.3c-3.1,4-3.6,14.4-6.2,18.8c-0.3,0.5-0.6,1.1-0.9,1.7c0,1.8,0,3.6,0.1,5.3
		c0.3,11-1.3,25.8-0.5,27.5c0.4,0.8,3.3,1.3,7.2,1.5c0.7-1.3,0.4-2.7,0.3-4.1c-0.2-2.7-0.5-5.4-0.7-8.1c-0.5-5.8-1.1-11.5,0.1-17.2
		c1.2-5.9,3.9-10.6,5.2-16.5c1.5-7.2-2.4-11.2-2.5-11.4C163.9,53.1,161.9,55.6,161.3,56.3z"/><path fill="#f5af86" d="M182.1,40.1v4.8c0,0,1.1,2.1,0,2.3c-2.5,0.5-6-2.3-6-2.3v-7.3L182.1,40.1z"/><path fill="#f5af86" d="M176,42.4V40c0,0,2.6,2.2,5.6,2.3C181.6,42.3,178.7,44.3,176,42.4z"/><path fill="#f5af86" d="M187.2,32.1c0,0-0.9,5-2.9,8.7c-1.5,2.6-8.2,2.6-9.3-3.5c-1.1-6,3.7-10.5,3.7-10.5L187.2,32.1z"/><path fill="#08090b" d="M186.2,27.7c0.8-1.9-2.1-1.5-3.4-2.1c-1.5-0.6-3.1-1.1-4.7-0.5c-2.6,1-4.9,4.9-4.8,7.8c-0.2,0.5-0.2,1,0.2,1.5
		c0.6,0.8,1.8,0.9,2.6,0.3c1.2-0.9,1.5-2.8,2.1-4.1c0.1-0.3,0.4-0.7,0.5-1c3.3,2.1,7.8,4.7,11.2,3.2C193.4,31.3,191,27.6,186.2,27.7
		z"/><path fill="#e3b323" d="M185.8,45.9c2.1,0,5,0.8,6.2,2.7c2,3.3,1.9,25.5,4.3,35.9c0.5,2.4,2.2,2.1,2.9,3.2c1.3-13.4,0-26.5-2.8-36.7
		C195,45.6,187.5,45.3,185.8,45.9z"/><path fill="#f7c228" d="M191.3,68.8c0,0-0.2,1.9,0.2,4.7c0.9,6.5,5.1,17.5,22.6,18.6c19.1,1.1,10.9,6,9.1-3.2
		c-0.5-2.8-1.1-4.6-1.1-4.6c-0.3-1.8-7.8-1.6-7.8-1.6c-2.2,0.5,2.5-7.1,0.3-8.3c-2.2-1.2-15.1-23.3-23.2-27
		C186.5,45.1,191.3,68.8,191.3,68.8z"/><path fill="#f5af86" d="M237.3,81.4c-0.8-0.2-1.8-0.5-2.5-0.3c-0.6,0.1-1,0.4-1.3,0.8c-0.7,0.9-1.2,2-1.8,2.9c0,0.1,0,0.1,0,0.2
		c0,0.1,0,0.1,0,0.2c0.7,1.2,2.2,0.6,2.9-0.3c0.2-0.3,0.4-0.6,0.6-0.9c0.8-1,1.2-0.6,2.1-0.8c0.4-0.1,0.9-0.4,0.9-0.8
		C238.1,81.7,237.7,81.5,237.3,81.4z"/><g><path fill="#dfe0e3" d="M172.6,77l0.2-2.3l3.9-10c13.6,0.7,25.9,3,30.9,7.6c4.3-6.5,10.8-5.5,27.8-5.9l5.7,3.3l-22.2,6.9L203,82
			l-28.6-0.9L172.6,77z"/><polygon fill="#f15e71" points="171 74.6 207.4 78.2 200 113.4 166.9 111.7"/><path fill="#f15e71" d="M241.3,69.4l-29.4,3.4l0.3,0.3c0.3,0.2,0.4,0.7,0.2,1l-0.4,0.8l-1.6,4.6l-1.2,5.8l-2.3,4.9l-1.3,8.1
			l-2.1,5.6l1.1,5.1l25.1-3.8L241.3,69.4z"/><path fill="#7e2e38" d="M207.4,78.2c1.7-0.8,3.2-1.9,4.3-3.4c0.2-0.3,0.4-0.7,0.4-1.1l0-0.1c0-0.2,0-0.3-0.1-0.5l-0.1-0.4
			c0.1,0,0.2,0,0.3,0c0.4,0.1,0.7,0.4,0.7,0.8l0,0.3c0,0.1,0,0.2,0,0.2l-8.4,34.9l-4.6,4.3L207.4,78.2z"/><path fill="#d2d3d6" d="M174.7,69.9c9.9,0.3,20.2,1.4,26.9,2.8c-9-0.9-18.2-1.6-27.2-2L174.7,69.9z"/><path fill="#d2d3d6" d="M176.1,66.3c10.7,0.2,19.7,1.8,26.8,4.7c-9-1.8-18.3-2.9-27.4-3.2L176.1,66.3z"/></g><g><path fill="#f5af86" d="M183.8,96.2c0.5,0.8,1.2,0.3,2,0.4c1,0.1,3.5,2.2,4.6,1.7c1.5-0.6-1.8-1.5-1-2.2c0.3-0.2,4.7,1.8,3.5-0.3
			c-0.3-0.5-2.6-1.6-1.7-1.8c1.1,0.3,3.3,1.4,3.7,0.3c0.2-0.5-1.1-1.2-1.8-1.5c-3.3-1-1.6-1.1,0.6-0.3c1.1,0.4,1.7-0.2,0.8-1.1
			c-1.9-1.9-5.6-1.6-7.9-0.7C185.7,91.2,182.6,94.5,183.8,96.2z"/><path fill="#f5af86" d="M187.6,91.1c0.4-0.2,0.6-0.5,1-0.8c0.4-0.3,0.8-0.6,1-1c0.3-0.7-0.4-0.8-0.9-0.6c-0.9,0.3-2.4,2.1-3,2.8
			C185.7,91.5,187.3,91.3,187.6,91.1z"/></g><path fill="#f7c228" d="M134.9,104.3c6.9,11,50.9-7.7,50.9-7.7l-0.8-4.4c-0.5-0.1-34.2,4.3-34.2,0.8c0-1.6,12.2-21.2,14-28.7
		c0.9-3.8,0.1-7-0.8-9.5c-1.3-3.5-5.3-4-8.6-2.3c-6.6,3.6-14.7,12.2-19.5,21.6C130.7,84.4,129,94.8,134.9,104.3z"/><path fill="#f5af86" d="M235,90.9c0-0.1-0.1-0.1-0.1-0.2c0.3-0.1,0.7-0.3,0.8-0.6c0.2-0.4-0.1-0.8-0.4-1.1c0,0,0,0,0,0
		c0.8-0.1,1.5-0.5,1.6-1.2c0.1-0.7-0.4-1-1.1-1.2c0.3-0.1,0.5-0.2,0.8-0.3c0.9-0.5,0.5-1.5-0.2-2c-0.5-0.3-1.8-0.3-2.5-0.2
		c-0.5,0-1.3,0.1-1.7,0.4c-0.8,0.6,0.1,1.3,0.7,1.7c-0.7-0.1-1.5,0.1-1.4,1c0,0.6,0.4,1.1,0.8,1.4c-0.4,0-0.7,0.1-1,0.3
		c-0.7,0.5-0.1,1.3,0.4,1.6c0.2,0.2,0.5,0.3,0.8,0.3c-0.1,0-0.1,0.1-0.1,0.1c-0.3,0.4,0.2,1,0.6,1.2C233.9,92.9,235.2,92.1,235,90.9
		z"/></svg>