<svg xmlns="http://www.w3.org/2000/svg" enable-background="new 0 0 300 300" viewBox="0 0 300 300"><path fill="#d1dcf8" d="M183.187 154.698c0 .287-.537.547-1.622.666h-2.757c-1.084-.12-1.62-.379-1.62-.673s.536-.546 1.62-.672h2.757c1.085.126 1.622.378 1.622.68zM195.187 154.698c0 .287-.537.547-1.622.666h-2.757c-1.084-.12-1.62-.379-1.62-.673s.536-.546 1.62-.672h2.757c1.085.126 1.622.378 1.622.68zM207.187 154.698c0 .287-.537.547-1.622.666h-2.757c-1.084-.12-1.62-.379-1.62-.673s.536-.546 1.62-.672h2.757c1.085.126 1.622.378 1.622.68zM213.845 149.342c.287 0 .546.536.665 1.622v2.757c-.043.397-.106.72-.182.97l-.178.586-.313-.095c-.434-.132-.65-.304-.65-.49s.216-.357.65-.488l-.487.487a5.69 5.69 0 0 1-.185-.97v-2.757c.126-1.086.378-1.622.68-1.622zM213.845 137.342c.287 0 .546.536.665 1.622v2.757c-.119 1.084-.378 1.62-.672 1.62s-.547-.536-.673-1.62v-2.757c.126-1.086.378-1.622.68-1.622zM213.845 125.342c.287 0 .546.536.665 1.622v2.757c-.119 1.084-.378 1.62-.672 1.62s-.547-.536-.673-1.62v-2.757c.126-1.086.378-1.622.68-1.622zM213.845 113.342c.287 0 .546.536.665 1.622v2.757c-.119 1.084-.378 1.62-.672 1.62s-.547-.536-.673-1.62v-2.757c.126-1.086.378-1.622.68-1.622zM213.845 101.342c.287 0 .546.536.665 1.622v2.757c-.119 1.084-.378 1.62-.672 1.62s-.547-.536-.673-1.62v-2.757c.126-1.086.378-1.622.68-1.622zM213.845 89.342c.287 0 .546.536.665 1.622v2.757c-.119 1.084-.378 1.62-.672 1.62s-.547-.536-.673-1.62v-2.757c.126-1.086.378-1.622.68-1.622zM213.845 77.342c.287 0 .546.536.665 1.622v2.757c-.119 1.084-.378 1.62-.672 1.62s-.547-.536-.673-1.62v-2.757c.126-1.086.378-1.622.68-1.622zM204.434 74.738c0-.287.537-.546 1.622-.666h2.758c1.084.12 1.62.379 1.62.673s-.536.546-1.62.673h-2.758c-1.085-.127-1.622-.379-1.622-.68zM192.434 74.738c0-.287.537-.546 1.622-.666h2.758c1.084.12 1.62.379 1.62.673s-.536.546-1.62.673h-2.758c-1.085-.127-1.622-.379-1.622-.68zM180.434 74.738c0-.287.537-.546 1.622-.666h2.758c1.084.12 1.62.379 1.62.673s-.536.546-1.62.673h-2.758c-1.085-.127-1.622-.379-1.622-.68zM168.434 74.738c0-.287.537-.546 1.622-.666h2.758c1.084.12 1.62.379 1.62.673s-.536.546-1.62.673h-2.758c-1.085-.127-1.622-.379-1.622-.68zM156.434 74.738c0-.287.537-.546 1.622-.666h2.758c1.084.12 1.62.379 1.62.673s-.536.546-1.62.673h-2.758c-1.085-.127-1.622-.379-1.622-.68zM144.434 74.738c0-.287.537-.546 1.622-.666h2.758c1.084.12 1.62.379 1.62.673s-.536.546-1.62.673h-2.758c-1.085-.127-1.622-.379-1.622-.68zM132.434 74.738c0-.287.537-.546 1.622-.666h2.758c1.084.12 1.62.379 1.62.673s-.536.546-1.62.673h-2.758c-1.085-.127-1.622-.379-1.622-.68zM120.653 74.533c.104 0 .204.07.295.212l-.302-.302c.248-.161.717-.294 1.41-.37h2.758c1.084.119 1.62.378 1.62.672s-.536.546-1.62.673h-2.758c-.693-.08-1.162-.213-1.41-.376l-.343-.226.047-.071c.092-.142.194-.212.303-.212zM120.653 62.533c.287 0 .547.537.666 1.622v2.757c-.12 1.084-.379 1.621-.673 1.621s-.546-.537-.672-1.62v-2.758c.126-1.085.378-1.622.68-1.622zM120.653 50.533c.287 0 .547.537.666 1.622v2.757c-.12 1.084-.379 1.621-.673 1.621s-.546-.537-.672-1.62v-2.758c.126-1.085.378-1.622.68-1.622zM120.653 38.533c.287 0 .547.537.666 1.622v2.757c-.12 1.084-.379 1.621-.673 1.621s-.546-.537-.672-1.62v-2.758c.126-1.085.378-1.622.68-1.622zM110.18 36.992c0-.287.537-.547 1.622-.666h2.758c1.084.12 1.62.379 1.62.673s-.536.546-1.62.673h-2.758c-1.085-.127-1.622-.379-1.622-.68zM98.18 36.992c0-.287.537-.547 1.622-.666h2.758c1.084.12 1.62.379 1.62.673s-.536.546-1.62.673h-2.758c-1.085-.127-1.622-.379-1.622-.68zM86.18 36.992c0-.287.537-.547 1.622-.666h2.758c1.084.12 1.62.379 1.62.673s-.536.546-1.62.673h-2.758c-1.085-.127-1.622-.379-1.622-.68zM74.18 36.992c0-.287.537-.547 1.622-.666h2.758c1.084.12 1.62.379 1.62.673s-.536.546-1.62.673h-2.758c-1.085-.127-1.622-.379-1.622-.68zM62.18 36.992c0-.287.537-.547 1.622-.666h2.758c1.084.12 1.62.379 1.62.673s-.536.546-1.62.673h-2.758c-1.085-.127-1.622-.379-1.622-.68zM53.661 40.487c-.287 0-.546-.537-.665-1.622v-2.539h1.564c1.084.12 1.62.379 1.62.673s-.536.546-1.62.673h-.22v1.193c-.125 1.085-.377 1.622-.679 1.622zM53.661 52.487c-.287 0-.546-.537-.665-1.622v-2.758c.119-1.084.378-1.62.672-1.62.295 0 .547.536.673 1.62v2.758c-.126 1.085-.378 1.622-.68 1.622zM53.661 64.487c-.287 0-.546-.537-.665-1.622v-2.758c.119-1.084.378-1.62.672-1.62.295 0 .547.536.673 1.62v2.758c-.126 1.085-.378 1.622-.68 1.622zM53.661 76.487c-.287 0-.546-.537-.665-1.622v-2.758c.119-1.084.378-1.62.672-1.62.295 0 .547.536.673 1.62v2.758c-.126 1.085-.378 1.622-.68 1.622zM53.661 88.487c-.287 0-.546-.537-.665-1.622v-2.758c.119-1.084.378-1.62.672-1.62.295 0 .547.536.673 1.62v2.758c-.126 1.085-.378 1.622-.68 1.622z"/><path fill="#bbcaea" d="M99.806 257.492v3.792h-18.85v-3.792c0-1.38 1.119-2.504 2.503-2.504h13.847c1.38 0 2.5 1.123 2.5 2.504z"/><path fill="#d1dcf8" d="M87.628 210.485h5.508v44.504h-5.508z"/><path fill="#bbcaea" d="M87.628 210.485h5.508v4.4h-5.508z"/><path fill="#ce704c" d="M112.141 209.017v-6.787a3.197 3.197 0 0 0-3.197-3.197h-37.34a3.197 3.197 0 0 0-3.197 3.197v6.787c0 .81.657 1.468 1.469 1.468h40.796c.812 0 1.47-.657 1.47-1.468z"/><path fill="#c16244" d="M68.407 205.637v3.38c0 .81.657 1.468 1.469 1.468h40.796c.812 0 1.47-.657 1.47-1.468v-3.38H68.406z"/><path fill="#fec9ac" d="M96.125 154.872s1.312 2.934 3.58 5.986c2.91 3.928 7.36 7.903 12.725 6.413 1.56-.435 2.896-1.375 4.03-2.687 3.384-3.913 4.991-11.164 5.527-18.408l-12.492.372c-.109.45-.225.886-.334 1.281-.132.474-.272.901-.404 1.274-.24.675-.481 1.149-.706 1.327-1.39 2.415-11.926 4.442-11.926 4.442z"/><path fill="#ffab90" d="M96.125 154.872s1.312 2.934 3.58 5.986c2.91 3.928 7.36 7.903 12.725 6.413 1.56-.435 2.896-1.375 4.03-2.687-.04-.046-.07-.093-.11-.14-1.708-2.29-2.95-5.015-3.035-7.872-.086-2.85 1.141-5.831 3.525-7.407l-7.68-1.336c-.131.474-.27.901-.403 1.274-.24.675-.481 1.149-.706 1.327-1.39 2.415-11.926 4.442-11.926 4.442z" opacity=".5"/><path fill="#fec9ac" d="M133.575 239.299h8.865v14.435h-8.865z" transform="rotate(-.9 138.007 246.518)"/><path fill="#ffab90" d="m133.405 239.37.08 5.104c2.965.13 5.945-.124 8.854-.758l-.07-4.485-8.864.139z"/><path fill="#2e363a" d="M132.033 253.83c-.065 1.759 1.06 3.225 2.52 3.287l20.882.891c.558.024 1.079-.236 1.468-.687.39-.45.648-1.08.678-1.784.045-1.068-.441-2.045-1.22-2.46-2.41-1.266-6.658-2.74-7.518-3.924-1.153-1.58-3.171-4.228-4.698-4.162-1.527.065-2.566 3.087-4.976 4.774-1.708 1.197-3.363-2.01-4.171-3.971-.276-.662-1.033-.702-1.346-.058-1.173 2.387-1.53 5.683-1.62 8.095zM88.656 201.363s34.045.962 35.078 1.816c1.033.862 4.884 38.837 4.884 38.837 3.517.062 6.32.117 8.54.148 8.58.14 8.742.07 9.511-.187 1.033-.341-3.696-46.911-3.874-50.521-.179-3.61-20.148-15.435-32.865-14.892-.948.04-1.864.21-2.764.49-11.18 3.517-18.51 24.309-18.51 24.309z"/><path fill="#232a2d" d="M88.656 201.363s34.045.962 35.078 1.816c1.033.862 4.884 38.837 4.884 38.837 3.517.062 6.32.117 8.54.148.38-.047.56-.109.8-.187 1.032-.341-3.688-46.911-3.874-50.521-.148-3.09-14.737-12.159-26.918-14.403-11.18 3.518-18.51 24.31-18.51 24.31z"/><path fill="#fec9ac" d="M121.24 239.756h8.865v14.435h-8.865z" transform="rotate(-.9 125.672 246.975)"/><path fill="#ffab90" d="m121.127 239.827.08 5.104c2.965.13 5.945-.124 8.854-.758l-.07-4.486-8.864.14z"/><path fill="#3a4146" d="M118.252 258.054c-.01 1.758 1.25 3.181 2.825 3.188l22.505.103c.6.003 1.153-.277 1.557-.741.404-.464.66-1.105.669-1.808.013-1.07-.544-2.027-1.395-2.413-2.638-1.174-7.26-2.486-8.225-3.637-1.295-1.534-3.556-4.104-5.197-3.981-1.641.122-2.658 3.181-5.195 4.958-1.798 1.26-3.687-1.882-4.624-3.811-.319-.651-1.135-.663-1.45-.007-1.183 2.429-1.456 5.736-1.47 8.149zM79.266 202.349s21.564.318 29.763.931h.008c1.514.109 2.484.233 2.647.373.055.039.109.163.171.357.086.233.17.582.272 1.017.396 1.801.924 10.49 1.483 14.396 1.397 9.837 2.958 23.067 2.958 23.067s17.019.303 18.051-.039c.528-.178-.458-11.15-1.568-22.26-1.056-10.527-2.22-26.515-2.306-28.27-.179-3.61-20.148-15.435-32.865-14.89-1.017.046-2.011.24-2.974.574-4.938 1.684-9.123 6.801-12.236 11.948-3.85 6.375-3.404 12.796-3.404 12.796z"/><path fill="#3a4146" d="m79.266 202.349 7.24-9.822 11.343-11.25c-.062-.016-1.157-1.67-2.943-3.672-4.728-5.311-14.332-13.075-22.469.776-.186.318-.365.644-.551.978-11.297 20.777 7.38 22.99 7.38 22.99z"/><path fill="#2e363a" d="M79.266 202.349s21.564.318 29.763.931a73.37 73.37 0 0 1-22.524-10.753c-.271-.186-.535-.38-.807-.574a39.08 39.08 0 0 1-3.028-2.4c-1.118-.986-2.158-2.065-3.036-3.268-1.646-2.236-2.725-4.985-2.546-7.756l-4.651-.148c-.186.318-.365.644-.551.978-11.297 20.777 7.38 22.99 7.38 22.99z"/><path fill="#ee984f" d="m107.15 151.102.925 3.651.013.053.519 2.052 5.03 19.89c-13.583 6.98-40.673 4.23-41.754 2.61-.926-1.394.841-17.91 1.356-22.515.083-.753.135-1.187.135-1.187-2.898.81-5.458 1.022-7.648.9-5.867-.312-9.085-3.006-9.085-3.006.899-2.95 1.83-5.833 2.829-8.579 3.843-10.59 8.654-19.146 16.34-21.682 6.594-3.082 30.105-5.479 34.725-.893 4.624 4.585 8.005 21.61 8.293 24.86.289 3.254-11.678 3.846-11.678 3.846z"/><path fill="#2e363a" d="m82.273 132.88 9.25 11.235-2.093 1.724-9.25-11.235a1.357 1.357 0 0 1 2.093-1.724z"/><path fill="#ea7d20" d="M113.637 176.748c-13.583 6.98-40.673 4.23-41.754 2.61-.926-1.394.841-17.91 1.356-22.515.083-.753.135-1.187.135-1.187-2.898.81-5.458 1.022-7.648.9l9.987-14.696A41.734 41.734 0 0 0 90.4 158.95c3.36 2.23 7.449 4.01 11.342 2.974 3.265-.87 5.86-3.835 6.332-7.171.01-.061.016-.119.023-.18-.005.08-.01.155-.01.233-.013.729.185 1.408.519 2.052l5.03 19.89z"/><path fill="#ea7d20" d="M73.239 156.843c.083-.753.135-1.187.135-1.187-10.662 2.977-16.733-2.106-16.733-2.106.899-2.95 1.83-5.833 2.829-8.579 1.84 2.082 5.242 2.655 7.993 1.786 3.243-1.023 5.776-3.511 8.174-5.915.469 5.423-.388 10.945-2.398 16.001z"/><path fill="#65362d" d="M99.752 100.78a31.51 31.51 0 0 0-3.808 12.436c-.25 2.815-.093 5.761 1.176 8.287 1.8 3.58 5.554 5.774 9.351 7.052 1.384.466 2.825.84 4.284.792 1.46-.047 2.953-.563 3.934-1.644.981-1.082 1.334-2.78.624-4.055-.429-.77-1.168-1.308-1.814-1.907-.646-.6-1.247-1.366-1.244-2.248.007-1.591 1.906-2.606 2.14-4.18.202-1.353-.89-2.54-1.992-3.35-1.102-.81-2.38-1.573-2.85-2.857-.578-1.576.279-3.268.641-4.906a8.425 8.425 0 0 0-1.28-6.526c-.8-1.156-3.641-3.994-5.286-3.259-.758.339-1.29 2.04-1.69 2.713-.726 1.219-1.498 2.41-2.186 3.652z"/><path fill="#64d3ff" d="m73.373 155.656 2.418-11.454"/><path fill="#c16244" d="M73.373 156.156a.5.5 0 0 1-.49-.604l2.418-11.454a.5.5 0 1 1 .979.207l-2.418 11.455a.5.5 0 0 1-.489.396z"/><path fill="#64d3ff" d="m107.149 151.102-2.104-10.295"/><path fill="#13b1e2" d="M105.597 140.7h1v10.509h-1z" transform="rotate(-11.547 106.097 145.954)"/><path fill="#fec9ac" d="M92.158 127.961c6.731.388 6.87-3.835 6.87-3.835.218.186-1.04-1.646-1.482-2.586a2.092 2.092 0 0 1-.148-.411c-.085-.582.435-3.253.435-3.253s.07 0 .194-.016c.94-.062 5.086-.644 6.32-5.683 1.398-5.707.668-11.025-1.157-13.028-1.816-2.003-13.664-.885-15.916 1.809-2.26 2.694-3.245 3.432-3.346 4.495-.101 1.056-1.126 4.364 3.028 5.249 0 0 .559 8.548-.83 9.192-1.383.653-3.138 1.592-3.611 1.437s2.911 6.242 9.643 6.63z"/><path fill="#4f2d2a" d="M93.687 104.67c-.04-.024-.047-.113.017-.26a1.39 1.39 0 0 1 .47-.543 2.037 2.037 0 0 1 1.593-.25c.311.1.506.253.612.372.106.12.127.208.095.244-.072.085-.313-.082-.818-.175a1.579 1.579 0 0 0-1.241.195c-.453.244-.631.477-.728.417zM100.304 103.605c-.043-.073.17-.33.775-.46a3.045 3.045 0 0 1 1.517.183c.555.271.701.57.64.634-.07.084-.312-.056-.806-.21a2.588 2.588 0 0 0-1.292-.156c-.516.031-.785.11-.834.01zM97.98 111.436c.04-.035.167.067.407.235.12.08.275.174.458.212.174.038.422.005.55-.137.232-.208.066-.838.008-1.327-.081-.512-.189-1.02-.32-1.523-.28-1.192-.457-1.782-.356-1.822.083-.034.426.499.796 1.706a16.184 16.184 0 0 1 .437 2.365c.012.14.02.29-.008.454a.863.863 0 0 1-.236.47c-.338.294-.716.261-.975.177a1.314 1.314 0 0 1-.534-.372c-.214-.252-.262-.407-.227-.438zM98.85 114.022c.01.043-.085.123-.31.195a2.6 2.6 0 0 1-1.057.087c-.8-.122-1.564-.485-2.128-1.095-.315-.38-.423-.771-.409-1.022.013-.255.101-.36.144-.35.113.014.02.477.605 1.068.47.511 1.155.846 1.855.948.83.152 1.273.05 1.3.169z"/><ellipse cx="101.713" cy="106.767" fill="#4f2d2a" rx=".522" ry=".938"/><ellipse cx="95.594" cy="107.283" fill="#4f2d2a" rx=".522" ry=".938"/><path fill="#65362d" d="M99.738 101.49c-2.271 1.607-4.829 2.755-7.368 3.893-.62.277-1.357.83-2.01.897-.773-.263-1.081-1.681-1.658-2.258-.83-.829-2.216-1.032-3.249-.477-1.032.556-1.626 1.825-1.392 2.974.252 1.23 1.283 2.119 2.04 3.12 2.37 3.132 2.665 8.097-.275 10.7-1.936 1.713-5.348 2.33-7.643 3.52-3.742 1.937-6.647 5.43-7.87 9.462-1.019 3.36-1.164 7.445-4.036 9.463-2.036 1.43-4.901 1.23-7.082.032-2.18-1.198-3.78-3.23-5.078-5.352-.99-1.616-1.857-3.36-2.083-5.243-.226-1.881.28-3.932 1.682-5.207 1.748-1.59 4.473-1.693 6.247-3.253 2.005-1.765 2.186-4.773 2.207-7.444.022-2.671.17-5.673 2.145-7.473 1.829-1.667 4.625-1.716 6.732-3.014 2.771-1.707 3.803-5.142 5.443-7.953 2.76-4.73 7.794-8.062 13.226-8.753 4.198-.534 8.624.51 12.152 2.848 4.647 3.08 1.341 7.06-2.13 9.517z"/><path fill="#ffab90" d="M84.928 105.606a1.878 1.878 0 0 1 1.395-1.365c.285-.062.624-.037.813.186.221.26.13.675-.082.943-.213.269-.52.444-.776.671-.255.228-.473.555-.41.892.042.226.219.575-.12.66-.25.065-.304-.165-.411-.335-.328-.518-.561-1.021-.41-1.652z" opacity=".5"/><path fill="#fec9ac" d="M86.315 148.224s-6.789 25.54-16.634 24.666c-5.544-.495-8.13-6.03-9.329-10.775-.934-3.683-1.068-7.036-1.068-7.036s10.556 2.276 12.758.575c.273-.079.675-.427 1.16-.963 2.546-2.807 7.369-10.782 7.47-11.924.116-1.36 3.21-5.845 4.45-5.318 1.2.51-1.278 4.16-1.427 4.374 1.58-2.12 9.516-3.66 11.374-1.483 1.861 2.18-8.754 7.884-8.754 7.884z"/><path fill="#ffab90" d="M73.201 154.691c.068 1.677-.763 3.365-2.006 4.527-1.46 1.365-3.412 2.094-5.369 2.505a20.66 20.66 0 0 1-5.474.392c-.934-3.683-1.068-7.036-1.068-7.036s10.556 2.276 12.758.575c.273-.079.675-.427 1.16-.963z" opacity=".5"/><path fill="#e4ecf9" d="m120.957 128.257-5.753 19.046-11.562 3.052c-1.596 2.302-4.17.683-4.17.683s-13.229 3.02-14.368 2.354c-1.139-.663 4.571-20.09 4.571-20.09 5.085-1.723 10.1-4.1 15.432-3.191 1.559-1.96 13.4-3.159 15.85-1.854z"/><path fill="#d1dcf8" d="m120.993 128.664-5.752 19.047-11.563 3.051c-1.596 2.302-4.17.684-4.17.684s-13.229 3.019-14.368 2.353c-1.139-.662 4.571-20.09 4.571-20.09 5.086-1.723 10.1-4.1 15.432-3.191 1.559-1.959 13.4-3.159 15.85-1.854z"/><path fill="#e4ecf9" d="m121.03 129.072-5.753 19.046-11.563 3.052c-1.596 2.301-4.17.683-4.17.683s-13.229 3.02-14.368 2.354c-1.139-.663 4.571-20.09 4.571-20.09 5.086-1.723 10.1-4.1 15.432-3.192 1.559-1.959 13.4-3.158 15.85-1.853z"/><path fill="#d1dcf8" d="m121.065 129.479-5.752 19.046-11.563 3.052c-1.596 2.302-4.17.683-4.17.683s-13.229 3.02-14.368 2.354c-1.139-.663 4.571-20.09 4.571-20.09 5.086-1.723 10.1-4.1 15.432-3.192 1.559-1.959 13.4-3.158 15.85-1.853z"/><path fill="#e4ecf9" d="m121.101 129.886-5.752 19.046-11.562 3.052c-1.597 2.302-4.17.683-4.17.683s-13.23 3.02-14.369 2.354c-1.138-.663 4.571-20.09 4.571-20.09 5.086-1.723 10.1-4.1 15.432-3.191 1.56-1.96 13.4-3.159 15.85-1.854z"/><path fill="#d1dcf8" d="m121.137 130.293-5.752 19.047-11.562 3.051c-1.597 2.302-4.17.683-4.17.683s-13.23 3.02-14.368 2.354c-1.14-.663 4.57-20.09 4.57-20.09 5.086-1.723 10.1-4.1 15.432-3.191 1.56-1.96 13.4-3.159 15.85-1.854z"/><path fill="#e4ecf9" d="m121.174 130.7-5.753 19.047-11.562 3.051c-1.596 2.302-4.17.684-4.17.684s-13.23 3.019-14.368 2.353c-1.14-.662 4.57-20.09 4.57-20.09 5.086-1.723 10.1-4.1 15.432-3.191 1.56-1.959 13.4-3.159 15.85-1.854z"/><path fill="#fe4c40" d="m122.285 127.92-5.584 22.555-12.74 3.363c-1.759 2.536-4.595.753-4.595.753s-14.577 3.326-15.832 2.593c-1.255-.73 4.897-23.586 4.897-23.586l14.947-1.424c2.503 1.96 4.558-.602 4.558-.602l14.35-3.653z"/><path fill="#ea241f" d="M84.295 157.765c-.486 0-.836-.046-1.014-.15-.39-.227-1.585-.92 4.667-24.147a.502.502 0 0 1 .436-.368l14.947-1.424a.51.51 0 0 1 .355.104c2.09 1.637 3.788-.432 3.86-.521a.497.497 0 0 1 .266-.172l14.35-3.652a.5.5 0 0 1 .609.604l-5.584 22.556a.5.5 0 0 1-.358.363l-12.568 3.318c-1.526 2.02-3.81 1.494-4.977.846-3.91.89-11.999 2.643-14.99 2.643zm-.418-.988c1.214.244 8.655-1.14 15.378-2.673a.494.494 0 0 1 .377.063c.1.063 2.458 1.493 3.918-.614a.498.498 0 0 1 .284-.198l12.453-3.288 5.312-21.457-13.384 3.407c-.868.98-2.853 2.204-4.982.673l-14.409 1.373c-2.69 10.028-5.273 21.137-4.947 22.714z"/><path fill="#ea241f" d="m107.936 131.572-3.975 22.266c-1.759 2.536-4.595.753-4.595.753l4.012-22.417c2.503 1.96 4.558-.602 4.558-.602z"/><path fill="#2e363a" d="M112.787 204.235c-.31-.07-.621-.14-.932-.225.086.233.17.582.272 1.017.225-.256.442-.52.66-.792zM113.61 219.423c1.397 9.837 2.958 23.067 2.958 23.067s17.019.303 18.051-.039c.528-.178-.458-11.15-1.568-22.26-.474 1.39-1.475 2.64-2.718 3.456-1.995 1.296-4.51 1.607-6.87 1.32-3.844-.466-7.384-2.57-9.853-5.544z"/><path fill="#fec9ac" d="M116.225 148.694s.612 3.652.576 5.432l2.374-3.742c2.06-.827 3.652-2.248 4.12-4.424l.008-.009c.306-1.268-1.412-6.754-2.698-6.655-1.241.09-.117 4.155-.045 4.398-.783-2.41-7.51-6.233-9.857-4.83-2.356 1.412 5.522 9.83 5.522 9.83z"/><path fill="#ffab90" d="M89.79 114.988a11.696 11.696 0 0 0 5.007 5.473c.87.474 1.794.839 2.749 1.08a2.092 2.092 0 0 1-.148-.412c-.085-.582.435-3.253.435-3.253s.07 0 .194-.016a16.793 16.793 0 0 1-8.237-2.872z" opacity=".5"/><path fill="#fff" d="M96.222 129.924c.025.136-.324.352-1.09.55-.764.19-1.956.363-3.552.237a16.139 16.139 0 0 1-7.5-2.895c-1.266-.977-2.032-1.906-2.47-2.56-.433-.661-.545-1.056-.433-1.143.267-.215 1.241.975 3.683 2.607a14.788 14.788 0 0 0 6.878 2.655c2.909.43 4.43.203 4.484.55zM70.2 153.246c.052.263-.878.767-2.924.953a20.798 20.798 0 0 1-5.155-.511c-1.968-.584-2.78-1.261-2.675-1.515.114-.29 1.086-.108 2.972.203 1.58.36 3.205.52 4.824.478 1.913.066 2.902.078 2.958.392z"/><path fill="#eaeafa" d="m48.139 263.674 9.988-77.085H53.2l-9.989 77.085zM67.819 263.674l9.989-77.085h-4.929l-9.989 77.085zM252.059 263.674l-9.048-77.085h-4.929l9.048 77.085zM232.378 263.674l-9.047-77.085h-4.929l9.048 77.085z"/><path fill="#8d7ea3" d="M36.649 183.022v4.287a2.644 2.644 0 0 0 2.644 2.644h217.623a2.644 2.644 0 0 0 2.645-2.644v-4.287a2.644 2.644 0 0 0-2.645-2.644H39.293a2.644 2.644 0 0 0-2.644 2.644z"/><path fill="#7e6a9d" d="M36.649 186.198v1.111a2.644 2.644 0 0 0 2.644 2.644h217.623a2.644 2.644 0 0 0 2.645-2.644v-1.11H36.649z"/><path fill="#2a2e33" d="M51.411 102.212h4.454v.441h-4.454z"/><path fill="#ffc536" d="M59.305 96.23c-1.44 1.195-2.299 2.95-2.299 4.821 0 .321-.13.611-.34.821-.21.211-.5.34-.82.34h-4.414c-.64 0-1.161-.52-1.161-1.16a6.226 6.226 0 0 0-.582-2.64 6.038 6.038 0 0 0-1.654-2.132 8.874 8.874 0 0 1 5.731-15.75 8.79 8.79 0 0 1 2.978.563c3.313 1.247 5.702 4.43 5.766 8.151a8.854 8.854 0 0 1-3.205 6.985z"/><path fill="#2a2e33" d="M51.514 104.525a2.177 2.177 0 0 0 4.12 0h-4.12z"/><path fill="#ffb612" d="M59.305 96.23c-1.44 1.195-2.299 2.95-2.299 4.821 0 .321-.13.611-.34.821-.21.211-.5.34-.82.34h-4.414c-.64 0-1.161-.52-1.161-1.16 0-.16-.006-.319-.019-.477 1.18.366 2.414.555 3.483.009.865-.44 1.438-1.284 1.975-2.092 1.19-1.795 2.382-3.592 3.41-5.482.947-1.74 1.772-3.656 1.615-5.63-.136-1.713-1.013-3.3-2.159-4.58a15.175 15.175 0 0 0-1.832-1.707c3.313 1.247 5.702 4.43 5.766 8.151a8.854 8.854 0 0 1-3.205 6.985z"/><path fill="#fff" d="M52.558 98.49c.013.63.029 2.396.193 3.722h.236c-.166-1.332-.182-3.097-.195-3.727-.01-.463-.018-.862-.082-1.422a9.961 9.961 0 0 1-.056-.67c-.036-.75-.124-1.71-.433-2.643a3.296 3.296 0 0 0 1.48-.881 1.764 1.764 0 0 0 .812.44c-.06.461-.076.927-.09 1.381l-.22 7.522h.234l.219-7.514c.015-.443.03-.897.087-1.344.225.032.46.03.693-.011.515-.089 1.023-.342 1.51-.752.178-.15.432-.385.577-.693.149-.315.156-.663.018-.93-.178-.348-.608-.556-1.044-.506-.442.05-.793.326-1.01.548-.422.433-.718 1.022-.88 1.75-.023.105-.043.21-.06.316a1.596 1.596 0 0 1-.688-.381 3.3 3.3 0 0 0 .698-1.436c.12-.564.042-1.04-.222-1.374a.967.967 0 0 0-.637-.366.785.785 0 0 0-.612.179c-.207.175-.342.463-.359.771-.019.345.086.668.213 1.025.158.44.325.865.602 1.202-.093.098-.193.19-.297.273a3.088 3.088 0 0 1-1.102.558 5.139 5.139 0 0 0-.79-1.426c-.373-.467-.747-.65-1.144-.557a.888.888 0 0 0-.566.432c-.322.568-.02 1.218.426 1.54.312.226.734.349 1.218.356.239.003.475-.02.706-.066.305.913.392 1.86.427 2.598.01.216.029.44.057.686.063.548.071.943.081 1.4zm2.278-5.679c.152-.685.428-1.236.819-1.637.19-.195.495-.437.87-.48.334-.038.675.122.808.38.104.204.096.474-.022.725-.125.266-.354.477-.515.613-.456.383-.926.619-1.4.7a2.01 2.01 0 0 1-.62.011 5.57 5.57 0 0 1 .06-.312zm-1.676-1.396c-.118-.332-.215-.632-.199-.933.013-.241.12-.473.276-.605a.54.54 0 0 1 .434-.125.731.731 0 0 1 .48.278c.278.352.25.836.177 1.18-.1.475-.32.929-.629 1.308-.24-.307-.393-.697-.539-1.103zm-1.87 2.223c-.436-.007-.81-.114-1.084-.311-.365-.263-.615-.786-.36-1.236a.654.654 0 0 1 .559-.336c.253 0 .5.16.765.492.325.407.566.863.743 1.334-.205.04-.415.06-.623.057z"/><path fill="#393e46" d="M56.382 103.064a.496.496 0 0 1-.497.494H51.13a.494.494 0 0 1 0-.99h4.756c.273 0 .497.22.497.496zM56.382 104.38a.496.496 0 0 1-.497.494H51.13a.494.494 0 0 1 0-.99h4.756c.273 0 .497.22.497.496z"/><path fill="#2a2e33" d="M51.292 103.558h4.377v.326h-4.377z"/><path fill="#71c687" d="M192.021 162.17h-1.677c.274-.188.617-.3.99-.3h42.017c2.198 0 3.98 1.58 3.98 3.528v2.241c0 1.949-1.782 3.528-3.98 3.528l-41.546-.012.216-8.985z"/><path fill="#7cd194" d="M233.807 167.64v-2.242c0-1.949-1.782-3.528-3.98-3.528h.902c2.198 0 3.98 1.58 3.98 3.528v2.241c0 1.949-1.782 3.528-3.98 3.528h-.89c2.192-.006 3.968-1.583 3.968-3.528zM223.967 167.64v-2.242c0-1.949-1.783-3.528-3.98-3.528h.901c2.199 0 3.98 1.58 3.98 3.528v2.241c0 1.949-1.781 3.528-3.98 3.528h-.89c2.193-.006 3.969-1.583 3.969-3.528z"/><path fill="#61ba76" d="M215.874 161.878c2.103 0 3.807 1.51 3.807 3.374v2.533c0 1.863-1.704 3.374-3.807 3.374h-26.156v-.567h.108l6.65-.558 1.344-4.673s-2.594-2.583-2.763-2.65c-.17-.067-5.23-.269-5.23-.269h-.109v-.564h26.156z"/><path fill="#e4ecf9" d="M191.415 166.502c0-2.733-1.593-4.058-1.593-4.058h25.517c1.93 0 3.496 1.388 3.496 3.1v1.95c0 1.71-1.565 3.098-3.496 3.098h-25.517s1.593-.65 1.593-4.09z"/><path fill="#d1dcf8" d="M218.835 165.544v1.95c0 .256-.036.504-.102.743-.86-1.867-2.51-3.665-5.65-4.243-7.33-1.35-23.261-1.55-23.261-1.55h25.517c1.93 0 3.496 1.388 3.496 3.1z"/><path fill="#fe4c40" d="M245.563 171.441h1.899c-.311-.186-.7-.297-1.123-.297h-47.572c-2.49 0-4.507 1.569-4.507 3.504v2.226c0 1.935 2.018 3.504 4.507 3.504l47.04-.012-.244-8.925z"/><path fill="#ea241f" d="M218.554 171.152c-2.38 0-4.31 1.5-4.31 3.351v2.516c0 1.85 1.93 3.35 4.31 3.35h29.616v-.562h-.123l-7.528-.554-1.522-4.642s2.937-2.565 3.128-2.632c.192-.066 5.922-.266 5.922-.266l.123-.001v-.56h-29.616z"/><path fill="#e4ecf9" d="M246.25 175.744c0-2.714 1.803-4.03 1.803-4.03H219.16c-2.186 0-3.959 1.379-3.959 3.079v1.936c0 1.7 1.773 3.078 3.96 3.078h28.89s-1.803-.645-1.803-4.063z"/><path fill="#e4ecf9" d="M215.202 174.793v1.936c0 .255.04.502.116.738.974-1.854 2.842-3.64 6.397-4.213 8.3-1.34 26.338-1.54 26.338-1.54H219.16c-2.186 0-3.959 1.379-3.959 3.079z"/><path fill="#ea241f" d="M202.975 176.874v-2.226c0-1.935 2.018-3.504 4.507-3.504h-4.518c-2.489 0-4.506 1.569-4.506 3.504v2.226c0 1.935 2.017 3.504 4.506 3.504l4.458-.001c-2.461-.025-4.447-1.583-4.447-3.503z" opacity=".5"/><path fill="#e4ecf9" d="m180.062 140.676-6.275 30.592c-.184.868-1.02 1.563-1.889 1.563h-39.493l6.915-33.718h39.493c.869 0 1.422.695 1.249 1.563z"/><path fill="#d1dcf8" d="M167.317 172.83h-15.013v-20.376l9.705 2.139z" opacity=".5"/><path fill="#d1dcf8" d="m140.58 140.698-6.265 30.548c-.18.88-1.03 1.585-1.91 1.585-.868 0-1.43-.706-1.25-1.585l6.265-30.548c.18-.88 1.03-1.585 1.899-1.585.88 0 1.44.705 1.26 1.585z"/><path fill="#f3f6fd" d="M170.938 180.093H161.2a4.464 4.464 0 0 0 3.713-1.975c.825-1.238.988-2.801.412-4.18l-8.847-21.484h9.162l9.065 22.016c1.107 2.67-.858 5.623-3.767 5.623z"/><path fill="#d1dcf8" d="M161.205 180.094h-11.928v-1.086h11.928a3.323 3.323 0 0 0 2.803-1.495 3.325 3.325 0 0 0 .317-3.163l-8.574-20.813h-3.45v-1.086h4.177l8.85 21.486a4.45 4.45 0 0 1-.418 4.179 4.45 4.45 0 0 1-3.705 1.978z"/><path fill="#eaeafa" d="m145.281 150.371 1.56-5.074h-.62l-1.56 5.074zM147.782 150.371l1.56-5.074h-.62l-1.56 5.074zM150.283 150.371l1.56-5.074h-.62l-1.56 5.074z"/><path fill="#d1dcf8" d="m152.784 150.371 1.56-5.074h-.62l-1.56 5.074zM155.284 150.371l1.56-5.074h-.62l-1.56 5.074zM157.785 150.371l1.56-5.074h-.62l-1.56 5.074zM160.286 150.371l1.56-5.074h-.62l-1.56 5.074zM162.787 150.371l1.56-5.074h-.62l-1.56 5.074z"/><path fill="#eaeafa" d="m165.287 150.371 1.56-5.074h-.62l-1.56 5.074zM167.788 150.371l1.56-5.074h-.62l-1.56 5.074zM170.289 150.371l1.56-5.074h-.62l-1.56 5.074zM172.79 150.371l1.56-5.074h-.62l-1.56 5.074z"/><path fill="#d1dcf8" d="M263.351 43.713a5.541 5.541 0 0 0-5.541-5.541h-94.013a5.541 5.541 0 0 0-5.542 5.54v4.974h105.096v-4.973z"/><circle cx="244.315" cy="43.593" r="1.784" fill="#bbcaea"/><circle cx="250.482" cy="43.593" r="1.784" fill="#bbcaea"/><circle cx="256.65" cy="43.593" r="1.784" fill="#bbcaea"/><path fill="#f3f6fd" d="M158.255 48.686v62.054a2.8 2.8 0 0 0 2.8 2.8h99.496a2.8 2.8 0 0 0 2.8-2.8V48.687H158.255z"/><path fill="#d1dcf8" d="M164.139 54.445h54.997v34.144h-54.997z"/><circle cx="191.637" cy="70.857" r="5.173" fill="#fe4c40"/><path fill="#f3f6fd" d="m193.45 71.048-2.606 1.945a.239.239 0 0 1-.38-.191v-3.89c0-.197.224-.309.38-.191l2.607 1.944a.239.239 0 0 1 0 .383z"/><path fill="#bbcaea" d="M215.443 86.38H167.83a1.024 1.024 0 1 1 0-2.047h47.612a1.024 1.024 0 0 1 0 2.047z"/><path fill="#d1dcf8" d="M214.269 95.455h-47.611a1.024 1.024 0 1 1 0-2.047h47.61a1.024 1.024 0 1 1 0 2.047zM214.269 99.965h-47.611a1.024 1.024 0 1 1 0-2.047h47.61a1.024 1.024 0 1 1 0 2.047zM214.269 104.475h-47.611a1.024 1.024 0 1 1 0-2.047h47.61a1.024 1.024 0 1 1 0 2.047zM181.792 108.985h-15.134a1.024 1.024 0 1 1 0-2.047h15.134a1.024 1.024 0 1 1 0 2.047z"/><circle cx="244.315" cy="43.593" r="1.784" fill="#42c1f4"/><circle cx="250.482" cy="43.593" r="1.784" fill="#42c1f4"/><circle cx="256.65" cy="43.593" r="1.784" fill="#42c1f4"/><path fill="#d1dcf8" d="M222.099 54.445h19.39V67.13h-19.39zM260.232 62.397a.547.547 0 0 1-.548.548h-15.496a.552.552 0 0 1-.553-.548c0-.303.25-.553.553-.553h15.496c.303 0 .548.25.548.553zM243.635 55.97c0-.302.25-.552.553-.552h15.496a.552.552 0 0 1 0 1.1h-15.496a.552.552 0 0 1-.553-.547zM252.838 65.61a.547.547 0 0 1-.548.548h-8.102a.552.552 0 0 1-.553-.548c0-.303.25-.548.553-.548h8.102c.303 0 .548.245.548.548zM260.232 59.184a.547.547 0 0 1-.548.548h-15.496a.552.552 0 0 1-.553-.548c0-.303.25-.553.553-.553h15.496c.303 0 .548.25.548.553zM222.099 72.672h19.39v12.685h-19.39zM260.232 80.623a.547.547 0 0 1-.548.548h-15.496a.552.552 0 0 1-.553-.548c0-.303.25-.553.553-.553h15.496c.303 0 .548.25.548.553zM243.635 74.197c0-.303.25-.553.553-.553h15.496a.552.552 0 0 1 0 1.101h-15.496a.552.552 0 0 1-.553-.548zM252.838 83.836a.547.547 0 0 1-.548.548h-8.102a.552.552 0 0 1-.553-.548c0-.303.25-.548.553-.548h8.102c.303 0 .548.245.548.548zM260.232 77.41a.547.547 0 0 1-.548.548h-15.496a.552.552 0 0 1-.553-.548c0-.303.25-.553.553-.553h15.496c.303 0 .548.25.548.553zM222.099 90.898h19.39v12.685h-19.39zM260.232 98.85a.547.547 0 0 1-.548.548h-15.496a.552.552 0 0 1-.553-.548c0-.304.25-.554.553-.554h15.496c.303 0 .548.25.548.554zM243.635 92.424c0-.304.25-.554.553-.554h15.496a.552.552 0 0 1 0 1.101h-15.496a.552.552 0 0 1-.553-.547zM252.838 102.063a.547.547 0 0 1-.548.548h-8.102a.552.552 0 0 1-.553-.548c0-.304.25-.548.553-.548h8.102c.303 0 .548.244.548.548zM260.232 95.637a.547.547 0 0 1-.548.547h-15.496a.552.552 0 0 1-.553-.547c0-.304.25-.554.553-.554h15.496c.303 0 .548.25.548.554z"/></svg>