<svg xmlns="http://www.w3.org/2000/svg" data-name="Layer 1" viewBox="0 0 525 525"><defs><clipPath id="a"><path fill="none" d="M110.44,407.28c-83.94-88-91.71-173.55-54.5-239.78,73.64-131.07,157.93-49.2,260.93-34.82C421.86,147.33,547.78,202,459.07,354,398.76,457.39,230.31,533,110.44,407.28Z"/></clipPath></defs><path fill="#e6e6e6" d="M240.89,91.81c22.8,27.17,91.32,55.29,141,16.48S173.6,11.6,240.89,91.81Z"/><path fill="#e6e6e6" d="M110.44,407.28c-83.94-88-91.71-173.55-54.5-239.78,73.64-131.07,157.93-49.2,260.93-34.82C421.86,147.33,547.78,202,459.07,354,398.76,457.39,230.31,533,110.44,407.28Z"/><g clip-path="url(#a)"><rect width="230.3" height="150.19" x="262.94" y="182.23" fill="#dcdbdb"/><path fill="#f5f5f5" d="M497.77,336.94H258.41V177.7H497.77Zm-230.31-9.05H488.71V186.75H267.46Z"/><rect width=".91" height="82.36" x="287.57" y="200.8" fill="#fff"/><path fill="#fff" d="M292.37,207a.47.47,0,0,1-.63-.14L288,201l-3.72,5.84a.45.45,0,0,1-.62.14.47.47,0,0,1-.14-.63l4.1-6.44a.45.45,0,0,1,.38-.21.44.44,0,0,1,.38.21l4.11,6.44a.44.44,0,0,1,.07.24A.48.48,0,0,1,292.37,207Z"/><rect width="85.81" height=".91" x="280.78" y="277.68" fill="#fff"/><path fill="#fff" d="M360.41,282.48a.46.46,0,0,1,.14-.63l5.84-3.72-5.84-3.72a.44.44,0,0,1-.14-.62.45.45,0,0,1,.62-.14l6.44,4.1a.46.46,0,0,1,0,.77l-6.44,4.1a.42.42,0,0,1-.24.07A.45.45,0,0,1,360.41,282.48Z"/><path fill="#fff" d="M336,268.77a17.41,17.41,0,0,1-14.64-7.16c-4.05-5.46-4.89-12.64-5.63-19-.94-8-1.68-14.34-8.26-14.34-11.9,0-14,26-14,26.29l-.9-.07c.09-1.11,2.22-27.12,14.94-27.12,7.38,0,8.21,7,9.16,15.13.73,6.22,1.55,13.28,5.46,18.54,8.72,11.78,24.18,4.69,24.33,4.62l.39.82A28.62,28.62,0,0,1,336,268.77Z"/><rect width="44.94" height="1.63" x="283.93" y="298.24" fill="#fff"/><rect width="22.47" height="1.63" x="283.93" y="302.88" fill="#fff"/><rect width="22.47" height="1.63" x="312.83" y="302.88" fill="#fff"/><rect width="22.47" height="1.63" x="342.05" y="302.88" fill="#fff"/><rect width="31.29" height="1.63" x="333.22" y="298.24" fill="#fff"/><path fill="#fff" d="M462.87,307H391.16V235.32h71.71Zm-70.8-.9H462V236.22h-69.9Z"/><polygon fill="#fff" points="474.69 299.44 462.58 299.44 462.58 298.54 473.79 298.54 473.79 228.63 403.88 228.63 403.88 235.95 402.98 235.95 402.98 227.72 474.69 227.72 474.69 299.44"/><rect width="1.36" height=".91" x="461.23" y="298.54" fill="#fff"/><path fill="#fff" d="M458.54,299.44h-2.69v-.9h2.69Zm-5.38,0h-2.68v-.9h2.68Zm-5.37,0H445.1v-.9h2.69Zm-5.38,0h-2.68v-.9h2.68Zm-5.37,0h-2.69v-.9H437Zm-5.38,0H429v-.9h2.69Zm-5.37,0H423.6v-.9h2.69Zm-5.38,0h-2.69v-.9h2.69Zm-5.37,0h-2.69v-.9h2.69Zm-5.38,0h-2.69v-.9h2.69Z"/><polygon fill="#fff" points="404.79 299.44 402.98 299.44 402.98 297.63 403.88 297.63 403.88 298.54 404.79 298.54 404.79 299.44"/><path fill="#fff" d="M403.88,295H403v-2.63h.9Zm0-5.25H403v-2.62h.9Zm0-5.24H403v-2.63h.9Zm0-5.25H403v-2.62h.9Zm0-5.24H403V271.4h.9Zm0-5.25H403v-2.62h.9Zm0-5.25H403v-2.62h.9Zm0-5.24H403v-2.62h.9Zm0-5.24H403v-2.63h.9Zm0-5.25H403v-2.62h.9Zm0-5.25H403v-2.62h.9Z"/><rect width=".91" height="1.36" x="402.98" y="235.95" fill="#fff"/><path fill="#fff" d="M392.25,306.71l-.49-.76,2.29-1.47.48.76Zm4.57-2.94-.49-.76,2.28-1.47.49.76Zm4.57-2.93-.49-.76,2.28-1.47.49.76Z"/><rect width="14.05" height=".91" x="390.5" y="231.52" fill="#fff" transform="rotate(-32.72 397.466 231.954)"/><rect width="14.05" height=".9" x="461.31" y="231.52" fill="#fff" transform="rotate(-32.76 468.384 231.98)"/><rect width="14.05" height=".9" x="461.31" y="302.33" fill="#fff" transform="rotate(-32.79 468.408 302.802)"/><path fill="#fff" d="M414.79,211.46l2.47-.24a3,3,0,0,0,.9,1.82,2.76,2.76,0,0,0,1.85.59,2.89,2.89,0,0,0,1.85-.52,1.56,1.56,0,0,0,.62-1.22,1.19,1.19,0,0,0-.26-.76,2.16,2.16,0,0,0-.92-.54c-.3-.1-1-.29-2-.55a6.94,6.94,0,0,1-2.87-1.24,3.3,3.3,0,0,1-1.16-2.54,3.2,3.2,0,0,1,.55-1.8,3.39,3.39,0,0,1,1.57-1.27,6.31,6.31,0,0,1,2.47-.44,5.34,5.34,0,0,1,3.57,1,3.66,3.66,0,0,1,1.26,2.77l-2.54.12a2.15,2.15,0,0,0-.7-1.4,2.6,2.6,0,0,0-1.61-.42,3,3,0,0,0-1.74.45.94.94,0,0,0-.4.78,1,1,0,0,0,.38.77,6.85,6.85,0,0,0,2.33.84,12.53,12.53,0,0,1,2.75.9,3.58,3.58,0,0,1,1.39,1.28,3.79,3.79,0,0,1,.5,2,3.69,3.69,0,0,1-.6,2,3.57,3.57,0,0,1-1.7,1.4,7.07,7.07,0,0,1-2.74.46,5.41,5.41,0,0,1-3.66-1.1A4.74,4.74,0,0,1,414.79,211.46Z"/><path fill="#fff" d="M426.61,208.55v-2.22h8.79v2.22Zm0,3.81v-2.23h8.79v2.23Z"/><path fill="#fff" d="M445.06,206.05l-2.33.26a1.71,1.71,0,0,0-.45-1.07,1.29,1.29,0,0,0-.93-.34,1.59,1.59,0,0,0-1.3.69,5.76,5.76,0,0,0-.66,2.85,2.82,2.82,0,0,1,2.24-1.06,3.41,3.41,0,0,1,2.59,1.15,4.74,4.74,0,0,1-.06,6.07,4.14,4.14,0,0,1-6-.31q-1.23-1.48-1.23-4.86c0-2.3.43-4,1.28-5a4.14,4.14,0,0,1,3.32-1.52,3.47,3.47,0,0,1,2.37.8A3.72,3.72,0,0,1,445.06,206.05Zm-5.47,5.26a2.69,2.69,0,0,0,.55,1.82,1.58,1.58,0,0,0,1.23.63,1.41,1.41,0,0,0,1.12-.52,2.69,2.69,0,0,0,.44-1.72,2.76,2.76,0,0,0-.48-1.79,1.51,1.51,0,0,0-1.2-.57,1.53,1.53,0,0,0-1.18.54A2.36,2.36,0,0,0,439.59,211.31Z"/><path fill="#fff" d="M449,209.22l-2.18-.4a3.42,3.42,0,0,1,1.27-2,4.66,4.66,0,0,1,2.67-.63,5.89,5.89,0,0,1,2.41.38,2.5,2.5,0,0,1,1.11,1,5,5,0,0,1,.32,2.16l0,2.81a9.67,9.67,0,0,0,.11,1.78,5.27,5.27,0,0,0,.43,1.22h-2.38a6.68,6.68,0,0,1-.23-.71c0-.14-.07-.24-.09-.29a4.17,4.17,0,0,1-1.32.91,3.79,3.79,0,0,1-1.5.3,3.11,3.11,0,0,1-2.22-.77,2.54,2.54,0,0,1-.81-1.93,2.68,2.68,0,0,1,.36-1.38,2.45,2.45,0,0,1,1-.92,7.69,7.69,0,0,1,1.92-.57,12.25,12.25,0,0,0,2.34-.59v-.24a1.25,1.25,0,0,0-.34-1,2,2,0,0,0-1.3-.3,1.7,1.7,0,0,0-1,.26A1.76,1.76,0,0,0,449,209.22Zm3.23,1.95a12.64,12.64,0,0,1-1.47.37,4.57,4.57,0,0,0-1.31.42,1,1,0,0,0-.47.85,1.17,1.17,0,0,0,.38.88,1.34,1.34,0,0,0,1,.37,2.12,2.12,0,0,0,1.24-.43,1.55,1.55,0,0,0,.58-.8,5,5,0,0,0,.09-1.18Z"/><path fill="#fff" d="M459.58,203.24v1h-3.82a2.53,2.53,0,0,1,.37-1.09,7.3,7.3,0,0,1,1.23-1.37,8,8,0,0,0,.9-.93,1.23,1.23,0,0,0,.23-.67.77.77,0,0,0-.2-.56.73.73,0,0,0-.54-.2.7.7,0,0,0-.54.21,1,1,0,0,0-.24.68l-1.08-.11a1.76,1.76,0,0,1,.6-1.29,2.08,2.08,0,0,1,1.29-.39,1.85,1.85,0,0,1,1.32.45,1.49,1.49,0,0,1,.48,1.13,2,2,0,0,1-.13.73,3.22,3.22,0,0,1-.44.73,6.59,6.59,0,0,1-.72.73,8.37,8.37,0,0,0-.65.63,1.43,1.43,0,0,0-.22.3Z"/><rect width="8.26" height="30.82" x="59.83" y="184.42" fill="#f5f5f5" transform="rotate(-89.85 63.97 199.833)"/><rect width="8.26" height="30.82" x="61.88" y="184.42" fill="#fff" transform="rotate(-89.86 66.01 199.829)"/><rect width="34.46" height="1.37" x="48.57" y="195.64" fill="#f5f5f5" transform="rotate(180 65.795 196.33)"/><rect width="34.46" height="1.37" x="48.57" y="202.51" fill="#f5f5f5" transform="rotate(180 65.795 203.2)"/><rect width="8.26" height="30.82" x="48.89" y="192.57" fill="#dcdbdb" transform="rotate(-89.87 53.02 207.981)"/><polygon fill="#fff" points="70.49 203.9 70.47 212.16 39.65 212.05 39.67 203.79 70.49 203.9"/><rect width="34.46" height="1.37" x="37.62" y="203.79" fill="#dcdbdb" transform="rotate(180 54.845 204.475)"/><rect width="34.46" height="1.37" x="37.62" y="210.66" fill="#dcdbdb" transform="rotate(180 54.845 211.345)"/><rect width="8.26" height="37.05" x="59.46" y="197.35" fill="#dcdbdb" transform="rotate(-89.82 63.599 215.88)"/><rect width="8.26" height="37.05" x="61.92" y="197.35" fill="#fff" transform="rotate(-89.84 66.043 215.87)"/><rect width="41.42" height="1.37" x="45.08" y="211.68" fill="#dcdbdb" transform="rotate(180 65.785 212.37)"/><rect width="41.42" height="1.37" x="45.08" y="218.55" fill="#dcdbdb" transform="rotate(180 65.785 219.24)"/><rect width="8.26" height="30.82" x="110.81" y="220.28" fill="#f5f5f5" transform="rotate(-89.84 114.95 235.7)"/><rect width="8.26" height="30.82" x="112.85" y="220.28" fill="#fff" transform="rotate(-89.86 117 235.696)"/><rect width="34.46" height="1.37" x="99.54" y="231.51" fill="#f5f5f5" transform="rotate(180 116.765 232.19)"/><rect width="34.46" height="1.37" x="99.54" y="238.37" fill="#f5f5f5" transform="rotate(180 116.765 239.06)"/><polygon fill="#dcdbdb" points="119.41 239.76 119.39 248.03 88.57 247.91 88.59 239.65 119.41 239.76"/><polygon fill="#fff" points="121.46 239.76 121.44 248.03 90.61 247.91 90.63 239.65 121.46 239.76"/><rect width="34.46" height="1.37" x="88.59" y="239.65" fill="#dcdbdb" transform="rotate(180 105.815 240.335)"/><rect width="34.46" height="1.37" x="88.59" y="246.52" fill="#dcdbdb" transform="rotate(180 105.815 247.205)"/><rect width="8.26" height="37.05" x="110.43" y="233.21" fill="#dcdbdb" transform="rotate(-89.83 114.563 251.734)"/><rect width="8.26" height="37.05" x="112.89" y="233.21" fill="#fff" transform="rotate(-89.83 117.022 251.736)"/><rect width="41.42" height="1.37" x="96.05" y="247.55" fill="#dcdbdb" transform="rotate(180 116.755 248.23)"/><rect width="41.42" height="1.37" x="96.05" y="254.41" fill="#dcdbdb" transform="rotate(180 116.755 255.095)"/><rect width="13.24" height="75.18" x="11.23" y="184.12" fill="#dcdbdb"/><rect width="9.7" height="75.18" x="155.13" y="184.12" fill="#dcdbdb"/><rect width="8.72" height="75.18" x="150.61" y="184.12" fill="#f5f5f5"/><rect width="8.72" height="75.18" x="11.23" y="184.12" fill="#f5f5f5"/><rect width="148.1" height="3.71" x="11.23" y="184.12" fill="#f5f5f5" transform="rotate(180 85.28 185.97)"/><rect width="7" height="26.76" x="110.36" y="193.07" fill="#dcdbdb" transform="rotate(180 113.855 206.445)"/><rect width="1.53" height="26.76" x="108.83" y="193.07" fill="#fff"/><rect width="7" height="26.76" x="122.24" y="192.84" fill="#f5f5f5" transform="rotate(163.18 125.75 206.215)"/><rect width="1.53" height="26.76" x="120.9" y="194.08" fill="#fff" transform="rotate(-16.83 121.632 207.402)"/><rect width="6.37" height="19.19" x="101.5" y="200.63" fill="#dcdbdb" transform="rotate(180 104.685 210.225)"/><rect width="1.39" height="19.19" x="100.11" y="200.63" fill="#fff"/><rect width="7" height="26.76" x="52.2" y="229.32" fill="#dcdbdb" transform="rotate(180 55.705 242.7)"/><rect width="1.53" height="26.76" x="50.68" y="229.32" fill="#fff"/><rect width="7" height="26.76" x="64.09" y="229.1" fill="#f5f5f5" transform="rotate(163.17 67.595 242.478)"/><rect width="1.53" height="26.76" x="62.75" y="230.33" fill="#fff" transform="rotate(-16.8 63.516 243.713)"/><rect width="148.1" height="3.71" x="11.23" y="219.61" fill="#f5f5f5" transform="rotate(180 85.28 221.47)"/><rect width="148.1" height="3.71" x="11.23" y="255.59" fill="#f5f5f5" transform="rotate(180 85.28 257.445)"/><path fill="#f5f5f5" d="M211.57,163.79C196,152,186.73,141.34,183,136.58V63.13h-3.93v73.45c-3.76,4.76-13,15.46-28.59,27.21h22.7a7.68,7.68,0,0,0,15.35,0h23.06Z"/><path fill="#f5f5f5" d="M282.53,148.05c-13.91-10.48-22.16-20-25.5-24.28V68.51h-3.51v55.26c-3.35,4.25-11.6,13.8-25.51,24.28h20.26a6.85,6.85,0,0,0,13.69,0h20.57Z"/></g><path fill="#fdb733" d="M293.76,457.72v-3.9l-107-.08a9.14,9.14,0,1,0,.39,18.28l106.54.08v-3.91h-3V457.72Z"/><path fill="#fff" fill-rule="evenodd" d="M225.81,462.86a7.36,7.36,0,0,0,7.51,7.21l102.81.07,0-14.37-103.24-.08A7.33,7.33,0,0,0,225.81,462.86Z"/><path d="M336.29,470.3h-.16l-102.81-.08a7.52,7.52,0,0,1-7.67-7.36h0a7.49,7.49,0,0,1,7.26-7.32l103.4.07v.16ZM226,462.86a7.22,7.22,0,0,0,7.36,7.05L336,470l0-14.07-103.08-.07a7.19,7.19,0,0,0-7,7Z"/><path d="M223.15,462.86a9.33,9.33,0,0,0,9.46,9.16l106.54.08v-3.91l-106.54-.07a5.42,5.42,0,0,1-5.56-5.25,5.14,5.14,0,0,1,5.26-5.23l106.86.08v-3.9l-107-.08A9.32,9.32,0,0,0,223.15,462.86Z"/><rect width="23.1" height=".32" x="280.39" y="468.01"/><rect width="41.95" height=".32" x="248.07" y="465.22"/><rect width="13.47" height=".32" x="295.61" y="461.88"/><rect width="6.57" height=".32" x="308.54" y="465.22"/><rect width="6.22" height=".32" x="328.7" y="461.1"/><path fill="#f15f2d" d="M287.71,370.91V367l-107-.08a9.14,9.14,0,1,0,.39,18.28l106.54.08v-3.91h-3l0-10.47Z"/><path fill="#fff" fill-rule="evenodd" d="M219.76,376.05a7.38,7.38,0,0,0,7.51,7.21l102.82.07,0-14.37-103.23-.08A7.35,7.35,0,0,0,219.76,376.05Z"/><path d="M330.24,383.49h-.15l-102.82-.08a7.51,7.51,0,0,1-7.66-7.36h0a7.48,7.48,0,0,1,7.26-7.32l103.4.07V369Zm-110.32-7.44a7.21,7.21,0,0,0,7.35,7.05l102.66.08,0-14.07L226.88,369a7.18,7.18,0,0,0-7,7Z"/><path d="M217.11,376.05a9.32,9.32,0,0,0,9.46,9.16l106.54.08v-3.91l-106.54-.08a5.42,5.42,0,0,1-5.55-5.25,5.13,5.13,0,0,1,5.26-5.22l106.85.08V367l-107-.08A9.32,9.32,0,0,0,217.11,376.05Z"/><rect width="23.1" height=".32" x="274.35" y="381.2"/><rect width="41.95" height=".32" x="242.03" y="378.41"/><rect width="13.47" height=".32" x="289.57" y="375.07"/><rect width="6.57" height=".32" x="302.49" y="378.41"/><rect width="6.22" height=".32" x="322.66" y="374.29"/><path d="M223.13,471.85c-9.29-3.3-6.52-12.07-6.5-12.16l.31.1c-.12.35-2.7,8.56,6.3,11.76Z"/><path fill="#fff" fill-rule="evenodd" d="M250.27,435.59l-88.73.09,0,16.53,88.25-.09a8.27,8.27,0,1,0,.45-16.53Z"/><path d="M161.42,452.36v-.15l0-16.69h.15l88.74-.08a8.58,8.58,0,0,1,8.33,8.4,8.16,8.16,0,0,1-2.57,6,8.91,8.91,0,0,1-6.22,2.48Zm.28-16.53,0,16.22,88.09-.08a8.6,8.6,0,0,0,6-2.39,7.92,7.92,0,0,0,2.48-5.74,8.28,8.28,0,0,0-8-8.09Z"/><path d="M250.27,433.64l-92.2.09v3.91l92.1-.1a6.48,6.48,0,0,1,6.33,6.3,6.08,6.08,0,0,1-1.92,4.44,6.83,6.83,0,0,1-4.76,1.89l-91.72.09v3.91l91.72-.09a10.77,10.77,0,0,0,7.46-3,9.93,9.93,0,0,0,3.13-7.27A10.41,10.41,0,0,0,250.27,433.64Z"/><path fill="#fff" fill-rule="evenodd" d="M311.09,435.59l-88.73.09,0,16.53,88.24-.09a8.27,8.27,0,1,0,.46-16.53Z"/><path d="M222.23,452.36v-.15l0-16.69h.16l88.74-.08a8.59,8.59,0,0,1,8.33,8.4,8.17,8.17,0,0,1-2.58,6,8.91,8.91,0,0,1-6.22,2.48Zm.28-16.53,0,16.22,88.09-.08a8.62,8.62,0,0,0,6-2.39,7.87,7.87,0,0,0,2.47-5.74,8.27,8.27,0,0,0-8-8.09Z"/><path fill="#f15f2d" d="M311.08,433.64l-92.2.09v3.91l92.1-.1a6.5,6.5,0,0,1,6.33,6.3,6.09,6.09,0,0,1-1.93,4.44,6.79,6.79,0,0,1-4.76,1.89l-91.72.09v3.91l91.73-.09a10.8,10.8,0,0,0,7.46-3,10,10,0,0,0,3.12-7.27A10.4,10.4,0,0,0,311.08,433.64Z"/><polygon fill="#f15f2d" fill-rule="evenodd" points="253.35 460.45 256.98 457.38 260.56 460.48 260.66 441.13 253.44 441.1 253.35 460.45"/><polygon points="222.53 443.9 222.21 443.9 222.21 437.47 222.37 437.47 244.88 437.43 244.88 437.75 222.53 437.79 222.53 443.9"/><path d="M317.22,445.62l-.32-.07a6.32,6.32,0,0,0-.67-5,7,7,0,0,0-4.07-2.72l.06-.32a7.31,7.31,0,0,1,4.28,2.86A6.67,6.67,0,0,1,317.22,445.62Z"/><rect width="36.42" height=".32" x="241.15" y="450.07"/><rect width="19.7" height=".32" x="227.95" y="440.47"/><rect width="8.57" height=".32" x="270.01" y="445.42"/><rect width="12.27" height=".32" x="298.51" y="441.76"/><path fill="#fff" fill-rule="evenodd" d="M246.37,348.44l-88.72.09,0,16.53,88.25-.09a8.27,8.27,0,1,0,.45-16.53Z"/><path d="M157.52,365.21v-.15l0-16.69h.16l88.73-.08a8.58,8.58,0,0,1,8.33,8.4,8.16,8.16,0,0,1-2.57,6,8.91,8.91,0,0,1-6.22,2.48Zm.28-16.53,0,16.22,88.09-.08a8.68,8.68,0,0,0,6-2.39,7.91,7.91,0,0,0,2.47-5.74,8.28,8.28,0,0,0-8-8.09Z"/><path d="M246.37,346.49l-92.2.09v3.9l92.11-.09a6.48,6.48,0,0,1,6.32,6.3,6.08,6.08,0,0,1-1.92,4.44,6.87,6.87,0,0,1-4.76,1.89l-91.72.09V367l91.72-.09a10.81,10.81,0,0,0,7.47-3,10,10,0,0,0,3.12-7.27A10.41,10.41,0,0,0,246.37,346.49Z"/><path fill="#fff" fill-rule="evenodd" d="M307.19,348.44l-88.73.09,0,16.53,88.24-.09a8.27,8.27,0,1,0,.46-16.53Z"/><path d="M218.33,365.21v-.15l0-16.69h.16l88.74-.08a8.59,8.59,0,0,1,8.33,8.4,8.17,8.17,0,0,1-2.58,6,8.91,8.91,0,0,1-6.22,2.48Zm.28-16.53,0,16.22,88.09-.08a8.67,8.67,0,0,0,6-2.39,7.87,7.87,0,0,0,2.47-5.74,8.27,8.27,0,0,0-8-8.09Z"/><path fill="#fdb733" d="M307.19,346.49l-92.21.09v3.9l92.1-.09a6.5,6.5,0,0,1,6.33,6.3,6.09,6.09,0,0,1-1.93,4.44,6.85,6.85,0,0,1-4.76,1.89l-91.72.09V367l91.73-.09a10.8,10.8,0,0,0,7.46-3,10,10,0,0,0,3.12-7.27A10.39,10.39,0,0,0,307.19,346.49Z"/><polygon fill="#fdb733" fill-rule="evenodd" points="249.45 373.3 253.08 370.23 256.67 373.33 256.76 353.98 249.54 353.95 249.45 373.3"/><polygon points="218.63 356.75 218.31 356.75 218.31 350.32 218.47 350.32 240.98 350.28 240.98 350.6 218.63 350.64 218.63 356.75"/><path d="M313.32,358.47l-.32-.07a6.35,6.35,0,0,0-.67-5,7,7,0,0,0-4.07-2.71l.06-.32a7.28,7.28,0,0,1,4.27,2.86A6.63,6.63,0,0,1,313.32,358.47Z"/><rect width="36.42" height=".32" x="237.25" y="362.92"/><rect width="19.7" height=".32" x="224.05" y="353.32"/><rect width="8.57" height=".32" x="266.11" y="358.27"/><rect width="12.27" height=".32" x="294.61" y="354.61"/><path fill="#f15f2d" d="M268.49,422.28v-3.22L176.76,419a7.56,7.56,0,1,0,.32,15.11l91.39.06v-3.23H266v-8.65Z"/><path fill="#fff" fill-rule="evenodd" d="M231.6,426.53a6.08,6.08,0,0,0,6.21,6l88.31.07,0-11.88-88.66-.07A6.07,6.07,0,0,0,231.6,426.53Z"/><path d="M326.27,432.7h-.15l-88.31-.06a6.26,6.26,0,0,1-6.37-6.11h0a6.23,6.23,0,0,1,6-6.08l88.82.06Zm-94.51-6.17a5.93,5.93,0,0,0,6.05,5.8l88.15.06,0-11.57-88.5-.06a5.9,5.9,0,0,0-5.72,5.77Z"/><path d="M229.41,426.6a7.71,7.71,0,0,0,7.81,7.57l91.39.06V431l-91.39-.06a4.48,4.48,0,0,1-4.6-4.34,4.24,4.24,0,0,1,4.35-4.31l91.65.06v-3.22l-91.74-.07A7.69,7.69,0,0,0,229.41,426.6Z"/><polygon fill="#fdb733" fill-rule="evenodd" points="310.43 424.59 310.49 438.49 313.07 436.26 315.68 438.47 315.61 424.56 310.43 424.59"/><rect width="19.09" height=".27" x="280.06" y="430.78"/><rect width="18.69" height=".27" x="269.33" y="428.48"/><rect width="11.13" height=".26" x="292.64" y="425.72"/><rect width="5.43" height=".27" x="303.32" y="428.48"/><rect width="5.14" height=".26" x="319.98" y="425.07"/><path fill="#fff" fill-rule="evenodd" d="M278.75,402.05l-83.21.08,0,15.51,82.77-.08a7.76,7.76,0,1,0,.42-15.51Z"/><path d="M195.42,417.78v-.14l0-15.65h.15l83.22-.08a8.05,8.05,0,0,1,7.81,7.88,7.64,7.64,0,0,1-2.41,5.59,8.36,8.36,0,0,1-5.83,2.32Zm.26-15.5,0,15.21,82.62-.08a8.1,8.1,0,0,0,5.63-2.24,7.4,7.4,0,0,0,2.32-5.38,7.77,7.77,0,0,0-7.53-7.59Z"/><path d="M278.75,400.22l-86.47.09V404l86.38-.09a6.09,6.09,0,0,1,5.93,5.91,5.69,5.69,0,0,1-1.8,4.17,6.5,6.5,0,0,1-4.47,1.77l-86,.08v3.66l86-.08a10.08,10.08,0,0,0,7-2.79,9.4,9.4,0,0,0,2.93-6.82A9.77,9.77,0,0,0,278.75,400.22Z"/><path fill="#fff" fill-rule="evenodd" d="M335.79,402.05l-83.22.08,0,15.51,82.76-.08a7.76,7.76,0,1,0,.43-15.51Z"/><path d="M252.45,417.78v-.14l0-15.65h.15l83.22-.08a8.06,8.06,0,0,1,7.82,7.88,7.71,7.71,0,0,1-2.41,5.59,8.36,8.36,0,0,1-5.84,2.32Zm.27-15.5,0,15.21,82.62-.08a8.08,8.08,0,0,0,5.63-2.24,7.37,7.37,0,0,0,2.32-5.38,7.77,7.77,0,0,0-7.53-7.59Z"/><path fill="#f15f2d" d="M335.78,400.22l-86.47.09V404l86.37-.09a6.09,6.09,0,0,1,5.94,5.91,5.73,5.73,0,0,1-1.81,4.17,6.47,6.47,0,0,1-4.46,1.77l-86,.08v3.66l86-.08a10.08,10.08,0,0,0,7-2.79,9.32,9.32,0,0,0,2.93-6.82A9.77,9.77,0,0,0,335.78,400.22Z"/><polygon fill="#f15f2d" fill-rule="evenodd" points="281.63 425.37 285.04 422.49 288.4 425.4 288.49 407.25 281.72 407.22 281.63 425.37"/><polygon points="252.73 409.85 252.43 409.85 252.43 403.82 252.58 403.82 273.69 403.78 273.69 404.08 252.73 404.12 252.73 409.85"/><path d="M341.53,411.46l-.29-.07a5.92,5.92,0,0,0-.63-4.65,6.59,6.59,0,0,0-3.82-2.55l.06-.3a6.84,6.84,0,0,1,4,2.68A6.25,6.25,0,0,1,341.53,411.46Z"/><rect width="34.16" height=".3" x="270.2" y="415.63"/><rect width="18.47" height=".3" x="257.81" y="406.63"/><rect width="8.04" height=".3" x="297.26" y="411.27"/><rect width="11.51" height=".3" x="323.99" y="407.84"/><path fill="#fdb733" d="M283.14,388.39v-3.23l-91.73-.07a7.56,7.56,0,1,0,.32,15.11l91.39.07V397h-2.49v-8.64Z"/><path fill="#fff" fill-rule="evenodd" d="M246.25,392.63a6.09,6.09,0,0,0,6.2,6l88.32.06,0-11.88-88.66-.06A6.05,6.05,0,0,0,246.25,392.63Z"/><path d="M340.92,398.8h-.15l-88.32-.06a6.24,6.24,0,0,1-6.36-6.11h0a6.22,6.22,0,0,1,6-6.08l88.82.06Zm-94.52-6.17a5.94,5.94,0,0,0,6,5.8l88.16.06,0-11.56-88.5-.07a5.92,5.92,0,0,0-5.73,5.77Z"/><path d="M244.05,392.7a7.71,7.71,0,0,0,7.82,7.57l91.39.06v-3.22L251.88,397a4.48,4.48,0,0,1-4.6-4.34,4.24,4.24,0,0,1,4.35-4.31l91.65.07v-3.23l-91.73-.07A7.7,7.7,0,0,0,244.05,392.7Z"/><polygon fill="#fdb733" fill-rule="evenodd" points="325.07 390.69 325.14 404.59 327.72 402.37 330.32 404.57 330.26 390.67 325.07 390.69"/><rect width="19.09" height=".27" x="294.71" y="396.88"/><rect width="18.69" height=".27" x="283.98" y="394.58"/><rect width="11.13" height=".26" x="307.28" y="391.82"/><rect width="5.43" height=".27" x="317.96" y="394.58"/><rect width="5.14" height=".26" x="334.63" y="391.17"/><path d="M382.93,220.42a1.59,1.59,0,1,0,.85,2A1.57,1.57,0,0,0,382.93,220.42Z"/><path d="M385.37,219.14a1.58,1.58,0,1,0,.85,2A1.56,1.56,0,0,0,385.37,219.14Z"/><path d="M388.09,197.78a1.59,1.59,0,1,0,.85,2A1.56,1.56,0,0,0,388.09,197.78Z"/><path d="M385.64,196.33c-1.31-.51-2.63-.27-2.94.54s.47,1.89,1.78,2.41,2.62.27,2.94-.55S386.94,196.85,385.64,196.33Z"/><path d="M390.83,201.29a1.58,1.58,0,0,0-1.16,2.94,1.58,1.58,0,0,0,1.16-2.94Z"/><path d="M391.08,203.26a1.59,1.59,0,1,0,.85,2A1.55,1.55,0,0,0,391.08,203.26Z"/><path d="M388.83,213.9a1.58,1.58,0,1,0,.85,2A1.55,1.55,0,0,0,388.83,213.9Z"/><path d="M390.92,205.68a1.59,1.59,0,1,0,.84,2A1.56,1.56,0,0,0,390.92,205.68Z"/><path d="M388,215.76c-.84-.34-2,.47-2.48,1.8s-.26,2.68.58,3,2-.48,2.49-1.81S388.83,216.09,388,215.76Z"/><path d="M390,210.36c-.85-.33-2,.48-2.49,1.81s-.26,2.68.59,3,2-.47,2.48-1.8S390.83,210.7,390,210.36Z"/><path d="M391.74,207c-.85-.33-2,.48-2.48,1.81s-.27,2.68.58,3,2-.47,2.48-1.8S392.58,207.33,391.74,207Z"/><path d="M389.71,199.22c-.85-.33-2,.48-2.48,1.81s-.27,2.68.58,3,2-.47,2.48-1.8S390.55,199.56,389.71,199.22Z"/><path d="M388,199.75a11.76,11.76,0,0,0-7-2.92A22.75,22.75,0,0,0,370.43,198a13.24,13.24,0,0,0-5.91,4,6.78,6.78,0,0,0-1.22,6.43c.75,2,2.58,3.62,4.47,5,3.86,2.76,8.21,5,11.32,8.51.86,1,1,1.59,2.37,1.15a10.53,10.53,0,0,0,3-2.07,17.62,17.62,0,0,0,4.31-5.26,16.45,16.45,0,0,0,1.47-11.44A9.42,9.42,0,0,0,388,199.75Z"/><polygon fill="#a8695c" points="366.8 227.76 365.04 234.61 375.63 236.36 375.97 229.39 376.15 225.56 367.72 224.17 366.8 227.76"/><path d="M366.8,227.76a7.9,7.9,0,0,0,3.2,1.14,9.93,9.93,0,0,0,6-1.27l.12-2.07-8.43-1.39Z"/><path d="M376.64,198.2c-6.08-1-11.78,2.79-12.72,8.48s3.23,11.12,9.32,12.12S385,216,386,210.32,382.73,199.2,376.64,198.2Z"/><path fill="#a8695c" d="M376.1,200.65c-5.88-1-11.66,4.38-12.91,12s2.5,14.5,8.37,15.47,11.66-4.38,12.91-12S382,201.62,376.1,200.65Z"/><path fill="#a8695c" d="M387.07,211.58c-1.59-.38-3.28,1-3.77,3s-1.11,4.95.48,5.33,4.79-1.9,5.29-3.95S388.66,212,387.07,211.58Z"/><path d="M387.94,212.81c-1.15-.06-2.52.35-4,3.81a.3.3,0,0,0,.13.39.28.28,0,0,0,.15,0,.3.3,0,0,0,.26-.13,5.9,5.9,0,0,0,.45-.81c.23-.47.43-.88.79-1a2,2,0,0,1,1.37.29.32.32,0,0,0,.42-.15.31.31,0,0,0-.15-.41,2.83,2.83,0,0,0-1.5-.39,2.26,2.26,0,0,1,2-1,.28.28,0,0,0,.32-.3A.3.3,0,0,0,387.94,212.81Z"/><path fill="#a8695c" d="M362.25,207.48c-1.63-.15-3.11,1.43-3.3,3.53s2.1,5.29,3.73,5.44,2-2.79,2.17-4.89S363.88,207.63,362.25,207.48Z"/><path d="M361,208.36a.31.31,0,1,0-.17.6,2.28,2.28,0,0,1,1.57,1.61,3,3,0,0,0-1.55-.12.31.31,0,0,0-.27.35.31.31,0,0,0,.35.27,2,2,0,0,1,1.39.18c.3.23.36.67.42,1.19a6.17,6.17,0,0,0,.17.92.31.31,0,0,0,.3.22h.06a.32.32,0,0,0,.25-.33C363.31,209.5,362.14,208.68,361,208.36Z"/><path d="M373.76,217.13a3.16,3.16,0,0,1-1.61.18.69.69,0,0,1-.33-.12c-.13-.13-.07-.45,0-.68l.9-3.7a.31.31,0,0,0-.23-.38.32.32,0,0,0-.38.23l-.9,3.7a1.32,1.32,0,0,0,.18,1.28,1.16,1.16,0,0,0,.67.29,5.46,5.46,0,0,0,.57,0,3.83,3.83,0,0,0,1.37-.26.31.31,0,0,0,.18-.4A.32.32,0,0,0,373.76,217.13Z"/><path fill="#fff" d="M370.07,221.72a7.43,7.43,0,0,0,1.79,1.31,3.21,3.21,0,0,0,3.59-.6,12.37,12.37,0,0,0,1.39-2.65A7,7,0,0,1,370.07,221.72Z"/><path d="M368.61,210.13c-.4-.06-.81.42-.92,1.09s.13,1.25.53,1.32.81-.42.92-1.08S369,210.2,368.61,210.13Z"/><path d="M378,211.69c-.4-.07-.82.42-.93,1.08s.13,1.26.53,1.33.82-.42.93-1.09S378.43,211.76,378,211.69Z"/><path d="M379.54,209.72a3.76,3.76,0,0,0-1.65-.69.83.83,0,0,0-.6,1c.08.16.28.21.46.25a3.7,3.7,0,0,1,1.89,1.14c.26-.29.55-.65.47-1A1.1,1.1,0,0,0,379.54,209.72Z"/><path d="M369.51,207.64a3.88,3.88,0,0,0-1.79.12,1.14,1.14,0,0,0-.75.43,1.27,1.27,0,0,0,.12,1.13,3.72,3.72,0,0,1,2.15-.47.62.62,0,0,0,.52-.09A.83.83,0,0,0,369.51,207.64Z"/><path d="M364.23,206.55a20.08,20.08,0,0,0-.4,4,4.62,4.62,0,0,0,2.61-3.67c.47-2.87,2.28-5.31,1.67-5.41S364.7,203.67,364.23,206.55Z"/><path d="M381.56,203.73c-.61-.1.32,2.78-.16,5.65s3.3,5.32,3.3,5.32l.85-5.09C386,206.74,382.17,203.83,381.56,203.73Z"/><path fill="#e2847a" d="M378.92,215.42c-1.62,0-2.95.51-3,1.19s1.3,1.25,2.93,1.28,2.94-.51,2.95-1.19S380.54,215.45,378.92,215.42Z"/><path fill="#e2847a" d="M367,213.46c-1.5-.63-2.92-.63-3.19,0s.73,1.64,2.23,2.28,2.92.63,3.19,0S368.44,214.1,367,213.46Z"/><path d="M379.5,200.58a10.45,10.45,0,0,0-4.29-.83,5.61,5.61,0,0,0-4,1.27l.44-.29a8.85,8.85,0,0,0,2.67,4.92,16.67,16.67,0,0,0,4.74,3.1,6.06,6.06,0,0,1,2.71,1.86c.16.25.4.57.67.45a.57.57,0,0,0,.26-.43,20.79,20.79,0,0,0,.62-3.58,7.1,7.1,0,0,0-.63-3.53A6.48,6.48,0,0,0,379.5,200.58Z"/><path d="M371.62,200.32a11.06,11.06,0,0,0-2,.78,8.12,8.12,0,0,0-3,2.56,5.82,5.82,0,0,0-1.11,4.09,10.48,10.48,0,0,1,2.59-2,15.08,15.08,0,0,0,2.68-1.86,4.42,4.42,0,0,0,1.48-2.83c.24,0,.32-.61.11-.75A.88.88,0,0,0,371.62,200.32Z"/><path d="M378.92,194.87a4.16,4.16,0,0,0-2.3-1.57,2.28,2.28,0,0,0-2.5,1.26,3.84,3.84,0,0,0-2.87-3.21,3.71,3.71,0,0,0-3.9,1.63,8.22,8.22,0,0,0-1.67-.79,2.63,2.63,0,0,0-1.77.1,3.31,3.31,0,0,0-1.34,1.45,2.32,2.32,0,0,0-.36.91,1,1,0,0,0,.27.9,2.65,2.65,0,0,0-2.42,1.95,2.56,2.56,0,0,0,1.2,2.81,2.52,2.52,0,0,0-1,1.25,2,2,0,0,0,.11,1.65,1.48,1.48,0,0,0,1.44.74,4.56,4.56,0,0,0-.67.85,1.71,1.71,0,0,0-.22,1.08,1.68,1.68,0,0,0,.84,1.08,4.73,4.73,0,0,0,1.32.47c.72.18,1.35-.4,1.87-.93A24.55,24.55,0,0,0,368.4,202a3.21,3.21,0,0,1,.87-1.09,3.07,3.07,0,0,1,1.61-.35,39.45,39.45,0,0,0,4.85-.38,21.9,21.9,0,0,0,7.72-2.59,1.81,1.81,0,0,0-.48-1.8A3.62,3.62,0,0,0,378.92,194.87Z"/><path d="M379.17,205.89a37.53,37.53,0,0,0-3.42-4.22,8.34,8.34,0,0,0-2.79-2.15,5.22,5.22,0,0,0-4.68.51,6.48,6.48,0,0,0-2.71,3.92,3.82,3.82,0,0,0,0,2.12,2,2,0,0,0,1.49,1.4,1.55,1.55,0,0,0,1.72-1.1,1.91,1.91,0,0,0,1.5.09,1.69,1.69,0,0,0,1-1,1.8,1.8,0,0,0,1.4,1.14,1.85,1.85,0,0,0,1.67-.78,1.18,1.18,0,0,0,.71,1.33,3.43,3.43,0,0,0,1.62.27.69.69,0,0,0,.22.81,1.65,1.65,0,0,0,.84.31,6.28,6.28,0,0,0,1.62,0,2,2,0,0,0,.43-1.51A3.35,3.35,0,0,0,379.17,205.89Z"/><path fill="#db4f4f" d="M349.89,266.17S366,241.92,360.79,236Z"/><path fill="#a8695c" d="M323,444c-1.17,3.43-3,17.67-6.87,19s-6.81,4.63-11,4.84a27.22,27.22,0,0,0-4.27.37l-.06,0a1.78,1.78,0,0,0,.63,3.44c9-.08,15.47-.29,26.57,0,1.44,0,4.12-.48,4.12-3.16,0-5.89-9.86-6.73,2.88-19.82C336.48,447.25,328.59,443.83,323,444Z"/><path d="M331.2,464.38a.61.61,0,0,0-.73-.23c-1.89.72-9.27,3.35-12.91,2.39-2.35-.62-3.31-1.51-3.69-2.16a.84.84,0,0,0-1.16-.35c-1.53.86-4.61,2.5-6.26,2.56a13.86,13.86,0,0,0-6.25,1.46,2.76,2.76,0,0,0-1,2.5,1.48,1.48,0,0,0,1.48,1.5l30.58,0a1.22,1.22,0,0,0,1.14-.78,6.54,6.54,0,0,0,.51-3.28A10.18,10.18,0,0,0,331.2,464.38Z"/><path fill="#a8695c" d="M398.47,449.48c.36-2.23-5.16-3.14-9.3-3-.88,3.88,1.35,16.12-2.79,18.08-8.44,4-3.39,7.16-.68,7.14A101.31,101.31,0,0,1,397,472c4.37.4,4.35-2.62,2.66-5.16C396.92,462.66,396.24,463.24,398.47,449.48Z"/><path d="M355.34,307.93c-2,1.58-5.75,17.4-7.78,18.91-8.11,31.93-24.71,113.28-29.13,128.14,3.54,1.07,9.65,2.95,13,2.22,8-16.1,51.4-83.6,50.11-151.18C376.35,304.54,359.73,304.45,355.34,307.93Z"/><path d="M375.12,309.26c-1.59,2-13.88,17.79-15.53,19.72,5.27,34.38,12.32,38.54,15.91,65.13a19,19,0,0,0,.7,3.07c7.31,23,9.1,45.24,9.79,58.85,7.18-.62,7.44-.4,14.62-1,7.8-29.84,3.24-126.67-4-153.57C391.24,301.16,378.62,304.89,375.12,309.26Z"/><path fill="#f15f2d" d="M396.56,244.79c-.18-3.95-7.58-6.71-14.12-9.38l-.55-.23-1.9-.79c-4.34-1.72-7.88-2.8-7.88-2.8s-3.51,1.39-7.8,3.52h0c-18.69,3-11.81,18.5-13,22.15a63.35,63.35,0,0,0-1.55,9.78s0,0,0,.05c-.06.54-.13,1.1-.18,1.67-.23,2.18-.46,4.54-.69,7v.07c-.06.64-.1,1.26-.17,1.84,0,.09,0,.26,0,.51-.14,1.59-.28,3.19-.41,4.82a.2.2,0,0,0,0,.07c-.85,10.34-2.4,27.08-3.36,37.29a8,8,0,0,0,8,8.74l38.36-.39a9.34,9.34,0,0,0,9.22-9.81Z"/><path fill="#fff" d="M366.44,359.85a.31.31,0,0,0-.19.4l4.68,13.67a.3.3,0,0,0,.29.21.22.22,0,0,0,.11,0,.3.3,0,0,0,.19-.39L366.84,360A.32.32,0,0,0,366.44,359.85Z"/><polygon points="377.17 338.01 396.83 337.87 398.63 309.05 376.69 310.19 377.17 338.01"/><polygon fill="#fff" points="396.08 315.99 396.32 307.89 394.07 307.03 376.67 337.6 396.33 337.47 398.13 308.64 396.81 308.71 396.08 315.99"/><polygon fill="#fdb733" points="349.01 335.03 392.74 335.08 394.54 306.5 353.68 307.79 349.01 335.03"/><polygon fill="#fff" points="355.76 331.05 364.17 331.14 366.95 309.63 359.08 310.23 355.76 331.05"/><polygon fill="#f15f2d" points="349.01 335.03 355.93 338.15 396.83 337.87 392.74 335.08 349.01 335.03"/><path d="M398.16,464.66a5.72,5.72,0,0,1-3.68.07c-1.37-.35-2.68-.94-4.07-1.18a4.94,4.94,0,0,0-3.39.52,4.2,4.2,0,0,1-1.35.56,7.63,7.63,0,0,0-3.86,2.44,7.48,7.48,0,0,0-1.55,4.44.86.86,0,0,0,.87.89h19.44a1,1,0,0,0,1-.94,9,9,0,0,0-2.6-6.7A.71.71,0,0,0,398.16,464.66Z"/><path fill="#a8695c" d="M360.36,295.73l-.5-5.09.18-.14c-.43-.35-.87-.69-1.32-1-4.93-3.64-11.37-6.65-15.39-3.9,0,.15-.07.28-.08.42a25.36,25.36,0,0,0,.14,5.5,67.64,67.64,0,0,0,1.39,7.68c3.13,13.24,9.71,29.25,10.73,31.71,0,0,0,0,0,0a3.31,3.31,0,0,1,.14.31l.93-.56.73-.43.4-.24,1.19-.72,4.49-2.72-.16-1.62Z"/><path fill="#a8695c" d="M371.31,323.16c-.82-.17-2.19.6-3.35.79-4.16.68-8,1.6-10.08,3.4-2.39,2.08-1.14,4.27.24,7.38,1.07,2.43,6.13,5.4,8.22,4.71s-.61-10,1.09-11.54S373.37,323.59,371.31,323.16Z"/><path fill="#a8695c" d="M358.3,333.24c-.19-.84-.32-3.94-1.28-4.19-2.7-.7-1,6.36-.83,7.22.16.68,1.1,5.25,1.85,5.31a1.72,1.72,0,0,0,1.49-1.25,3.63,3.63,0,0,0-.08-1.88C359.07,336.71,358.68,335,358.3,333.24Z"/><path fill="#a8695c" d="M360,333.32c-.18-.83-.31-3.93-1.27-4.18-2.7-.7-1,6.36-.84,7.22.16.68,1.1,5.25,1.85,5.31a1.72,1.72,0,0,0,1.5-1.25,3.74,3.74,0,0,0-.08-1.88C360.75,336.8,360.37,335.06,360,333.32Z"/><path fill="#a8695c" d="M362,333.15c-.19-.83-.32-3.93-1.28-4.18-2.7-.7-1,6.36-.83,7.21.16.69,1.1,5.26,1.85,5.32a1.76,1.76,0,0,0,1.5-1.25,3.74,3.74,0,0,0-.09-1.88C362.79,336.63,362.4,334.89,362,333.15Z"/><path fill="#a8695c" d="M364.07,332.85c-.18-.84-.31-3.93-1.28-4.18-2.69-.71-1,6.36-.83,7.21.16.68,1.1,5.26,1.85,5.31a1.73,1.73,0,0,0,1.5-1.25,3.7,3.7,0,0,0-.08-1.87C364.84,336.33,364.46,334.59,364.07,332.85Z"/><path fill="#a8695c" d="M399.93,285.57c-4.37-3-11.68.87-16.71,4.93l.18.14-.16,1.57-.26,2.72-3,30-.16,1.62,4.5,2.71,1.2.73.38.23.73.44.94.56a3.31,3.31,0,0,1,.14-.31,0,0,0,0,1,0,0c1-2.49,7.58-18.41,10.7-31.62a65.41,65.41,0,0,0,1.51-8.6h0a24.25,24.25,0,0,0,0-4.65A3.43,3.43,0,0,0,399.93,285.57Z"/><path fill="#a8695c" d="M385.39,327.35c-2.06-1.8-5.93-2.72-10.09-3.4-1.16-.19-2.52-1-3.34-.79-2.06.43,2.2,3.26,3.88,4.74s-1,10.85,1.08,11.54,7.16-2.28,8.23-4.71C386.52,331.62,387.78,329.43,385.39,327.35Z"/><path fill="#a8695c" d="M386.25,329.05c-1,.25-1.09,3.35-1.28,4.19-.38,1.73-.77,3.47-1.15,5.21a3.74,3.74,0,0,0-.09,1.88,1.75,1.75,0,0,0,1.5,1.25c.75-.06,1.69-4.63,1.85-5.31C387.28,335.41,388.94,328.35,386.25,329.05Z"/><path fill="#a8695c" d="M384.56,329.14c-1,.25-1.09,3.35-1.28,4.18-.38,1.74-.77,3.48-1.15,5.22a3.74,3.74,0,0,0-.09,1.88,1.75,1.75,0,0,0,1.5,1.25c.75-.06,1.69-4.63,1.85-5.31C385.59,335.5,387.26,328.44,384.56,329.14Z"/><path fill="#a8695c" d="M382.53,329c-1,.25-1.09,3.35-1.28,4.18-.38,1.74-.77,3.48-1.15,5.22a3.74,3.74,0,0,0-.09,1.88,1.76,1.76,0,0,0,1.5,1.25c.75-.06,1.69-4.63,1.85-5.32C383.56,335.33,385.22,328.27,382.53,329Z"/><path fill="#a8695c" d="M380.47,328.67c-1,.25-1.09,3.34-1.27,4.18-.39,1.74-.77,3.48-1.16,5.22a3.7,3.7,0,0,0-.08,1.87,1.71,1.71,0,0,0,1.5,1.25c.75-.05,1.69-4.63,1.84-5.31C381.5,335,383.17,328,380.47,328.67Z"/><path d="M360,290.5c-.43-.35-.87-.69-1.32-1a68.36,68.36,0,0,0-15.33,2,67.64,67.64,0,0,0,1.39,7.68,92,92,0,0,0,10.71-1.66,12.54,12.54,0,0,0,4.87-1.78l-.5-5.09Z"/><path d="M391.78,290.05a17.86,17.86,0,0,0-5.61.5,7.76,7.76,0,0,0-2.93,1.66l-.26,2.72a11.71,11.71,0,0,0,3.38,2.31,19.07,19.07,0,0,0,11.35,2.15,4.72,4.72,0,0,0,.75-.14,65.41,65.41,0,0,0,1.51-8.6h0a4.19,4.19,0,0,0-2.15-.46Z"/><path fill="#f15f2d" d="M356.57,236.3c-7.81,2.14-15.56,8.82-16.93,15.18-1.18,5.49-.47,10.55.32,20.64a178.34,178.34,0,0,0,3.31,24.58c2.17.68,8.25.23,12.34-.31,2.3-.31,4-.33,5.67-1.7,2.54-2.13,2.36-5.55,2-8.54-1.15-10.38-2-20.88-.19-31.19C363.85,250.83,367.43,233.32,356.57,236.3Z"/><path fill="#f15f2d" d="M388.26,236.84c-10.86-3-7.27,14.53-6.55,18.66,1.82,10.31,1,20.81-.18,31.19-.33,3-.51,6.41,2,8.53,1.65,1.38,4.42,2.29,7.79,2.64,2.31.24,8.05.06,10.23-.63a179.67,179.67,0,0,0,3.31-24.58c.78-10.08,1.49-15.14.31-20.63C403.83,245.66,396.07,239,388.26,236.84Z"/><path fill="#a8695c" d="M372.11,231.59s-3.41,1.35-7.61,3.43l-.21.1c-.13.47,9.18,5.15,9.18,5.15s8.54-4.64,8.42-5.09l-1.9-.79C375.65,232.67,372.11,231.59,372.11,231.59Z"/><path fill="#f15f2d" d="M381.92,224.8c-1.59-.12-3.49.52-5.11.58a34.16,34.16,0,0,1-10.07-1.11,10,10,0,0,0-2.48-.48,3,3,0,0,0-2.29.87,4.36,4.36,0,0,0-.79,1.92c-.53,2.34-1.07,4.68-1.6,7a10.31,10.31,0,0,0-.38,2.75,3.53,3.53,0,0,0,1,2.5,5.22,5.22,0,0,0,2.67,1q5.54.94,11.13,1.48c2.31.23,4.75.38,6.86-.61a8.48,8.48,0,0,0,4.5-7.58,12.34,12.34,0,0,0-1.11-5.13C383.85,227,383.07,224.88,381.92,224.8Z"/><path d="M383.82,237.87a25.11,25.11,0,0,1-20.95.75.33.33,0,0,0-.42.17.32.32,0,0,0,.17.41,25.75,25.75,0,0,0,21.48-.77.32.32,0,0,0,.14-.43A.31.31,0,0,0,383.82,237.87Z"/><path d="M379.92,231.42a24.42,24.42,0,0,1-13.22,2.82.3.3,0,0,0-.33.29.31.31,0,0,0,.29.33c.59,0,1.18.07,1.77.07a25.08,25.08,0,0,0,11.79-3,.3.3,0,0,0,.12-.42A.31.31,0,0,0,379.92,231.42Z"/><rect width="444.08" height="1.07" x="46.24" y="472.4"/><path fill="#fdb733" d="M62.68,307.11c25.17-27.18,58.13,43.49,54.88,71.35l-12.53,0C92.87,371.44,42.3,329.12,62.68,307.11Z"/><path d="M111,378.6l1-.44c-18.57-40.55-48.66-71.12-49-71.43l-.76.76C62.6,307.79,92.55,338.23,111,378.6Z"/><path d="M70.33,346.1c8,2.52,25.22,4.7,26,4.81l.13-1.07c-.22,0-21.72-2.75-28-5.55l-.44,1A22.71,22.71,0,0,0,70.33,346.1Z"/><path d="M81.15,327.19c3-8.79,3.63-22.84,3.64-23l-1.07,0c0,.14-.63,14-3.58,22.68Z"/><path d="M106.59,332.86c7.65,16,12.29,34.31,11,45.6C100.09,360.31,103.81,335.83,106.59,332.86Z"/><path fill="#fdb733" d="M127.07,288.3c22.3-10.91,15.42,54.93-4.24,90.18l-9.12,0C109.18,369.63,109,297.13,127.07,288.3Z"/><path d="M117,378.37l1,.19c3.56-19.55,13.23-82.59,13.33-83.22l-1.06-.17C130.26,295.81,120.59,358.83,117,378.37Z"/><rect width="15.13" height="1.07" x="119.09" y="350.36" transform="rotate(-49.79 126.647 350.872)"/><rect width="1.07" height="14.42" x="119.05" y="318.91" transform="rotate(-50.14 119.603 326.138)"/><path fill="#fff" d="M80.3,378.42l0,5.4a32.1,32.1,0,0,0,5.24,17.52l1.37,2.12,10.9,68.94,26.21.07,8.11-68.88,1.38-2.12A32.06,32.06,0,0,0,138.82,384l0-5.4Z"/><path d="M124.35,472.87l-26.9-.08L86.51,403.61l-1.32-2.06a32.5,32.5,0,0,1-5.3-17.73V378l59.33.16V384a32.69,32.69,0,0,1-5.4,17.71l-1.33,2ZM98.12,472l25.53.08,8.08-68.63,1.43-2.19A31.86,31.86,0,0,0,138.43,384v-5l-57.75-.16v5a31.75,31.75,0,0,0,5.17,17.3l1.43,2.28Z"/><rect width="1.07" height="43.61" x="101.88" y="370.26" transform="rotate(-89.84 102.435 392.07)"/><rect width="1.07" height="15.61" x="124.02" y="395.71" transform="rotate(-90 123.815 403.115)"/><path d="M97.33,472.93h1.43v-1.07h-.51L87.4,403.27,86,401.05a31.61,31.61,0,0,1-5.15-17.23V379l58,.16v-1.07l-59.08-.16v5.93a32.67,32.67,0,0,0,5.32,17.81l1.31,2Z"/></svg>