<svg xmlns="http://www.w3.org/2000/svg" viewBox="0 0 4680 3120"><defs><clipPath id="a"><path fill="#ffebbe" d="M3225.1243,2461.795s687.1648-417.49962,678.2514-924.83352c-4.4614-253.9343-186.3451-648.2181-626.9749-670.5861-327.7243-16.6366-554.0647-394.3878-968.2246-471.0155C1274.8372,204.1719,488.9149,801.9661,793.7449,1857.4065c32.3077,111.862,170.722,349.29012,267.3581,414.23892C1300.7356,2432.70162,1969.5157,2702.92661,3225.1243,2461.795Z"/></clipPath><clipPath id="b"><path fill="#f9f9f9" d="M3087.7011,1734.577s-61.2957,57.7698,6.9968,122.8295H1684.3016l-1.4497-131.3205Z"/></clipPath><clipPath id="c"><path fill="#f9f9f9" d="M1314.1558,2225.50582s85.2436,107.7822-9.7545,229.1775H3266.6464l9.7544-245.0956Z"/></clipPath></defs><g data-name="1"><path fill="#ffebbe" d="M3225.1243,2461.795s687.1648-417.49962,678.2514-924.83352c-4.4614-253.9343-186.3451-648.2181-626.9749-670.5861-327.7243-16.6366-554.0647-394.3878-968.2246-471.0155C1274.8372,204.1719,488.9149,801.9661,793.7449,1857.4065c32.3077,111.862,170.722,349.29012,267.3581,414.23892C1300.7356,2432.70162,1969.5157,2702.92661,3225.1243,2461.795Z"/><g clip-path="url(#a)"><path fill="#ffb60a" d="M1270.2617,2344.8112H1071.0013V1107.2421s99.6377-88.526,199.2604,2.776Z"/><path fill="#ff8a12" d="M1211.185,1457.8916h-81.1078c-7.8694,0-14.2489-11.5946-14.2489-25.8972V1249.2522c0-14.3026,6.3795-25.8972,14.2489-25.8972h81.1078c7.8694,0,14.2489,11.5946,14.2489,25.8972v182.7422C1225.4339,1446.297,1219.0544,1457.8916,1211.185,1457.8916Z"/><path d="M1145.134,2344.8112h-74.1327V1107.2421s2.923-4.9942,34.8449-22.2484c14.981-8.128,39.2878-13.4949,39.2878-13.4949Z" style="mix-blend-mode:soft-light" fill="#ad274d"/><path fill="#ffcc6f" d="M1466.859,2040.3801H1267.5986V905.7999s99.6377-81.159,199.2604,2.545Z"/><path fill="#ff9d20" d="M1407.7823,1227.2688h-81.1077c-7.8695,0-14.249-10.6297-14.249-23.7421V1035.9921c0-13.1124,6.3795-23.7421,14.249-23.7421h81.1077c7.8694,0,14.2489,10.6297,14.2489,23.7421v167.5346C1422.0312,1216.6391,1415.6517,1227.2688,1407.7823,1227.2688Z"/><path d="M1341.7314,2040.3801h-74.1328V905.7999s2.923-4.5786,34.8449-20.397c14.981-7.4515,39.2879-12.3718,39.2879-12.3718Z" style="mix-blend-mode:soft-light" fill="#f04b36"/><path fill="#ffbd20" d="M707.2075,2278.54092l228.3924,28.6451L1074.9265,1196.3038s-106.3309-76.9063-228.6188-26.6727Z"/><path fill="#d67e00" d="M986.8233,1553.6343,843.6591,1535.684l39.9844-318.7264,143.1471,17.9643Zm-124.9308-32.1204,110.761,13.888,35.9026-286.3197-110.7404-13.8826Z"/><polygon fill="#d67e00" points="740.172 2015.955 968.51 2044.623 975.631 1987.885 747.281 1959.25 740.172 2015.955"/><polygon fill="#d67e00" points="730.003 2096.995 958.377 2125.645 965.484 2068.929 737.131 2040.285 730.003 2096.995"/><path d="M788.1373,2291.15052l-80.695-11.573L846.3077,1169.6311s5.8432-3.5716,37.3936-11.751c16.7946-4.3501,42.5878-5.1655,42.5878-5.1655Z" style="mix-blend-mode:soft-light" fill="#fe6d2c"/></g><path fill="#ffbd20" d="M2704.2416,2026.1662l228.3925,28.6451L3071.9607,943.9291s-106.3309-76.9064-228.6188-26.6727Z"/><path fill="#d67e00" d="M2983.8575,1301.2596l-143.1642-17.9503,39.9844-318.7264,143.1471,17.9643Zm-124.9308-32.1204,110.761,13.888,35.9025-286.3198-110.7403-13.8825Z"/><polygon fill="#524938" points="2737.206 1763.581 2965.544 1792.248 2972.666 1735.51 2744.315 1706.875 2737.206 1763.581"/><polygon fill="#524938" points="2727.037 1844.62 2955.411 1873.27 2962.518 1816.555 2734.165 1787.911 2727.037 1844.62"/><path d="M2785.1715,2038.7758l-80.695-11.573L2843.3419,917.2564s5.8432-3.5716,37.3936-11.751c16.7946-4.3501,42.5877-5.1655,42.5877-5.1655Z" style="mix-blend-mode:soft-light" fill="#fe6d2c"/><path fill="#ff9e5e" d="M2472.2128,2045.8432l228.3924,28.6451L2839.9319,963.6061s-106.3309-76.9063-228.6188-26.6727Z"/><path fill="#d67e00" d="M2751.8287,1320.9366l-143.1642-17.9503,39.9844-318.7264,143.1471,17.9643Zm-124.9309-32.1204,110.761,13.888,35.9026-286.3197-110.7403-13.8826Z"/><polygon fill="#524938" points="2505.177 1783.258 2733.515 1811.925 2740.637 1755.188 2512.286 1726.552 2505.177 1783.258"/><polygon fill="#524938" points="2495.009 1864.297 2723.382 1892.947 2730.489 1836.232 2502.136 1807.588 2495.009 1864.297"/><path d="M2553.1426,2058.4528l-80.6949-11.573L2611.3131,936.9334s5.8432-3.5716,37.3935-11.751c16.7947-4.3501,42.5878-5.1655,42.5878-5.1655Z" style="mix-blend-mode:soft-light" fill="#503e70"/><path fill="#ffef97" d="M3391.9206,2271.64542H3053.7375V846.6487s169.0922-101.9331,338.1831,3.1964Z"/><rect width="338.183" height="103.584" x="3053.738" y="1868.18" fill="#600b2c"/><rect width="338.183" height="103.585" x="3053.738" y="2016.147" fill="#600b2c"/><rect width="338.183" height="103.57" x="3053.738" y="980.347" fill="#ffd061"/><rect width="338.183" height="103.57" x="3053.738" y="1128.329" fill="#ffd061"/><path d="M3179.5207,2271.64542H3053.7375V846.6487s4.9367-5.7506,59.1331-25.6179c25.4251-9.3589,66.6501-15.5387,66.6501-15.5387Z" style="mix-blend-mode:soft-light" fill="#600b2c"/><polygon fill="#4b709c" points="1319.789 601.385 1272.513 643.588 1520.877 2221.407 1585.471 2211.239 1319.789 601.385"/><rect width="1031.446" height="1770.807" x="1451.192" y="510.423" fill="#5e85bc" transform="rotate(-8.946 1966.853 1395.789)"/><polygon fill="#85efff" points="2570.987 2269.89 1699.553 2407.064 1658.363 2413.55 1622.162 2183.603 1612.943 2124.994 1603.537 2065.242 1555.238 1758.435 1536.426 1638.931 1511.066 1477.789 1466.841 1196.884 1383.007 664.278 1813.465 596.523 2040.501 560.78 2170.732 540.283 2267.32 525.078 2295.631 520.619 2338.411 792.399 2347.817 852.151 2357.047 910.761 2401.261 1191.666 2570.987 2269.89"/><polygon fill="#94f5ff" points="2040.501 560.78 1511.066 1477.789 1466.841 1196.884 1813.465 596.523 2040.501 560.78"/><polygon fill="#94f5ff" points="2401.261 1191.666 1699.553 2407.064 1658.363 2413.55 1622.162 2183.603 2357.047 910.761 2401.261 1191.666"/><polygon fill="#94f5ff" points="2267.32 525.078 1555.238 1758.435 1536.426 1638.931 2170.732 540.283 2267.32 525.078"/><polygon fill="#94f5ff" points="2347.817 852.151 1612.943 2124.994 1603.537 2065.242 2338.411 792.399 2347.817 852.151"/><path fill="#4b709c" d="M1973.7278,549.054l-224.8754,35.3976a12.09156,12.09156,0,0,1-13.8248-10.0644l-.3419-2.1718a12.0917,12.0917,0,0,1,10.0645-13.8248l224.8753-35.3976a12.09175,12.09175,0,0,1,13.8249,10.0644l.3418,2.1718A12.0917,12.0917,0,0,1,1973.7278,549.054Z"/><path fill="#4b709c" d="M2067.0586,520.2053a12.39658,12.39658,0,1,1-14.1734-10.3182A12.39654,12.39654,0,0,1,2067.0586,520.2053Z"/><circle cx="1635.268" cy="588.173" r="12.397" fill="#4b709c" transform="rotate(-53.945 1635.268 588.173)"/><circle cx="1598.698" cy="593.93" r="12.397" fill="#4b709c" transform="rotate(-88.617 1598.698 593.93)"/><path fill="#57d4ff" d="M1980.8344,1393.6362a356.4145,356.4145,0,1,1,133.0957-49.3949A355.26827,355.26827,0,0,1,1980.8344,1393.6362ZM1872.8882,707.8714c-183.4046,28.8697-309.1283,201.5676-280.2585,384.9723s201.5678,309.128,384.9724,280.2583,309.1283-201.5676,280.2586-384.9723S2056.2928,679.0016,1872.8882,707.8714Z"/><polygon fill="#57d4ff" points="1831.163 888.743 1882.329 1213.795 2105.192 998.134 1831.163 888.743"/><path fill="#57d4ff" d="M2359.5644,1417.2888l-736.3449,115.908a10.29583,10.29583,0,0,1-11.7715-8.5696h0a10.29575,10.29575,0,0,1,8.5696-11.7714l736.345-115.9081a10.2958,10.2958,0,0,1,11.7714,8.5696h0A10.29576,10.29576,0,0,1,2359.5644,1417.2888Z"/><path fill="#57d4ff" d="M2368.9475,1476.8978l-736.345,115.9081a10.2958,10.2958,0,0,1-11.7714-8.5696h0a10.29583,10.29583,0,0,1,8.5696-11.7715l736.3449-115.908a10.29583,10.29583,0,0,1,11.7715,8.5696h0A10.29575,10.29575,0,0,1,2368.9475,1476.8978Z"/><path fill="#57d4ff" d="M2378.3306,1536.5069l-736.345,115.908a10.29561,10.29561,0,0,1-11.7714-8.5695v-.0001a10.29566,10.29566,0,0,1,8.5695-11.7714l736.345-115.908a10.29566,10.29566,0,0,1,11.7714,8.5695v.0001A10.29566,10.29566,0,0,1,2378.3306,1536.5069Z"/><path fill="#57d4ff" d="M2387.7136,1596.116l-736.3449,115.908a10.29583,10.29583,0,0,1-11.7715-8.5696h0a10.29568,10.29568,0,0,1,8.5696-11.7714l736.3449-115.908a10.2957,10.2957,0,0,1,11.7715,8.5695h0A10.29578,10.29578,0,0,1,2387.7136,1596.116Z"/><path fill="#28b8eb" d="M1653.75953,1693.21281h747.12763a9.43768,9.43768,0,0,1,9.43768,9.43768v1.716a9.43781,9.43781,0,0,1-9.43781,9.43781H1653.75949a9.43777,9.43777,0,0,1-9.43777-9.43777v-1.71588a9.43781,9.43781,0,0,1,9.43781-9.43781Z" transform="rotate(-8.946 2027.323 1703.508)"/><path fill="#28b8eb" d="M1663.14248,1752.82187h747.12729a9.43811,9.43811,0,0,1,9.43811,9.43811v1.716a9.43735,9.43735,0,0,1-9.43735,9.43735h-747.128a9.43777,9.43777,0,0,1-9.43777-9.43777v-1.716a9.43772,9.43772,0,0,1,9.43772-9.43772Z" transform="rotate(-8.946 2036.706 1763.118)"/><path fill="#28b8eb" d="M1672.52563,1812.431H2419.6534a9.43758,9.43758,0,0,1,9.43758,9.43758v1.716a9.43791,9.43791,0,0,1-9.43791,9.43791H1672.52539a9.43758,9.43758,0,0,1-9.43758-9.43758v-1.71605a9.43782,9.43782,0,0,1,9.43782-9.43782Z" transform="rotate(-8.946 2046.09 1822.727)"/><path fill="#28b8eb" d="M1681.90863,1872.04h747.12758a9.43777,9.43777,0,0,1,9.43777,9.43777v1.71583a9.43791,9.43791,0,0,1-9.43791,9.43791H1681.90866a9.43776,9.43776,0,0,1-9.43776-9.43776v-1.716a9.43772,9.43772,0,0,1,9.43772-9.43772Z" transform="rotate(-8.946 2055.473 1882.336)"/><path fill="#006d62" d="M3533.5934,2504.79752C3533.5934,2645.744,2963.4983,2760,2260.2517,2760c-703.2464,0-1273.3415-114.256-1273.3415-255.20249,0-24.27932,16.9207-47.7687,48.5273-70.0212,151.8599-106.9078,642.7252-185.1918,1224.8142-185.1918,523.2204,0,972.7299,63.255,1168.5853,153.6891C3496.2287,2434.38142,3533.5934,2468.71112,3533.5934,2504.79752Z"/><path fill="#01423e" d="M3428.837,2397.58512c-5.1447,41.4806-45.5651,80.9032-86.1206,101.9397-117.582,60.96838-386.6286,86.65079-518.4705,99.36209-352.0285,33.9556-606.6802,63.3381-1156.0091,24.4559-23.3334-1.6525-298.7825-43.72561-320.0997-53.3292-25.0589-11.2769-124.691-49.06769-146.9229-65.21929-33.311-24.2169-107.8224-17.2013-140.2085-42.6342a90.39865,90.39865,0,0,1-25.5682-33.0722c151.8599-106.9078,642.7252-185.1918,1224.8142-185.1918C2783.4721,2243.89612,3232.9816,2307.15112,3428.837,2397.58512Z"/><path fill="#00b294" d="M3467.2276,2019.8874q174.8409-155.9436,349.6817-311.8872c49.7228-44.3489,101.1988-91.1827,124.8774-153.4603s9.3015-144.4935-49.2733-176.2449c-18.3684-9.9567-39.3645-14.183-60.2116-15.5716-103.9424-6.9239-202.8394,55.0619-267.3234,136.8775s-100.6956,181.7725-135.9407,279.8019c-35.2453,98.0293-71.6099,197.9552-136.3246,279.5885-10.3216,13.0199-21.8964,25.9323-37.2598,32.2583-15.3634,6.3258-35.4334,4.1035-45.3379-9.2363-5.9861-8.0621-7.3544-18.6126-7.5557-28.6521-1.0615-52.8999,24.4347-102.5303,52.6528-147.2881,66.7389-105.8568,152.3555-199.3743,213.2251-308.7115,19.2143-34.5138,36.2308-72.0387,35.7643-111.5378s-22.8719-81.1313-60.6542-92.6592c-40.921-12.4855-83.8958,12.9416-114.0696,43.2725-63.4949,63.825-97.3543,150.9424-123.4284,237.1129q-22.14975,73.2006-38.4445,148.0051c-1.5761,7.2368-3.4835,15.0987-9.3391,19.634-10.1362,7.8505-26.1324-.009-31.1053-11.8261s-2.297-25.3048.5951-37.795c12.379-53.4578,52.319-150.8921,44.5002-205.2044s-35.1826-87.454-77.4018-78.407l-51.7198-.7136c-56.9985,32.5751-71.1791,106.9774-79.4555,172.1039q-16.7514,131.8179-33.5028,263.6354c-4.968,39.0949-9.9465,78.3969-8.5349,117.7808,2.8098,78.39893,30.7046,153.50582,59.7255,226.38962,18.5015,46.4646,38.3872,93.9167,73.2458,129.7794,56.207,57.82608,149.6161,75.5819,223.1199,42.4122,39.4872-17.8192,71.877-47.9473,107.7804-72.1894,138.2336-93.33572,328.2089-99.6061,447.5118-216.169,33.5113-32.74172,59.798-86.71262,32.0783-124.48382-24.4593-33.3286-75.3911-31.3017-114.0538-16.6644-86.1793,32.6267-148.9585,106.9339-226.6492,156.48742-17.7275,11.30708-42.9646,20.6453-57.8821,5.8268,9.4575-29.6108,39.1798-46.80772,61.8805-68.04262s39.0616-59.0829,17.8584-81.8131c-46.8264-4.1592-80.9592,42.3741-101.88,84.4731-21.6191,43.50432-47.4378,94.44432-96.728,100.28862a18.98772,18.98772,0,0,1-12.1364-2.3962c-7.5855-4.6143-6.6079-11.87752-5.2107-18.3294C3346.9132,2129.6305,3408.6594,2072.1257,3467.2276,2019.8874Z"/><path fill="#006f5d" d="M3361.2905,2365.08092c20.9703-26.67172,54.2815-39.8395,85.8193-52.3496q81.0045-32.13225,160.2596-68.4606c45.1632-20.7023,91.1069-43.3278,124.1778-80.4037,6.6007-7.3999,12.6284-19.01682,5.9802-26.37409-3.5742-3.95543-9.4406-4.69783-14.7702-4.821-62.8444-1.4528-114.4683,45.57492-167.6728,79.05352-73.3791,46.1735-158.97,69.2091-244.4365,83.768-16.3414,2.7837-35.4885,4.4496-47.1872-7.2947-17.5805-17.6491-3.3815-47.2302,11.2337-67.4034q65.6328-90.5925,131.2656-181.18512c21.9383-30.2813,43.8917-60.5824,67.5374-89.5501,22.209-27.2078,45.8706-53.19,69.5188-79.1567q103.04565-113.1483,206.0913-226.2967c28.6303-31.4373,58.3322-64.8743,67.6283-106.3662,2.6454-11.8076,2.8704-25.8711-6.0006-34.1005-5.1207-4.7504-12.2908-6.5296-19.2043-7.5257-46.4938-6.6983-93.4668,14.8965-128.1532,46.5729s-59.2362,72.6533-83.4144,112.9267q-109.14045,181.79415-221.8287,361.4265c-25.4279,40.5336-51.5764,81.6664-88.1453,112.5254a235.55507,235.55507,0,0,1-105.8862,50.83552c-26.1497,5.1452-56.5168,4.55688-75.3725-14.2776-9.0824-9.0722-14.2582-21.24739-18.9755-33.18642-7.4875-18.9497-14.4762-38.8955-12.7749-59.1996,1.6754-19.9946,11.5993-38.2455,21.5876-55.6473a1859.40949,1859.40949,0,0,1,245.5383-334.6284c33.0332-35.8171,69.6737-75.3862,70.4337-124.1045.0787-5.0471-.325-10.3578-3.0578-14.6018-7.0171-10.8977-23.7055-8.2434-35.3133-2.4764-45.4131,22.5624-72.7111,70.0288-91.8779,116.976s-33.4367,96.9973-64.1647,137.3358c-16.6079,21.8021-37.4469,39.9426-57.9078,58.1774-52.8897,47.1351-105.07,96.9865-139.8552,158.7039s-50.3682,137.69742-26.2773,204.3208c18.7804,51.93742,60.3715,93.92412,109.4962,119.16232s105.2959,34.6696,160.5153,33.659c38.3771-.7024,76.4823-6.2605,114.7486-9.25732"/><path fill="#09a88c" d="M1611.1808,1820.2481c-2.3802-140.1554-37.1767-282.4888-117.5795-397.3126-8.2788-11.8229-17.4691-23.7178-30.3295-30.2696-26.8232-13.6652-61.3759,1.5976-78.1623,26.5865-16.7865,24.9886-19.7056,56.652-19.5653,86.7552a535.45525,535.45525,0,0,0,29.8911,173.7207c17.0145,48.6981,41.521,97.9526,34.8261,149.1012-.7305,5.581-1.9515,11.3723-5.5403,15.7086-6.5518,7.9163-18.9801,8.2802-28.4124,4.203-19.9068-8.6047-29.2861-31.1154-35.9531-51.7519a844.1661,844.1661,0,0,1-36.3337-172.1891c-2.761-26.5948-4.2865-53.4945-11.1278-79.3421-9.7671-36.8997-29.9208-70.0617-49.893-102.5901-21.8619-35.6059-49.1924-74.7935-90.6338-80.1179-36.6305-4.7062-72.2393,21.136-88.2957,54.395-16.0564,33.2588-15.9161,72.0985-10.3831,108.6133,28.4594,187.8132,187.3445,346.0939,178.661,535.8524-1.0462,22.8634-12.4128,52.2553-35.1697,49.816-13.6593-1.4641-22.7336-14.4446-29.6041-26.3406a783.99846,783.99846,0,0,1-38.8067-76.601c-13.0751-29.7476-26.1315-62.5116-54.1478-78.9722-21.2702-12.4971-45.658-23.97-70.3266-24.1951-29.2998-.2672-66.5324,14.138-78.9572,40.6741-5.9925,12.7985-4.5155,27.8145-1.2576,41.5656,13.1289,55.4156,51.7027,100.7436,89.0466,143.7399q49.15425,56.5947,98.3086,113.18952c7.4764,8.6081,15.1731,17.6185,18.1648,28.6205s-.2324,24.58878-10.3067,29.9277c-7.7363,4.0997-17.2219,2.4209-25.5345-.3288-37.9163-12.5428-66.0295-43.6945-96.6059-69.3862-30.5762-25.6918-70.6156-47.64892-108.963-36.49292-10.9302,3.17982-21.4836,9.38492-27.2495,19.2-12.049,20.51052.8036,46.42152,15.1561,65.39182a386.513,386.513,0,0,0,189.5823,134.092c81.154,25.8274,175.9091,27.3624,237.6252,85.4476,60.8927-1.9953,116.7274-40.993,152.4996-90.7462,37.1918-51.7277,56.2034-114.0447,72.8478-175.54222C1585.2726,2099.363,1613.5609,1960.4034,1611.1808,1820.2481Z"/><path fill="#009245" d="M1316.0322,2501.02682l9.7266,2.2806c-.8112-.795-1.6318-1.5741-2.455-2.3488C1320.8874,2501.03772,1318.4638,2501.06582,1316.0322,2501.02682Z"/><path fill="#006f5d" d="M1348.3902,2502.23442a689.09456,689.09456,0,0,1-282.1195-82.8784c-23.3304-12.793-46.6257-27.6769-63.5308-47.8253-7.3451-8.7542,3.4275-21.082,13.0603-14.9344q.11955.07632.238.1528a415.82446,415.82446,0,0,0,184.6688,64.1356c16.6972,1.6056,36.2215,1.0258,46.588-12.1617,14.6085-18.5839-.0673-45.2087-14.5227-63.91182q-61.09215-79.04367-122.1842-158.08738c-25.4535-32.9329-52.4035-71.38282-43.7512-112.555a13.81007,13.81007,0,0,1,1.5633-4.1625c4.8054-8.179,13.9337-5.1996,20.6305-1.5252,40.9827,22.4863,68.0781,63.7438,88.8962,105.59862s37.3239,86.342,65.0764,123.9586c10.875,14.7403,27.7674,29.6432,45.2973,24.3286,18.8625-5.7185,23.6225-29.8604,24.35-49.5573,5.1176-138.56232-24.4224-275.79972-53.799-411.30882-6.1586-28.4082-12.3452-56.9154-22.217-84.2559-8.5679-23.7292-19.8501-46.4031-28.515-70.097a340.33109,340.33109,0,0,1-19.4579-88.0125c-1.0143-11.9649-1.0086-25.2001,6.6547-34.4446,10.2586-12.3751,30.5815-11.7038,43.8426-2.6195s20.9563,24.1693,27.3292,38.9263c60.8955,141.0098,48.9084,304.5086,105.4376,447.3249,7.4046,18.7071,16.2082,37.3382,30.1846,51.8103s34.0029,24.32633,53.9631,21.802c23.1578-2.92863,41.7894-21.96623,50.6242-43.57183s9.5623-45.5679,9.4705-68.9099a1174.82739,1174.82739,0,0,0-61.8679-371.2197c-5.3785-15.8912-9.4764-37.087,4.5116-46.3496,11.7535-7.7829,27.6393-.4132,38.2613,8.8546,46.8907,40.9123,53.4034,110.2031,56.6112,172.3502q4.17585,80.8992,8.3516,161.7984c5.5705,107.9199,11.103,216.70562-4.9163,323.5752-8.4868,56.61832-24.2002,114.65652-62.1965,157.48092-37.9291,42.7486-96.8272,65.9394-153.7197,60.5264"/><path fill="#0281ca" d="M3110.2964,1531.9399v113.7154a61.28812,61.28812,0,0,1-61.2906,61.2906H1869.2162a61.28609,61.28609,0,0,1-61.2802-61.2906V1531.9399a61.28609,61.28609,0,0,1,61.2802-61.2906H3049.0058A61.28812,61.28812,0,0,1,3110.2964,1531.9399Z"/><rect width="24.25" height="236.292" x="2997.832" y="1470.649" fill="#006ea5"/><rect width="24.248" height="236.297" x="2893.903" y="1470.649" fill="#22af7c"/><path fill="#006ea5" d="M2015.7903,1496.8935h137.2579a23.2681,23.2681,0,0,1,23.2681,23.2681v137.2678a23.268,23.268,0,0,1-23.268,23.268H2015.7902a23.268,23.268,0,0,1-23.268-23.268V1520.1616A23.2681,23.2681,0,0,1,2015.7903,1496.8935Z"/><path fill="#0aa3ef" d="M3110.2982,1706.9416H1868.3401a60.40913,60.40913,0,0,1-60.4091-60.4091v-85.0258H3110.2982Z"/><path fill="#0a96c1" d="M2308.1763,1470.6492s109.7245,102.8543,114.0897,236.2968h490.7406c1.5902-6.5168,3.3467-14.0313,5.1448-22.3045,13.179-60.4488,28.7796-161.1932,0-208.6916a63.845,63.845,0,0,0-3.5754-5.3007Z"/><path fill="#d63344" d="M2974.266,1733.7645h125.6903c15.164,0,27.4568-7.5431,27.4568-16.8478v-4.7223c0-9.3048-12.2928-16.8478-27.4568-16.8478H1627.8943c-15.164,0-27.4568,7.543-27.4568,16.8478v162.06c0,9.3047,12.2928,16.8478,27.4568,16.8478h1472.062c15.164,0,27.4568-7.5431,27.4568-16.8478v-.0001c0-9.3047-12.2928-16.8478-27.4568-16.8478H2974.266c-15.164,0-27.4568-7.543-27.4568-16.8477v-89.9466C2946.8092,1741.3075,2959.102,1733.7645,2974.266,1733.7645Z"/><path fill="#f9f9f9" d="M3087.7011,1734.577s-61.2957,57.7698,6.9968,122.8295H1684.3016l-1.4497-131.3205Z"/><g clip-path="url(#b)"><rect width="1407.523" height="5.356" x="1677.287" y="1741.352" fill="#d0d1d1"/><rect width="1407.523" height="5.354" x="1677.287" y="1752.062" fill="#d0d1d1"/><rect width="1407.523" height="5.362" x="1677.287" y="1768.126" fill="#d0d1d1"/><rect width="1407.523" height="5.356" x="1677.287" y="1784.195" fill="#d0d1d1"/><rect width="1407.523" height="5.354" x="1677.287" y="1794.905" fill="#d0d1d1"/><rect width="1407.523" height="5.354" x="1677.287" y="1805.615" fill="#d0d1d1"/><rect width="1407.523" height="5.356" x="1677.287" y="1821.681" fill="#d0d1d1"/><rect width="1407.523" height="5.351" x="1677.287" y="1837.748" fill="#d0d1d1"/></g><path fill="#503e70" d="M1470.066,2159.6142H3146.2865c26.9967,0,48.8818-16.296,48.8818-36.398V1919.0638c0-20.1021-21.8851-36.398-48.8818-36.398H1470.066c-26.9967,0-48.8818,16.2959-48.8818,36.398v204.1524C1421.1842,2143.3182,1443.0693,2159.6142,1470.066,2159.6142Z"/><rect width="1773.984" height="138.474" x="1421.184" y="2021.14" fill="#634c84"/><path d="M2677.6366,2101.4955h362.0413c26.0214,0,47.1159-15.7072,47.1159-35.0831v-81.6012c0-19.3758-21.0945-35.0831-47.1159-35.0831H2677.6366c-26.0214,0-47.1159,15.7073-47.1159,35.0831v81.6012C2630.5207,2085.7883,2651.6152,2101.4955,2677.6366,2101.4955Z" style="mix-blend-mode:soft-light" fill="#bf8bc9"/><path fill="#f9f9f9" d="M1314.1558,2225.50582s85.2436,107.7822-9.7545,229.1775H3266.6464l9.7544-245.0956Z"/><g clip-path="url(#c)"><rect width="1958.228" height="9.989" x="1318.173" y="2238.142" fill="#d0d1d1"/><rect width="1958.228" height="9.995" x="1318.173" y="2258.121" fill="#d0d1d1"/><rect width="1958.228" height="9.989" x="1318.173" y="2288.105" fill="#d0d1d1"/><rect width="1958.228" height="9.995" x="1318.173" y="2318.077" fill="#d0d1d1"/><rect width="1958.228" height="9.995" x="1318.173" y="2338.061" fill="#d0d1d1"/><rect width="1958.228" height="10.005" x="1318.173" y="2358.045" fill="#d0d1d1"/><rect width="1958.228" height="9.989" x="1318.173" y="2388.023" fill="#d0d1d1"/><rect width="1958.228" height="9.979" x="1318.173" y="2418.017" fill="#d0d1d1"/></g><path fill="#a6a53b" d="M3250.189,2311.07812v-32.4983c0-57.7467-72.0571-53.074-72.0571-53.074H1293.6034c-10.3643,0-18.7662-5.4603-18.7662-12.196v-41.9407c0-6.7357,8.4019-12.196,18.7662-12.196h1904.167c40.3822,0,68.3973,7.5783,87.8978,18.5752v-.0162s.0981.0475.1214.0637c1.6969.9495,3.2958,1.9411,4.8531,2.938.1794.1156.349.2215.5119.3262.8526.5596,1.7684,1.118,2.5961,1.6829,36.3817,23.8809,177.1585,132.1438,15.0712,285.1732-17.7969,19.9622-50.6801,36.8762-111.0515,36.8762H1293.6034c-10.3643,0-18.7662-5.4604-18.7662-12.19612v-41.946c0-6.73568,8.4019-12.19608,18.7662-12.19608H3178.1319s72.0571,4.663,72.0571-53.074v-74.302Z"/><path fill="#ffe09c" d="M2788.9476,1936.6805s48.2567,40.3333,50.1327,47.8526-72.8944-15.3899-73.9955-28.0657,11.2469-21.394,11.2469-21.394S2786.824,1928.4683,2788.9476,1936.6805Z"/><path fill="#fff2bb" d="M2770.2806,1958.6743s87.4389,35.234,83.6032,46.0644-104.4679,3.1589-103.791-15.1174-.0034-29.5579-.0034-29.5579S2768.582,1952.9981,2770.2806,1958.6743Z"/><path fill="#4f2f3e" d="M2808.0319,1894.653c-11.6821,26.0046-19.0824,42.0313-19.0824,42.0313-11.0172,5.5086-12.8569,0-12.8569,0l58.7754-393.0413c-106.5336-4.594-154.1359-26.8466-155.1961-29.3825-34.4024-81.797-18.8849-117.0312,13.47-129.1811,52.2797-19.6437,148.5027,20.9533,149.064,22.6579.9251,2.7542,92.7518,40.3996,112.9568,82.6493C2971.3454,1524.2174,2855.0108,1790.0941,2808.0319,1894.653Z"/><path fill="#6d3f4c" d="M2808.0319,1894.653l57.4866-384.4148c-106.5232-4.594-147.4041-40.5743-149.4267-42.4414-16.4432-15.1783-28.4065-62.0135-22.9499-82.7174,52.2797-19.6437,148.5027,20.9533,149.064,22.6579.9251,2.7542,92.7518,40.3996,112.9568,82.6493C2971.3454,1524.2174,2855.0108,1790.0941,2808.0319,1894.653Z"/><path fill="#4f2f3e" d="M2770.397,1959.7787c-5.7997,4.0432-19.7269,3.2221-19.7269,3.2221l-148.4193-398.8722c-229.9153,18.5005-256.2627-86.3287-256.2627-86.3287q11.19375-8.5434,22.19-16.1307c195.18-134.8975,343.4539-53.9319,343.4539-53.9319l55.5328,521.6404Z"/><path fill="#6d3f4c" d="M2767.1648,1929.3777c-1.7981,0-2.9727-.0727-2.9727-.0727l-148.4195-398.8721c-169.5182,13.6361-228.3665-39.7657-247.5945-68.7637,195.18-134.8975,343.4539-53.9319,343.4539-53.9319Z"/><path fill="#d63344" d="M2675.0468,1377.253c-18.8225,28.4368-45.9081,45.5757-84.728,39.5578-146.3408-22.6891-233.1889,68.0672-233.1889,68.0672s-48.1637,7.9406-37.9468-48.7768c10.2063-56.7279-12.4826-30.6298-17.0247-225.7681C2297.627,1015.205,2431.7138,929.5,2431.7138,929.5l70.8422,27.4183,76.486,29.5903c111.5951,28.2391,137.1321,146.5486,137.1321,146.5486S2727.2431,1298.4909,2675.0468,1377.253Z"/><path fill="#b52439" d="M2675.0468,1377.253c-18.8225,28.4368-45.9081,45.5757-84.728,39.5578-146.3408-22.6891-233.1889,68.0672-233.1889,68.0672s-48.1637,7.9406-37.9468-48.7768c10.2063-56.7279-12.4826-30.6298-17.0247-225.7681C2297.627,1015.205,2431.7138,929.5,2431.7138,929.5l53.4181,29.9534c-50.2526,90.4653-77.1403,250.8537,36.2011,342.0881C2648.3418,1403.7619,2647.0259,1358.8669,2675.0468,1377.253Z"/><path fill="#e46545" d="M2605.3567,994.1262s-27.4662,43.1469-122.3523,4.2152c-23.3241-9.5698-63.7915-48.456-51.2902-68.8426s20.6715-37.008,20.6715-37.008S2565.6176,853.5109,2605.3567,994.1262Z"/><path fill="#ffb882" d="M2605.3582,994.1271c-16.1516,8.481-30.3904,11.6823-42.9458,11.1106-64.3881-3.0038-84.4578-105.7436-90.6731-108.8513-7.4211-3.7106-74.2307-1.2368-56.9045-70.5202,14.8003-59.2222,212.2772-103.9976,269.2544-58.5051,9.666,7.7017,15.2888,18.012,15.2888,31.295C2699.378,798.6561,2704.3256,942.1699,2605.3582,994.1271Z"/><path fill="#ffcfae" d="M2605.3582,994.1271c-16.1516,8.481-30.3904,11.6823-42.9458,11.1106,135.4172-39.1315,128.6716-185.6284,121.6768-237.8766,9.666,7.7017,15.2888,18.012,15.2888,31.295C2699.378,798.6561,2704.3256,942.1699,2605.3582,994.1271Z"/><circle cx="2461.952" cy="854.684" r="14.295" fill="#e46545" transform="rotate(-76.717 2461.953 854.684)"/><path fill="#794839" d="M2730.4756,787.7221s-85.0917,22.9698-96.1505-15.3201c0,0-17.0143,28.0833-62.964,16.1724,0,0-2.5568,33.1865-57.0084,27.2206,0,0-7.6601,18.7291-33.1864,11.069-25.5266-7.6599-41.6885-14.4677-51.0531,28.0729-9.3646,42.5513,57.8606,32.3344,57.8606,32.3344s-24.7571,34.8911-58.7546,17.0244c-28.2287-14.8417-48.2674-30.8479-43.0395-55.8339a58.23259,58.23259,0,0,1,6.496-16.4944s-70.6239-33.1867-12.7633-93.5938c0,0-7.6599-81.6931,70.624-74.033,0,0,43.3929-81.6828,115.7215-28.9252,0,0,46.7917-38.2899,77.4318,11.9109,22.8137,37.3855,66.872,12.9399,82.5973,28.6238,5.3837,5.363,7.4419,15.4449,4.1886,34.3402C2730.4756,710.2903,2797.7008,716.2458,2730.4756,787.7221Z"/><path fill="#5f3529" d="M2726.287,675.9501a51.97527,51.97527,0,0,1-6.3402,11.8797c-7.2547,10.1753-17.6583,17.7418-28.738,23.5207-33.6439,17.5753-73.5654,19.6124-111.0858,13.8752-12.3165-1.8706-26.2335-4.1676-36.1175,3.4094-4.2719,3.2738-7.1405,8.0029-10.3314,12.3473-8.8865,12.0774-21.4521,22.003-36.1175,25.0899-15.216,3.2013-31.0453-1.1223-46.5315.291-15.4865,1.4033-32.667,12.7321-30.8274,28.177.4781,4.0325,2.2345,7.8263,2.8374,11.8381,1.185,7.9616-2.3385,15.9646-7.1922,22.3877a55.85534,55.85534,0,0,1-29.6632,19.6957,58.23259,58.23259,0,0,1,6.496-16.4944s-70.6239-33.1867-12.7633-93.5938c0,0-7.6599-81.6931,70.624-74.033,0,0,43.3929-81.6828,115.7215-28.9252,0,0,46.7917-38.2899,77.4318,11.9109C2666.5034,684.7118,2710.5617,660.2662,2726.287,675.9501Z"/><path fill="#b52439" d="M2637.7436,1062.9901s19.9812,31.3699,26.5006,89.0332l-12.8931,22.2995S2654.8926,1142.8551,2637.7436,1062.9901Z"/><path fill="#c62c43" d="M2582.9705,1397.6036c-3.8559,8.2524-14.1662,17.856-41.4804,15.5799-43.9748-3.669-225.7265-123.579-213.5557-299.6869,1.6111-23.2502,10.6326-45.4925,26.5139-62.5482,9.375-10.0608,21.0885-18.2927,34.1428-17.8768,5.8723.1766,12.0147,2.1099,18.3445,6.4127,13.3037,9.0632,20.6312,24.6222,19.9347,40.7116-2.2241,50.8555,5.0513,203.7233,158.3662,306.6192A23.28814,23.28814,0,0,1,2582.9705,1397.6036Z"/><path fill="#d63344" d="M2582.9705,1397.6036a90.39518,90.39518,0,0,1-9.2397-.3327c-43.9748-3.6689-225.7264-123.5684-213.5557-299.6763,1.6111-23.2503,10.6326-45.5028,26.5243-62.5483.6237-.6651,1.2576-1.3304,1.8917-1.9747,5.8723.1766,12.0147,2.1099,18.3445,6.4127,13.3037,9.0632,20.6312,24.6222,19.9347,40.7116-2.2241,50.8555,5.0513,203.7233,158.3662,306.6192A23.28814,23.28814,0,0,1,2582.9705,1397.6036Z"/><polygon fill="#d6b887" points="2992.777 1118.652 2929.065 1398.456 2571.714 1398.456 2635.427 1118.652 2992.777 1118.652"/><polygon fill="#efe1c7" points="2992.777 1118.652 2929.065 1398.456 2585.257 1398.456 2648.969 1118.652 2992.777 1118.652"/><path fill="#f8f1e1" d="M2992.7769,1118.6518l-63.7122,279.804h-51.0115c1.0185-148.856-120.5753-241.3375-185.5556-279.804Z"/><path fill="#e3aa51" d="M2490.0291,1398.4608H2916.19a13.2062,13.2062,0,0,1,13.2062,13.2062v2.4011a13.2063,13.2063,0,0,1-13.2063,13.2063H2490.0292a13.2063,13.2063,0,0,1-13.2063-13.2063v-2.4011a13.2062,13.2062,0,0,1,13.2062-13.2062Z"/><path d="M2592.2231,861.1995c-1.4918,9.5638-7.6577,16.5437-13.772,15.59s-9.8616-9.4799-8.3698-19.0437,7.6577-16.5437,13.772-15.59S2593.7149,851.6357,2592.2231,861.1995Z"/><path d="M2682.0302,875.2078c-1.4918,9.5638-7.6577,16.5437-13.772,15.59s-9.8616-9.4799-8.3698-19.0437,7.6577-16.5437,13.772-15.5899S2683.522,865.644,2682.0302,875.2078Z"/><path fill="#e46545" d="M2642.3767,868.8798s-13.3378,47.8793-4.4459,59.1651c0,0-11.9699,4.7879-18.8098,3.078,0,0,11.9699,9.2879,26.6757.369C2645.7967,931.4919,2637.2468,909.9192,2642.3767,868.8798Z"/><path fill="#e46545" d="M2595.0723,963.7479s-42.1748-13.7313-48.5501-39.7228c0,0-.4904,29.9147,43.6461,43.1557Z"/><path fill="#e46545" d="M2555.6992,953.2664s5.9672,11.5526,15.0979,13.9144C2570.7971,967.1808,2556.5746,970.0943,2555.6992,953.2664Z"/><path fill="#e46545" d="M2573.01877,813.38561h32.83851a7.77509,7.77509,0,0,1,7.77509,7.77509v1.41369a7.77521,7.77521,0,0,1-7.77521,7.77521H2573.0197a7.77562,7.77562,0,0,1-7.77562-7.77562V821.1603a7.77469,7.77469,0,0,1,7.77469-7.77469Z" transform="rotate(8.866 2589.439 821.868)"/><path fill="#e46545" d="M2668.86617,831.90691h24.17472a7.77484,7.77484,0,0,1,7.77484,7.77484v1.41372a7.77541,7.77541,0,0,1-7.77541,7.77541h-24.1744a7.77517,7.77517,0,0,1-7.77517-7.77517v-1.4134a7.77541,7.77541,0,0,1,7.77541-7.77541Z" transform="rotate(24.117 2680.954 840.39)"/></g></svg>