<svg xmlns="http://www.w3.org/2000/svg" enable-background="new 0 0 650 700" viewBox="0 0 650 700"><path fill="#2ed5b8" d="M551.3,600.2l-398.3,0c-30,0-30-82.1,0-82.1l398.3,0V600.2z"/><path fill="#0dc2a2" d="M424.9,532.8c-36.3,2.6-75,2.1-124.9,2.2c-3.5,0,15.1,0-49.3-0.1l-12.3,0                c-6.8,0-54.2,0.1-77.3,0.8l0.9-0.2c-3.5,1.8-6.7,4.4-9.1,7.7c-7.2,9.7-8.6,24.3-7.9,36.3c-0.7-4.2-1.2-8.5-1.2-12.9                c-0.1-8.7,1.5-18.1,6.3-25.4c4.3-6.6,10.1-9.5,10.3-9.6c0.1,0,39.3-2.6,90.4-2.5c3.5,0.1-15.1-0.3,49.3,0.9                C348.7,530.8,354.9,529.3,424.9,532.8z"/><path fill="#dcebff" d="M551.3,525.8v66.7h-83.6c-11.5,2.2-27.6-63.5-3.7-66.7H551.3z"/><path fill="#a9d1ff" d="M538.3,525.8l-42.2,4.6c-28.9,3.1-45.4,35.5-29.9,60c0.4,0.7,0.9,1.4,1.4,2.1                c-11.5,2.2-27.6-63.5-3.7-66.7H538.3z"/><path fill="#a9d1ff" d="M530.7,543.9c0,0-4.7,1.1-14.5,1.9c-8.3,0.6-16.6,0.7-24.9,0.1c-9.8-0.8-14.5-1.8-14.5-1.8                 c8.1-0.3,14.7-0.7,14.7-0.7l24.6-0.1C516,543.3,522.9,543.6,530.7,543.9z"/><path fill="#a9d1ff" d="M520.7,574.3c0,0-4.7,1.1-14.5,1.9c-8.3,0.6-16.6,0.7-24.9,0.1c-9.8-0.8-14.5-1.8-14.5-1.8                 c8.1-0.3,14.7-0.7,14.7-0.7l24.6-0.1C506,573.7,512.9,574,520.7,574.3z"/><path fill="#a9d1ff" d="M538.3,560.1c0,0-3.6,1.1-10.9,1.9c-6.2,0.6-12.5,0.7-18.7,0.1c-7.3-0.8-10.9-1.8-10.9-1.8                 c6.1-0.3,11-0.7,11-0.7l18.4-0.1C527.3,559.6,532.5,559.9,538.3,560.1z"/><path fill="#fb6a69" d="M452.9,518.1l-331.6,0c-30,0-30-105.5,0-105.5l331.6,0V518.1z"/><path fill="#dc4343" d="M158.6,419.2c-4.5,0.7-8.9,1.1-13.4,1.5l-13.2,0.9c-3.5,0.4-6.4,3.1-8.6,6.4                c-9.4,14.9-10.5,45.7-9.3,63.5c-8.3-23.1-4.7-53.5,4.6-66.7c3.2-4.4,7.5-7.8,12.9-7.9c13.7,0.7,7.4,0.4,13.5,0.8                C149.7,418.1,154.2,418.5,158.6,419.2z"/><path fill="#dcebff" d="M452.9,422.5v85.7H174.7c-11.5,2.9-27.6-81.7-3.7-85.7H452.9z"/><path fill="#a9d1ff" d="M447,485.2c0,0-6.9,1-21.2,1.8c-12.1,0.6-24.2,0.6-36.3,0.1c-14.3-0.8-21.2-1.7-21.2-1.7                 c11.9-0.3,21.4-0.6,21.4-0.6l35.8-0.1C425.5,484.7,435.7,485,447,485.2z"/><path fill="#a9d1ff" d="M439.9,422.5c0,0-8.1,8.3-30.9,11.8l-206.2,9.4c-28.9,4-44.9,30.3-29.4,61.9                c0.4,0.9,0.9,1.8,1.4,2.7c-11.5,2.9-27.6-81.7-3.7-85.7H439.9z"/><path fill="#a9d1ff" d="M320.4,457.1c0,0-8.1,1.4-24.6,2.5c-14.1,0.8-28.2,0.9-42.2,0.1c-16.6-1-24.6-2.4-24.6-2.4                 c5-0.1-7.2,0.6,24.9-0.8l41.6-0.1C333.6,457.9,306.9,456.8,320.4,457.1z"/><path fill="#a9d1ff" d="M242.6,479.3c0,0-4.7,1.4-14.5,2.5c-8.3,0.8-16.6,0.9-24.9,0.1c-9.8-1-14.5-2.4-14.5-2.4                 c8.2-0.4,14.7-0.9,14.7-0.9l24.6-0.1C227.9,478.6,234.9,479,242.6,479.3z"/><path fill="#a9d1ff" d="M376.2,461c0,0-3.6,1.4-10.9,2.5c-6.2,0.8-12.5,0.9-18.7,0.1c-7.3-1-10.9-2.4-10.9-2.4                 c6.1-0.4-5.7,0.8,11-0.9l18.4-0.1C381.8,461.7,370.3,460.7,376.2,461z"/><path fill="#ffc5b2" d="M363.8,541.3l5.9-18.7c0,0-27.8-9.9-27.8-9.5s-6,28.3-6,28.3l-1.3,15.8l13.8,4.4               c0,0,11.6-7.3,11.6-7.4S363.8,541.3,363.8,541.3z"/><path fill="#394084" d="M384,544.9l-49.8-23.3l-8.8-4.1l24.3-95.1l4-15.9l-105.2-78.7l21.1,3.4               c1.7,0.9,128,26.3,138.4,55.5C422.1,426,384,544.9,384,544.9z"/><polygon fill="#211624" points="355.9 418.9 334.2 521.6 325.4 517.5 349.7 422.4"/><path fill="#ffc5b2" d="M261.7,533.7l11.1-16.1c0,0-23.7-17.6-23.8-17.3c-0.1,0.3-14.1,25.3-14.1,25.3l-5.9,14.7l11.9,8.3              c0,0,13.2-3.6,13.3-3.7C254.2,544.9,261.7,533.7,261.7,533.7z"/><path fill="#231826" d="M260.8,563.4c4.2-3.2,9.9-4.7,13.1-4.3c4.4,0.5,4.9,5.3,1.2,7.4c-2.8,1.6-8.6,2.9-13.7,2.4               c1.5-0.1,3.1-0.2,4.6-0.4c2.4-0.4,6.6-1.4,8.6-2.7c3.1-2,2.4-5.3-0.8-5.7c-2.4-0.4-6.4,0.5-8.8,1.4               C263.5,561.9,262.2,562.6,260.8,563.4z"/><path fill="#231826" d="M259.6,560.4c0.9-2.6,2.3-5,4.1-7c0.8-1,2.1-2.2,3.1-2.8c3.2-2.1,6.7,0.5,5,4.3               c-0.8,1.8-4.4,6.3-8.3,9.1c1.9-1.9,3.7-3.9,5.3-6.1c0.8-1.1,1.6-2.2,2.1-3.3c1.2-2.8-0.9-4.6-3.6-3.1               c-1.1,0.6-2.1,1.6-3,2.5C262.5,555.7,260.9,558,259.6,560.4z"/><path fill="#3b93fe" d="M275.8,594.7l-3.6,4.1l-59.8-45.9l3.6-6.6l0,0c0,0,10.6-18.2,18.8-20.7c0,0,2.9,9.1,18.5,14.9               c0,0,4.4-6.9,8.2-6.8c0,0-1.7,4.1-1.9,10.3c-0.3,8.8,2.2,21.9,16.7,33.5C276.4,577.5,286.6,589.8,275.8,594.7z"/><polygon fill="#231826" points="275.9 594.8 272.3 598.8 212.5 553 216.2 546.4"/><path fill="#0f57d7" d="M276.4,577.5c0,0-2.6,4.7-11.7-4.8c-8.8-9.2-19-24.5-5-28.7C259.4,552.8,262,565.9,276.4,577.5z"/><path fill="#394084" d="M197.6,358.4c0.1,0.8-1.9-10.9-1.1,2.6c1.3,22.4,6.9,46,28.6,51.7l58,12.4c0,0-54.6,84-54,85.3              c0.6,1.2,52.8,33.6,52.8,33.6s86.2-104,79.1-142.7c-5.8-31.7-110.1-64.3-110.1-64.3L197.6,358.4z"/><path fill="#fff" d="M240.4,506.7l-0.8-0.5c3.2-5.1,7.5-11.6,12.9-19.9l0.8,0.6C247.8,495.1,243.6,501.6,240.4,506.7z"/><path fill="#fff" d="M253.3,486.8l-0.8-0.6c5.7-8.7,12.2-18.4,18.5-27.9c11.5-17.3,23.3-35.1,31-47.1l-44.7-5.2              c-11.9-1.4-25.3-2.9-35.8-10.5c-11.4-8.1-27.4-31.3-15.6-66.8l0.9,0.3c-11.7,34.9,4.1,57.7,15.2,65.6              c10.3,7.4,23.6,8.9,35.4,10.3l46.3,5.4c-1.9,2.9-2.7,4.6-31.9,48.5C265.5,468.3,259,478.1,253.3,486.8z"/><path fill="#fff" d="M219,393.8l-0.8-0.6c4.7-6.7,7.4-12.9,8.3-18.9c1-7.4-1-14.6-5.5-19.2c-5-5.2-13-6.6-18.7-3.2              l-0.5-0.9c6-3.6,14.6-2.1,19.9,3.4c4.7,4.8,6.8,12.3,5.8,20C226.6,380.6,223.8,387,219,393.8z"/><path fill="#211624" d="M361.6,401.3c-2.5-9.6-13.1-17.8-21.4-23.4c-13-8.6-28.8-16.3-43.2-22.6              c-7.1-3.2-19.8-8.5-30.1-12.5c-2.5-1-5.1-2-7.6-3l-3.8-1.4c-1.3-0.5-2.5-1-3.9-1.3c2.7,0.5,5.3,1.3,8,2              c2.6,0.7,5.2,1.5,7.9,2.4c11.9,3.8,20.8,7.2,30.8,11.3c14.6,6.2,30.6,14,43.4,23.3C349.7,381.9,360.2,391.2,361.6,401.3              z"/><path fill="#ffc5b2" d="M294.2,264.4l17.9,41.9c5.5,12.9,21.6,17.2,32.7,8.8l59.3-50.4l-17.4-25.4l-45.8,26l-12-21              L294.2,264.4z"/><path fill="#3b93fe" d="M313.7,214.8l-0.9,126.3L195,360l-2.2-46.3l3-88.6c0.5-15.5,13.1-27.8,28.6-27.9              c72.1-0.7,53.6-0.5,56.7-0.6l4,0l11.4-0.1C306.5,196.4,314.4,204.8,313.7,214.8z"/><path fill="#dcebff" d="M281.3,200.1c0,12.7-7.5,26.6-20.2,26.6c-12.7,0-25.9-13.9-25.9-26.6c0-1,0.1-2,0.2-3l45.6-0.5              C281.3,197.8,281.3,199,281.3,200.1z"/><path fill="#231826" d="M263.6,308c0,0-43.7,10.6-70.3,20.7l-0.5-15c13.6-3,62.5-12.6,62.5-12.6L263.6,308z"/><path fill="#231826" d="M223.1,243.3l5.9,42.1l-26.2,9.6c0,0,3.8-19.4,3.6-19.9c-0.2-0.5,16.7-32.4,16.7-32.4"/><path fill="#ffc5b2" d="M273.5,282.5l5.7-3.8c1.2-0.8,1.7-2.3,1.1-3.7l0,0c-0.7-1.6-2.6-2.4-4.2-1.6c0,0-6.8,3-8.8,4.3"/><path fill="#3b93fe" d="M341,261.8l-12.9,4.6l-22.3,7.9l-18.4,6.5v-84.3h8.6c15.3,0,28.8,10.1,33.1,24.8L341,261.8z"/><path fill="#231826" d="M328.1,266.4l-22.3,7.9c2.4-15.5,7.4-46.2,7.4-46.2S322.9,252.4,328.1,266.4z"/><rect width="1" height="50.6" x="265.6" y="491.1" fill="#fff" transform="rotate(-50.417 266.11 516.448)"/><path fill="#dc4343" d="M339.3,252.4c0,0-30.9-16.4-59.5-13.1c0,0,0,0,0,0l1-11.2l56.2,16.1               C339.3,246.3,340,249.6,339.3,252.4z"/><path fill="#fff" d="M337.2,251.3c0,0-3-6.2-9.1-8.3c-13.9-4.7-42.9-10.3-42.9-10.3l-1,8.3L337.2,251.3z"/><path fill="#fb6a69" d="M339.3,252.4l-13.7,74.7c-18.5-19.9-55.9-13.2-55.9-13.2l9.4-74.5c0.2,0,0.5,0,0.7-0.1               C308.5,236,339.3,252.4,339.3,252.4z"/><path fill="#dc4343" d="M329.7,254.7l-3.5,18.5c0,0-24.2-6.5-40.3-7.1l2.6-18.1C288.5,248,308.8,247.4,329.7,254.7z"/><path fill="#ffc5b2" d="M301.1,302l-18.3-0.9l14,2.4c3.5,0.5,2.8,5.7-0.7,5.4l-17.3-1.8l9.7,4.4c2.4,1.1,1,4.8-1.5,3.9              l-23.4-7.4L196,321.3c-13.3,2.4-25.1-8.6-23.7-22l4.6-42.4l38.8,6.4v22l50.5-6.8c0.4-0.3,0.7-0.5,1-0.7l5,1.9              c0,0,13.8,7.7,28.1,7.8c3.5,0.1,3.4,5.5-0.2,5.4l-19.1-0.6c0.7,0.2,11.9,3.3,20.6,4.3C305.2,297,304.6,302.2,301.1,302z              "/><path fill="#f68689" d="M281,292.2c5.3,1.2,12.3,2.8,17.6,3.5c1,0.1,2,0.3,3,0.4c4.1,0.3,3.7,6.7-0.8,6.2              c-5.4-0.3-11.4-0.7-17.9-1.3c6.3,0.1,12.7,0.4,17.9,0.6c3.5,0.5,3.9-4.5,0.7-4.8c-1-0.1-2-0.3-3-0.4              C292.5,295.5,286.1,293.9,281,292.2z"/><path fill="#f68689" d="M292.4,286.7c1.5,0.2,2.9,0.3,4.4,0.4c3.2,0.2,3.7,0,4.5,0.3c3.1,1.1,2.4,6-1.4,5.8              c-5.5-0.2-12.5-0.4-18.8-1c6.2-0.1,13.3,0.1,18.8,0.2c3,0.2,3.6-3.6,1.2-4.6c-0.6-0.3-1.4-0.2-2.1-0.2              C296.7,287.5,294.3,287.1,292.4,286.7z"/><path fill="#f68689" d="M278.9,307.1c3.2,1.2,6.2,2.5,9.3,3.9c3.5,1.4,1.7,5.6-1,4.9c-2.8-0.9-7.2-2.4-9.6-3.4              c4.2,1,9.3,2.6,9.7,2.7c1.8,0.4,3.3-2.4,0.6-3.6C284.9,310.1,281.9,308.7,278.9,307.1z"/><path fill="#f68689" d="M282.9,301.1c1,0.1,14,1.8,14.9,2.3c3,1.4,1.9,6-1.5,5.8c-5.4-0.6-12-1.4-17.4-2.2              c5.3,0.3,12.1,0.9,17.4,1.5c2.5,0.1,3.5-3.4,1.2-4.5c-0.3-0.2-0.7-0.2-1.1-0.3C292,302.9,287.2,302,282.9,301.1z"/><path fill="#3b93fe" d="M226.2,197.2h-9c-18.9,0-35.3,13.1-39.5,31.5c-5,22.3-8.3,40.9-8.3,40.9l52-1.5L226.2,197.2z"/><rect width="39.2" height="1" x="176.3" y="261" fill="#fff"/><path fill="#231826" d="M371.8,569.9c1.8-2.6,4.2-4.6,6.9-6.2c3.3-1.8,7.4-3.3,8.8,0.2c1.4,3.4-1.9,5.8-4.9,7.6               c-2.7,1.6-5.6,2.8-8.6,3.4c2.9-1,5.6-2.3,8.2-4.1c2.2-1.6,5.6-3.8,4.4-6.6c-1.2-3-5.5-0.9-7.6,0.1               c-1.4,0.7-2.6,1.5-3.8,2.4C373.9,567.7,372.8,568.8,371.8,569.9z"/><path fill="#231826" d="M369.7,567.3c0.1-2.7,0.8-5.4,1.9-8c1.3-2.9,3.3-6.1,6.3-5c3,1.2,1.8,5.1,0.6,7.9               c-1,2.5-2.3,4.9-4,7.1c1.3-2.4,2.4-4.8,3.3-7.4c0.5-1.7,2.2-5.8-0.3-6.7c-2.3-1-4.1,2.4-5.2,4.4               C371.1,562.1,370.2,564.7,369.7,567.3z"/><path fill="#3b93fe" d="M395.3,595.4l-2.2,5l-70.7-26.2l1.5-7.3l0,0c0,0,4.8-20.5,11.9-25.3c0,0,5.5,7.9,22.1,8.8               c0,0,2.2-7.9,5.8-8.9c0,0-0.4,4.4,1.2,10.4c2.3,8.5,8.6,20.3,25.8,27.1C390.8,578.8,404.2,587.5,395.3,595.4z"/><polygon fill="#231826" points="395.4 595.4 393.2 600.4 322.5 574.1 324.1 566.8"/><path fill="#0f57d7" d="M390.8,578.8c0,0-1.1,5.2-12.6-1.1c-11.1-6.2-25.3-17.9-13.2-26               C367.3,560.2,373.6,572,390.8,578.8z"/><rect width="1" height="43.4" x="364.5" y="495.9" fill="#fff" transform="rotate(-58.144 364.98 517.576)"/><path fill="#ffc5b2" d="M261.7,213.6c-12.7,2-21.1-16.2-21.1-16.2c5-5.3,5.4-24.5,5.3-29c0-0.1,0-0.2,0-0.3             c-0.1-2.4-0.5-9.1-0.5-9.1l26.6,8.8l0.7,22.3l0.2,3.6l0.2,3.2C273.2,196.7,274.5,211.6,261.7,213.6z"/><path fill="#ff988b" d="M273,193.5c-14.3-1.8-25-23.6-25.4-24.3c0,0,0,0,0,0s-0.7-0.4-1.7-1.2c-0.1-2.4-0.5-9.1-0.5-9.1             l26.6,8.8l0.7,22.3L273,193.5z"/><path fill="#ffc5b2" d="M278.7,187.6c-18,7.6-32.8-22.4-33.2-23.1c0,0,0,0,0,0c0,0-12.8-7.5-8.4-16.9c4.4-9.3,10-1,10-1             l3.8-14H285c0,0,0.5,2.1,1.2,5.6c0.1,0.3,0.1,0.6,0.2,0.9C289,152.6,294.5,180.9,278.7,187.6z"/><path fill="#2f1a11" d="M299.4,135.4c-1.8,2-4.5,3.4-7.2,3.6c-2.1,0.2-4-0.3-5.9-0.8c-0.8-0.2-1.6-0.4-2.4-0.6             c-5.6-1.1-11.1,1.9-16.7,2.2c-0.2,0-0.5,0-0.7,0c-0.1,0.2-0.2,0.4-0.3,0.6c-1.5,2.2-4.7,3.1-7.2,1.9             c-0.9-0.5-1.8-1.2-2.9-1.2c-1.4-0.1-2.5,1.1-3.3,2.3c-2,2.9-3.2,6.3-3.4,9.8c-0.1-2.3-0.8-4.7-2.2-6.6c0,0-5.6-8.4-10,1             c-4.4,9.4,8.4,16.9,8.4,16.9c0,0,0,0,0,0c1,3.6,0.3,16.8,0.3,16.8c-6-3.6-10.5-15.4-15-20.7c-4.5-5.3-7.3-12.5-6-19.3             c1-5.1,4.7-9.6,9.3-11.5c-1.1-0.2-2.2-0.6-3.1-1.3c-2.4-1.7-3.5-5.1-2.5-7.8c1.2-3.2,4.7-4.9,8.1-5.2             c3.4-0.3,6.7,0.6,10.1,1c3.4,0.4,7,0.2,9.7-1.7c0.8-0.6,1.4-1.2,2.2-1.9c-0.4-0.2-0.9-0.5-1.2-0.9             c-1.8-1.8-2-4.8-0.9-7.1c1.1-2.3,3.4-3.9,5.8-4.7c4.9-1.6,10.6,0,14,3.9c3.1,3.6,4.5,9,8.4,11.3c0.3-1.9,1.2-3.6,2.9-4.3             c2.3-1.1,5,0.1,7.1,1.5c3.6,2.5,6.4,6.2,7.5,10.5C303.2,127.3,302.3,132.1,299.4,135.4z"/><circle cx="265" cy="150.8" r="2.3"/><circle cx="283.3" cy="149" r="2.3"/><path fill="#ff988b" d="M275.2,167.6c-0.2-0.4-0.1-0.8,0.3-1c0.7-0.4,1.4-0.7,1.9-1.2c1.7-1.5,0.7-2.8-0.4-4.5              c-2-3-3.4-6.4-4-10c-0.1-0.4,0.2-0.8,0.6-0.9c0.4-0.1,0.8,0.2,0.9,0.6c0.5,3.3,1.8,6.6,3.7,9.4c1.2,2.3,2.7,4,0.1,6.4              c-0.7,0.6-1.5,1-2.2,1.4C275.8,168.1,275.3,168,275.2,167.6z"/><path fill="#ff988b" d="M273.5,176.5c-1.8-0.3-3.5-1.3-4.6-2.8c-0.2-0.3-0.2-0.8,0.2-1c0.3-0.2,0.8-0.2,1,0.2              c0.8,1.2,2.2,2,3.6,2.2c1.4,0.2,2.9-0.2,4.1-1.1c0.3-0.3,0.8-0.2,1.1,0.1c0.3,0.3,0.2,0.8-0.1,1.1              C277.2,176.2,275.3,176.8,273.5,176.5z"/><g><path fill="#fff" d="M398.9,425.1l-0.9-0.5c4.1-6.6,5.7-14.9,4.6-22.6s-5.2-15.1-11.1-20.2l0.7-0.8             c6.1,5.3,10.2,12.9,11.4,20.8C404.8,409.8,403.1,418.3,398.9,425.1z"/></g><g><path fill="#ffc5b2" d="M386.3,239.2c0,0,3.4-6.7,9.4-12.5l3.9-8.6c0.9-1.9,3.1-2.8,5-1.9v0c1.8,0.8,2.7,2.9,2,4.8l-2.9,7.8            c0,0,18.3-5.2,28.8-11.7c1.7-1,3.9-0.5,4.8,1.2v0c0.9,1.6,0.4,3.7-1.2,4.6l-17.6,10.6c0,0,11-3.6,18.1-7.6            c1.7-1,3.9-0.3,4.7,1.5l0,0c0.8,1.7,0.1,3.7-1.5,4.5c-6.1,3.1-19.4,9.7-19.1,9.7c0.3-0.1,13.1-4.2,19.8-7.3            c1.6-0.8,3.5,0,4.2,1.7l0,0c0.6,1.6-0.1,3.4-1.6,4.1l-18.4,8.6l10.5-1.7c1.7-0.3,3.2,1,3.3,2.6l0,0c0.1,1.4-0.8,2.7-2.2,3            l-32.8,12L386.3,239.2z"/></g><g><path fill="#231826" d="M396.9,239.7l-0.4-0.9c3.7-1.6,6.2-5.5,6.2-9.5l1,0C403.7,233.7,400.9,238,396.9,239.7z"/></g><g><path fill="#dcebff" d="M515.3,335.4c-8.4,18.1-30.6,25.3-48.2,14.7c-13.3-8-19.5-24.6-14.6-39.4             c5.6-16.9,22.6-25.9,38.8-22.5l7-15.3c1.1-2.3,1.6-4.9,0.8-7.4c-0.2-0.5-0.2-1,0-1.4c0.9-2,6.1-1.7,11.4,0.8             c5.4,2.5,9,6.1,8,8.2c-0.2,0.4-0.6,0.7-1.1,1c-2.3,1-4,3.1-5.1,5.4l-7,15.3C517.5,304.1,522,320.9,515.3,335.4z"/><path fill="#ffd552" d="M509,332.7c-6.2,13.5-22.3,19.4-35.8,13.2c-13.5-6.2-19.4-22.3-13.2-35.8c2.3-5,5.9-8.9,10.3-11.6             c4.5,3.2,8.5,7,12.5,10.8c5.2,4.8,10.8,9.5,17.4,12c3.2,1.2,6.6,1.9,9.9,1.5c0.4,0,0.9-0.1,1.3-0.2             C511.4,326,510.6,329.4,509,332.7z"/><ellipse cx="508.9" cy="268.6" fill="#a9d1ff" rx="2.4" ry="8.1" transform="rotate(-65.216 508.953 268.56)"/><circle cx="497.1" cy="332.9" r="2.1" fill="#fbc536"/><circle cx="486.4" cy="341.4" r="2.4" fill="#fbc536"/><circle cx="469.6" cy="315.6" r="2" fill="#fbc536"/><circle cx="469.9" cy="331.6" r="3.5" fill="#fbc536"/></g><g><path fill="#dcebff" d="M357.4,176c-8.3-9.2-7.5-23.3,1.7-31.6l0.6-0.5l29.9,33.3l-0.6,0.5C379.8,186,365.6,185.2,357.4,176z        M359.5,146.1c-8.1,7.8-8.6,20.6-1.1,29c7.5,8.4,20.3,9.3,28.9,2.1L359.5,146.1z"/></g><g><rect width="33.9" height="6.1" x="370.4" y="165.4" fill="#a9d1ff"/></g><g><path fill="#ffd3de" d="M186.7,163.8c-0.4,5.8-33.5,22.6-39.3,20.6c-5.8-2.1-18.5-32.2-22.9-42.8c-0.8-2,0-4.4,2-5.5l32.4-17       c2-1,4.4-0.4,5.6,1.4C170.6,129.6,187.4,155.4,186.7,163.8z"/><circle cx="158.8" cy="129" r="2.1" fill="#28306f"/><circle cx="150.8" cy="133.1" r="2.1" fill="#28306f"/><circle cx="142.8" cy="137.3" r="2.1" fill="#28306f"/><circle cx="134.8" cy="141.5" r="2.1" fill="#28306f"/><path fill="#ffaec2" d="M137.7,154.3c4-3.1,8.3-5.6,12.7-7.9c4.4-2.3,8.9-4.4,13.7-6c-4,3.1-8.3,5.6-12.7,7.9       C147,150.6,142.5,152.8,137.7,154.3z"/><path fill="#ffaec2" d="M142.5,160.4c1.7-1.8,3.8-3,5.9-4c2.1-1,4.3-1.8,6.8-2.1c-1.7,1.8-3.8,3-5.9,4       C147.1,159.3,144.9,160.2,142.5,160.4z"/><path fill="#ffaec2" d="M145.3,168.1c3-2.4,6.3-4.3,9.6-5.9c3.4-1.6,6.8-3.1,10.6-4c-3,2.4-6.3,4.3-9.6,5.9       C152.5,165.7,149.1,167.2,145.3,168.1z"/><path fill="#ffaec2" d="M147.9,173.7c2.2-2,4.6-3.4,7.2-4.6c2.6-1.2,5.2-2.2,8.1-2.7c-2.2,2-4.6,3.4-7.2,4.6       C153.5,172.2,150.9,173.3,147.9,173.7z"/></g></svg>