<svg xmlns="http://www.w3.org/2000/svg" enable-background="new 0 0 2500 2500" viewBox="0 0 2500 2500"><path fill="#fff" d="M1903.15,865.97c-14.9,26.43-64.64,62.68-81.88,74.91c-40.4,28.58-64.85,42.66-64.85,42.66
						s-171.13,331.7-275.75,377.09c-74.85,32.43-310.71-69.61-310.71-69.61l74.69-176.04l150.85,55.19l258.54-289.65
						c0,0,27.45-93.31,56.14-101.45c28.69-8.17,21.02,61.9,21.02,61.9s77.83-102.87,98.05-94.37c20.23,8.46-24.76,68.15-24.76,68.15
						s50.3-39.07,66.12-36.61c15.79,2.46,14.59,20.7,5.85,30.43c0,0,33.46-0.96,18.95,29.43
						C1895.4,838.01,1918.09,839.51,1903.15,865.97z"/><path d="M1441.67,1370.53c-95.56,0.01-264.8-72.66-273.11-76.25c-1.79-0.77-2.61-2.84-1.85-4.63l74.69-176.03
						c0.74-1.73,2.71-2.58,4.47-1.94l148.59,54.36l256.42-287.27c3.8-12.77,29.3-94.85,58.34-103.08
						c5.81-1.66,11.07-0.69,15.19,2.79c11.06,9.34,11.81,35.39,11.17,51.03c21.99-28.2,76.05-94.11,95.05-86.14
						c3.47,1.45,5.84,4.17,6.84,7.87c3.15,11.64-8.35,32.98-18.11,48.27c16.64-11.59,40.7-26.58,51.81-24.83
						c6.94,1.08,11.95,4.98,14.08,10.98c2.13,5.98,1.13,13.51-2.34,19.9c5.46,0.86,12.96,3.18,16.98,9.35
						c3.47,5.33,3.62,12.23,0.47,20.58c3.21,1.05,7.3,3.19,9.64,7.53c3.31,6.13,2.05,14.45-3.75,24.72l0,0
						c-14.08,24.98-57.99,58.38-82.91,76.06c-35.8,25.32-59.42,39.48-64.23,42.31c-11.97,23.1-174.15,333.17-277.02,377.8
						C1471.35,1368.53,1457.52,1370.53,1441.67,1370.53z M1174.6,1289.15c28.53,12.01,236.76,97.67,304.66,68.23
						c102.28-44.37,272.31-372.16,274.01-375.46c0.31-0.6,0.79-1.11,1.38-1.44c0.24-0.14,24.8-14.35,64.58-42.48
						c24.44-17.34,67.44-49.98,80.84-73.76l0,0c4.45-7.88,5.73-14.05,3.7-17.84c-2.31-4.32-8.56-4.85-8.62-4.86
						c-1.16-0.09-2.22-0.75-2.8-1.76c-0.59-1.01-0.64-2.24-0.14-3.3c3.72-7.8,4.31-13.76,1.74-17.72c-3.71-5.72-13.86-6.8-17.4-6.65
						c-1.4,0.02-2.71-0.77-3.31-2.06c-0.59-1.29-0.37-2.8,0.58-3.85c4.58-5.1,6.62-12.92,4.74-18.2c-1.26-3.54-4.12-5.68-8.5-6.36
						c-10.38-1.62-44.42,21.16-63.41,35.91c-1.4,1.09-3.39,0.97-4.65-0.28c-1.26-1.24-1.41-3.23-0.34-4.65
						c12.83-17.02,32.03-48.25,28.96-59.57c-0.43-1.59-1.28-2.57-2.74-3.19c-11.09-4.67-56.42,43.76-93.86,93.24
						c-0.96,1.27-2.65,1.73-4.13,1.15c-1.48-0.59-2.38-2.09-2.21-3.67c1.39-12.76,2.7-47.83-7.85-56.73
						c-2.33-1.97-5.1-2.42-8.68-1.39c-21.98,6.24-46.22,73.61-53.71,99.04c-0.15,0.5-0.41,0.97-0.76,1.36l-258.54,289.65
						c-0.97,1.09-2.5,1.47-3.86,0.97l-147.69-54.04L1174.6,1289.15z"/><path d="M1829.12,849.2c-1.05,0-2.09-0.47-2.79-1.36c-1.2-1.54-0.93-3.76,0.61-4.97l47.34-37.06
								c1.54-1.21,3.76-0.93,4.97,0.6c1.2,1.54,0.93,3.76-0.61,4.97l-47.34,37.06C1830.65,848.95,1829.89,849.2,1829.12,849.2z"/><path d="M1846.83,877.52c-1.08,0-2.15-0.49-2.85-1.43c-1.16-1.57-0.83-3.79,0.73-4.95l48.56-36
								c1.57-1.17,3.79-0.84,4.95,0.74c1.16,1.57,0.83,3.79-0.73,4.95l-48.56,36C1848.3,877.3,1847.56,877.52,1846.83,877.52z"/><polygon fill="#fff" points="1037.11 2174.32 976.86 1833.68 978.16 1579.65 1213.82 1687.41 1297.68 2174.32"/><path d="M1037.11,2177.86c-1.68,0-3.18-1.21-3.48-2.92l-60.25-340.64c-0.04-0.21-0.06-0.42-0.05-0.63l1.3-254.04
							c0.01-1.2,0.62-2.32,1.63-2.97c1.01-0.65,2.28-0.73,3.38-0.24l235.66,107.77c1.06,0.48,1.82,1.47,2.01,2.62l83.86,486.91
							c0.33,1.93-0.96,3.76-2.89,4.09c-1.95,0.34-3.76-0.96-4.09-2.89l-83.55-485.07l-228.98-104.71l-1.27,248.24l60.2,340.33
							c0.34,1.93-0.94,3.76-2.87,4.1C1037.52,2177.85,1037.31,2177.86,1037.11,2177.86z"/><path fill="#fff" d="M948.74,2174.32H680.82c34.3-209.11,74.75-446.11,80.6-475.52c7.61-38.24,320.49,41.43,320.49,41.43
						l-40.09,193.09L948.74,2174.32z"/><path d="M683.33,2177.86c-0.19,0-0.38-0.01-0.58-0.04c-1.93-0.32-3.24-2.14-2.92-4.07l18.68-113.99
						c29.37-179.34,57.12-348.74,61.94-372.97c0.62-3.12,2.55-5.72,5.74-7.73c38.91-24.53,307.67,43.51,319.1,46.42
						c1.9,0.48,3.04,2.41,2.56,4.3s-2.41,3.06-4.3,2.55c-76.99-19.6-283.41-66.32-313.58-47.29c-2.23,1.41-2.49,2.7-2.57,3.12
						c-4.8,24.11-32.53,193.45-61.9,372.73l-18.68,113.99C686.53,2176.63,685.03,2177.86,683.33,2177.86z"/><path d="M948.74,2177.86c-0.42,0-0.84-0.07-1.25-0.23c-1.83-0.69-2.75-2.74-2.05-4.57l95.58-252.32
						c0.69-1.83,2.74-2.74,4.56-2.06c1.83,0.69,2.75,2.74,2.05,4.57l-95.58,252.32C951.51,2176.99,950.16,2177.86,948.74,2177.86z"/><path fill="#fff" d="M1107.1,1070.58c36.55-4.66,208.25,44.1,200.53,45.95c32.53,3.44-4.25,240.95-36.78,237.51l-173.88-17.87
							l-10.03-263.19c0,0,15.05-3.82,28.95-4.52"/><path fill="#bf92fb" d="M1270.87,1354.02l-35.71-5.78c26.46-51.32,41.85-188.27,35.36-243.86c23.92,6.63,39.36,11.61,37.09,12.14
							C1340.17,1119.95,1303.38,1357.49,1270.87,1354.02z"/><path d="M1271.51,1357.61c-0.34,0-0.68-0.02-1.03-0.06l-173.87-17.86c-1.75-0.18-3.11-1.62-3.18-3.39l-10.03-263.19
							c-0.06-1.67,1.05-3.16,2.67-3.56c0.63-0.16,15.56-3.92,29.64-4.62c1.38-0.15,2.77,0.76,3.37,2
							c26.67,1.65,73.81,12.68,102.37,19.89c21.25,5.36,43.41,11.43,60.78,16.65c19.4,5.83,25.68,8.25,27.85,9.98
							c7.14,2.28,11.41,12.39,13.01,30.78c1.41,16.12,0.73,38.1-1.96,63.57C1315.92,1257.18,1297.01,1357.6,1271.51,1357.61z
							 M1100.4,1332.96l170.82,17.55c13.82,1.55,35.08-69.6,42.88-143.47c2.65-25.03,3.32-46.54,1.95-62.21
							c-1.55-17.76-5.56-24.45-8.79-24.79c-1.14-0.12-2.1-0.77-2.66-1.69c-15.52-7.45-164.31-48.43-197.05-44.27
							c-1.08,0.13-2.12-0.23-2.87-0.93c-5.86,0.85-11.06,1.93-14.09,2.61L1100.4,1332.96z"/><path fill="#fff" d="M1179.9,1080.25c0,0-40.56-10.05-57.86-14.24c-6.89-1.67-44.6-8.52-52.06-9.93
							c-82.12-15.5-239.04,11.25-239.04,11.25c-51.22,18.74-116.6,53.96-133.74,95.24c-24.79,59.71,37.13,313.74,34.17,346.39
							s-26.49,175.7-17.72,193.38c42.49,85.64,490.99,116.68,529.61,17.31c16.17-41.61-25.56-104.2-31.69-311.58
							c-1.74-58.85,7.19-124.52,10.2-181.27"/><path d="M1026.85,1785.05c-137.17,0-291.89-31.8-316.37-81.15c-6.4-12.89,1.49-75.68,11.64-150.28
							c2.66-19.52,4.95-36.37,5.73-44.99c0.94-10.36-5.47-47.01-12.89-89.45c-16.03-91.63-37.98-217.11-21.02-257.97
							c17.15-41.3,81.39-77.3,135.79-97.21c0.2-0.07,0.41-0.13,0.62-0.16c1.58-0.27,158.49-26.68,240.29-11.23l8.61,1.6
							c14.27,2.64,38.15,7.05,43.63,8.37c17.31,4.2,57.88,14.25,57.88,14.25l-1.7,6.87c0,0-40.55-10.05-57.85-14.24
							c-5.29-1.28-29.98-5.84-43.25-8.29c-3.91-0.72-7-1.29-8.64-1.6c-78.81-14.87-229.53,9.88-237.47,11.2
							c-52.92,19.42-115.14,54.05-131.38,93.17c-16.17,38.95,6.47,168.39,21.45,254.04c8.13,46.45,14,80.02,12.97,91.31
							c-0.8,8.77-3.1,25.7-5.77,45.3c-6.83,50.19-18.26,134.19-12.31,146.18c25.56,51.51,204.26,82.84,346.97,76.41
							c99.17-4.46,163.38-25.89,176.18-58.81c6.98-17.97,2.38-41.12-5.25-79.49c-9.29-46.74-23.33-117.36-26.68-230.71
							c-1.16-39.13,2.36-81.06,5.76-121.6c1.76-20.99,3.42-40.81,4.44-59.96c0.1-1.96,1.78-3.4,3.72-3.35
							c1.95,0.1,3.45,1.77,3.35,3.72c-1.02,19.26-2.69,39.14-4.46,60.18c-3.39,40.34-6.89,82.07-5.74,120.8
							c3.33,112.75,17.3,183.03,26.54,229.53c7.88,39.63,12.63,63.55,4.9,83.43c-18.97,48.8-122.46,60.62-182.45,63.31
							C1051.92,1784.78,1039.44,1785.05,1026.85,1785.05z"/><path d="M1725.14,548.92c100.01,44.15,142.16,163.82,96.1,262.97c-46.06,99.15-175.08,106.13-274.23,60.07l-86.64,67.27
									l-36.87,426.5l219.85,16.46l60.37-78.71l2.87-256.09c163.68-66.69,205.97-105.58,261.46-225.02
									c83.85-180.47,5.91-336.79-174.53-420.62c-117.88-54.77-231.71-80.18-332.65-13.28l-98.32,99.43l38.27,149.42
									C1400.81,637.31,1589.93,489.24,1725.14,548.92z"/><path d="M1643.35,1385.72c-0.09,0-0.18,0-0.26-0.01l-219.85-16.46c-0.94-0.07-1.82-0.52-2.43-1.23
									c-0.61-0.72-0.91-1.66-0.83-2.6l36.87-426.5c0.08-0.98,0.58-1.89,1.35-2.49l86.64-67.27c1.05-0.81,2.46-0.97,3.66-0.41
									c96.65,44.9,223.97,39.71,269.53-58.35c22.07-47.51,24.15-102.86,5.71-151.86c-18.12-48.12-53.64-85.9-100.03-106.38
									c-131.69-58.13-318.84,86.47-320.71,87.94c-0.94,0.74-2.19,0.95-3.32,0.56c-1.13-0.38-1.99-1.31-2.29-2.47l-38.27-149.42
									c-0.31-1.2,0.04-2.48,0.91-3.37l98.32-99.43c0.17-0.17,0.36-0.33,0.56-0.46c112.53-74.58,238.73-32.22,336.1,13.02
									c91.28,42.41,156.33,103.22,188.12,175.86c33.01,75.43,28.9,161.69-11.87,249.46c-56.71,122.07-100.88,160.43-261.15,225.92
									l-2.84,253.74c-0.01,0.77-0.26,1.51-0.73,2.11l-60.37,78.71C1645.48,1385.22,1644.44,1385.72,1643.35,1385.72z
									 M1427.33,1362.47l214.37,16.05l58.49-76.26l2.85-254.91c0.02-1.43,0.88-2.7,2.2-3.24
									c159.92-65.16,203.59-102.71,259.58-223.23c79.11-170.27,12.89-329.64-172.81-415.92
									c-141.99-65.97-243.44-70.21-328.9-13.74l-96.66,97.75l36.45,142.3c29.59-22.15,197.75-141.14,323.65-85.58l0,0
									c48.14,21.25,85,60.45,103.79,110.36c19.11,50.76,16.96,108.11-5.91,157.33c-21.92,47.19-63.36,77.1-119.83,86.49
									c-48.95,8.12-106.09-0.54-157.13-23.8l-83.72,65L1427.33,1362.47z"/><path fill="#fec524" d="M1710.6,1047.05l-6.88,254.04l-200.67-11.88l43.96-419.63c99.15,46.06,246.66-0.73,292.72-99.88
									c46.06-99.15-0.58-209.79-96.1-262.97c-63.84-35.54-186.38-28.57-243.1,33.75l-39.67-154.4
									c100.94-66.9,233.26-81.3,351.15-26.53c180.43,83.83,258.79,298.07,174.94,478.54
									C1931.46,957.54,1827.16,1033.56,1710.6,1047.05z"/><path d="M1703.72,1304.64c-0.07,0-0.14,0-0.21-0.01l-200.67-11.88c-0.96-0.06-1.86-0.5-2.49-1.24
									c-0.62-0.74-0.92-1.7-0.82-2.66l43.96-419.63c0.12-1.14,0.78-2.15,1.77-2.71c1-0.56,2.2-0.6,3.24-0.13
									c46.91,21.8,106.56,23.39,163.66,4.37c57.69-19.22,103.02-56.59,124.36-102.53c43.29-93.18,2.61-204.25-94.61-258.38
									c-62.73-34.92-183.22-27.98-238.76,33.04c-0.88,0.96-2.21,1.36-3.47,1.05c-1.26-0.31-2.25-1.3-2.57-2.55l-39.67-154.4
									c-0.38-1.46,0.22-3,1.47-3.83c106.38-70.5,238.94-80.51,354.59-26.79c181.93,84.53,261.18,301.31,176.66,483.25
									c-54.46,117.23-157.52,195.76-276.11,210.61l-6.8,250.99c-0.03,0.96-0.44,1.86-1.15,2.51
									C1705.46,1304.3,1704.6,1304.64,1703.72,1304.64z M1506.95,1285.9l193.33,11.45l6.78-250.39c0.05-1.76,1.38-3.22,3.13-3.42
									c117.4-13.59,219.67-90.94,273.55-206.93c82.88-178.39,5.17-390.96-173.22-473.85c-112.65-52.34-241.65-42.99-345.6,24.89
									l37.46,145.79c59.39-58.99,179.65-65.05,242.98-29.8c100.5,55.95,142.46,170.97,97.59,267.55
									c-22.16,47.7-69.01,86.43-128.55,106.26c-56.98,18.99-116.56,17.98-164.38-2.65L1506.95,1285.9z"/><circle cx="1585.14" cy="1473.56" r="128.22" fill="#fec524"/><path d="M1585.09,1605.26c-31.97,0-64.02-11.53-89.31-34.87c-53.39-49.27-56.74-132.79-7.47-186.18
									c49.27-53.4,132.79-56.74,186.19-7.47c53.39,49.27,56.74,132.8,7.47,186.19l0,0
									C1656.03,1591.02,1620.61,1605.26,1585.09,1605.26z M1585.19,1348.94c-33.62,0-67.13,13.47-91.68,40.06
									c-46.62,50.52-43.45,129.56,7.07,176.18c50.52,46.63,129.56,43.46,176.18-7.06l0,0c46.62-50.52,43.46-129.56-7.07-176.19
									C1645.77,1359.85,1615.44,1348.94,1585.19,1348.94z M1679.37,1560.52h0.03H1679.37z"/><path d="M1434.9,1460.1c-48.03,52.04-44.77,133.16,7.27,181.18s133.16,44.77,181.18-7.27l56.01-73.49
									c-48.03,52.04-129.14,55.29-181.18,7.27s-55.29-129.14-7.27-181.18L1434.9,1460.1z"/><path d="M1528.99,1678.72c-31.95,0-63.96-11.53-89.22-34.84c-53.35-49.24-56.73-132.67-7.58-186.06l41.11-53.95
									c4.3-6.89,9.3-13.48,15.01-19.67c1.28-1.39,3.43-1.53,4.88-0.31c1.45,1.21,1.68,3.35,0.54,4.86l-14.59,19.14
									c-30.85,49.75-23.15,116.15,21.44,157.29c50.52,46.63,129.56,43.46,176.18-7.06c1.28-1.39,3.43-1.53,4.88-0.31
									c1.45,1.21,1.68,3.35,0.54,4.86l-56.01,73.49C1600.1,1664.42,1564.57,1678.72,1528.99,1678.72z M1459.63,1433.49
									l-21.91,28.75c-0.07,0.09-0.14,0.17-0.21,0.25c-46.62,50.52-43.45,129.56,7.07,176.18c24.47,22.59,56.26,34.32,89.55,32.95
									c33.28-1.33,64.04-15.55,86.63-40.02l36.28-47.62c-49.32,32.1-116.07,28.08-161.25-13.61
									C1457,1534.6,1444.62,1480.75,1459.63,1433.49z M1434.9,1460.1h0.03H1434.9z"/><path fill="#fff" d="M725.61,1403.33c0,0,131.15,191.26,201.99,227.23c119.49,60.68,410.2,23.21,414.55,22.64h0.04
							c11.83,1.34,16.67,5.93,57.84,13.86c21.09,4.06,82.71,15.04,112.62,7.4c29.91-7.68,15.04-25.4,15.04-25.4
							c32.47-10.73,8.25-34.59,8.25-34.59c13.29-0.49,27.51-12.44,18.21-25.73c-9.31-13.33-73.4-22.76-73.4-22.76
							s75.47-8.98,67.47-29.79c-8.05-20.81-138.27-5.53-138.27-5.53s56.78-43.69,30.64-59.01c-26.17-15.32-88.77,37.15-88.77,37.15
							l-295.63-10.53L840.1,1256.65L725.61,1403.33z"/><path d="M1485.67,1680.63c-28.6,0-64.08-5.82-86.3-10.1c-24.32-4.68-36.18-8.25-44.03-10.61c-5.24-1.58-8.75-2.63-13.13-3.17
							c-17.02,2.2-297.58,37.19-416.19-23.05c-70.83-35.96-197.93-220.55-203.31-228.39c-0.87-1.27-0.82-2.96,0.13-4.18
							l114.49-146.68c0.64-0.83,1.62-1.32,2.67-1.36c1.02-0.06,2.06,0.39,2.76,1.17l215.09,240.5l292.78,10.43
							c8.74-7.15,65.4-52.04,91.77-36.62c5.28,3.1,8.25,7.61,8.59,13.07c0.93,14.73-17.79,33.69-29.7,44.2
							c36.04-3.71,122.69-10.48,130.24,9.05c1.37,3.56,1.04,7.2-0.96,10.51c-6.36,10.55-30.32,17.13-48.44,20.71
							c20.23,4.05,48.39,11.2,54.94,20.58c4.07,5.81,4.73,12.18,1.87,17.94c-2.88,5.8-9.15,10.39-16.33,12.35
							c3.21,4.6,6.84,11.75,5.13,19.06c-1.47,6.28-6.43,11.25-14.77,14.79c1.5,3.09,2.83,7.61,1.29,12.41
							c-2.16,6.73-9.13,11.64-20.71,14.61C1505.86,1679.84,1496.23,1680.63,1485.67,1680.63z M1342.15,1649.66
							c0.13,0,0.31,0.01,0.44,0.02c5.21,0.59,9.22,1.79,14.77,3.46c7.71,2.32,19.37,5.82,43.33,10.43
							c24.03,4.63,82.96,14.63,111.07,7.44c8.91-2.29,14.35-5.71,15.71-9.89c1.56-4.78-2.48-9.77-2.52-9.82
							c-0.74-0.9-1-2.12-0.67-3.24c0.32-1.12,1.17-2.01,2.28-2.38c8.35-2.76,13.14-6.54,14.25-11.22
							c1.59-6.77-4.78-14.92-7.37-17.49c-1-0.99-1.32-2.49-0.81-3.8c0.51-1.31,1.75-2.2,3.16-2.25c7.02-0.26,14.23-4.31,16.77-9.43
							c1.7-3.42,1.25-7.03-1.33-10.73c-6.14-8.8-46.82-17.73-71.02-21.29c-1.76-0.26-3.05-1.78-3.02-3.55
							c0.02-1.77,1.36-3.26,3.12-3.47c21.53-2.56,57.99-10.45,64.16-20.69c0.88-1.46,1.01-2.79,0.42-4.31
							c-4.42-11.42-71.88-10.64-134.55-3.28c-1.6,0.19-3.09-0.71-3.69-2.18c-0.6-1.48-0.14-3.17,1.12-4.14
							c10.35-7.97,37-31.72,36.12-45.76c-0.2-3.12-1.82-5.47-5.11-7.4c-19.69-11.51-67.82,22.66-84.7,36.81
							c-0.67,0.56-1.52,0.89-2.4,0.82l-295.63-10.53c-0.96-0.03-1.87-0.46-2.51-1.18l-213.27-238.46L730,1403.45
							c14.63,21.05,133.97,190.83,199.2,223.95c117.82,59.83,409.56,22.67,412.49,22.29
							C1341.85,1649.67,1342,1649.66,1342.15,1649.66z"/><path fill="#fff" d="M771.62,1094c0,0-106.69,49.36-132.08,146.28c-28.02,106.95,137.94,267.83,137.94,267.83
							c26.23,23.44,194.22-147.56,167.99-170.99L822.25,1216"/><path fill="#bf92fb" d="M777.48,1508.11c0,0-7.21-15.99-31-41.36c108.46-25.14,159.46-170.35,159.46-170.35l39.55,40.7
							C971.7,1360.54,803.69,1531.55,777.48,1508.11z"/><path d="M784.06,1513.79c-3.59,0-6.61-0.96-8.94-3.04c-6.94-6.73-167.22-163.66-139.01-271.37
							c25.52-97.41,132.94-148.09,134.02-148.59c1.77-0.82,3.88-0.05,4.7,1.72c0.82,1.77,0.05,3.88-1.72,4.7
							c-1.05,0.49-105.49,49.83-130.15,143.96c-27.17,103.72,135.34,262.8,136.98,264.39c11.07,9.89,68.32-32.89,117.69-88.13
							c38.6-43.19,52.1-71.77,45.48-77.68l-123.35-121.23c-1.39-1.37-1.41-3.61-0.04-5c1.37-1.4,3.61-1.41,5.01-0.04l123.23,121.11
							c16.05,14.34-21.33,61.02-45.05,87.56C868.57,1460.58,810.76,1513.78,784.06,1513.79z"/><path fill="#fff" d="M830.94,1067.32c0,0,101.09,95.08,185.07,86.1c118.92-12.71,106.03-87.41,106.03-87.41
						c-13.31-3.29-33.93-7.16-51.14-9.29c-24.43-18.55-39.44-129.3-30.94-150.59c8.92-22.42-162.74-68.55-162.74-68.55
						S898.41,1038.18,830.94,1067.32z"/><path d="M1004.44,1157.56c-81.74,0-171.94-83.92-175.92-87.66c-0.87-0.82-1.27-2.01-1.06-3.19c0.21-1.17,0.99-2.16,2.08-2.64
						c64.32-27.78,44.37-224.14,44.16-226.12c-0.12-1.16,0.34-2.31,1.22-3.07c0.89-0.76,2.09-1.02,3.22-0.73
						c15.56,4.19,152.42,41.57,164.59,65.84c1.61,3.2,1.17,5.81,0.52,7.44c-7.61,19.06,5.89,126.33,29.08,145.89
						c16.23,2.06,36.41,5.74,50.56,9.24c1.36,0.34,2.4,1.45,2.64,2.83c0.18,1.01,4.08,25.13-13.85,48.89
						c-17.69,23.43-49.75,37.78-95.28,42.65C1012.44,1157.35,1008.44,1157.56,1004.44,1157.56z M837.15,1068.15
						c19.02,16.79,106.09,89.43,178.49,81.75c43.42-4.64,73.8-18.02,90.29-39.74c13.12-17.29,13.28-35.13,12.86-41.3
						c-14.03-3.33-33.07-6.74-48.32-8.63c-0.62-0.08-1.21-0.31-1.71-0.69c-26.97-20.48-40.59-133.42-32.09-154.72
						c0.07-0.16,0.24-0.61-0.27-1.65c-7.92-15.8-95.28-44.47-155.17-60.84C884.07,873.91,895.44,1034.41,837.15,1068.15z"/><path fill="#fff" d="M1069.98,1056.07c0,0-3.87,7.94-27.53,9.93"/><path d="M1042.44,1069.54c-1.82,0-3.37-1.4-3.52-3.24c-0.16-1.95,1.28-3.66,3.23-3.82c20.59-1.73,24.69-8.04,24.72-8.11
						c0.99-1.6,3.1-2.24,4.76-1.32c1.65,0.91,2.35,2.88,1.52,4.58c-0.79,1.63-5.99,9.85-30.41,11.91
						C1042.64,1069.54,1042.54,1069.54,1042.44,1069.54z"/><path fill="#fff" d="M943.55,948.2c35.13,29.23,111.59,45.87,149.32,12.84c52.59-46.05,60.78-189.77,14.77-272.32
						c-13.1-23.55-30.99-42.4-53.92-52.85c-73.68-33.56-145.56,9.16-157.15,59.58c-8.69,37.91-4.56,100.11-4.56,100.11
						s-38.79-34.6-49.46,10.34c-10.78,45.53,39.64,62.46,39.64,62.46"/><path d="M1036.31,982.82c-35.65,0-73.8-14.26-95.02-31.91c-1.5-1.25-1.71-3.48-0.46-4.98c1.25-1.5,3.48-1.7,4.98-0.46
						c32.92,27.39,108.2,44.88,144.73,12.9c51.3-44.91,58.76-187.64,14.02-267.94c-13.61-24.46-31.2-41.74-52.29-51.35
						c-33.9-15.44-71.38-15.4-102.84,0.14c-25.63,12.65-44.09,33.97-49.39,57.01c-8.47,36.96-4.52,98.46-4.48,99.08
						c0.09,1.43-0.69,2.78-1.98,3.41c-1.29,0.63-2.84,0.42-3.91-0.53c-0.17-0.16-17.3-15.21-30.18-11.13
						c-6.33,2-10.87,8.61-13.49,19.65c-9.9,41.79,35.39,57.63,37.32,58.28c1.85,0.63,2.85,2.63,2.22,4.48
						c-0.62,1.85-2.64,2.83-4.48,2.23c-0.53-0.18-53.35-18.52-41.95-66.63c3.24-13.65,9.39-21.98,18.27-24.78
						c11.11-3.51,23.44,2.91,30.7,7.81c-0.81-17.92-1.93-62.97,5.05-93.46c5.77-25.1,25.64-48.19,53.16-61.78
						c33.37-16.48,73.06-16.56,108.91-0.23c22.5,10.25,41.19,28.54,55.54,54.35c46.97,84.28,38.84,229.1-15.54,276.7
						C1079.65,977.32,1058.46,982.82,1036.31,982.82z"/><path d="M882.9,919.35l-0.7-50.99c0,0-50.42-16.93-39.64-62.46c10.67-44.94,49.46-10.34,49.46-10.34s17.15,8.72,27.86,5.23
							c10.71-3.53,0-53.81,0-53.81s90.57-28.19,111.7-54.98c18.51-23.41,4.64-39.31,0.88-42.91c6.04,5.34,92.07,67.73,119.39,18.03
							c33.12-60.25-29.68-55.9-29.68-55.9s27.14-59.58-29.5-70.48c-45.93-8.84-60.62,44.17-60.62,44.17s-63.89-71.03-110.41-32.94
							c-46.52,38.09-35.22,102.46-35.22,102.46s-68.82-5.37-102.91,33.83C755.33,720.67,746.31,895.39,882.9,919.35z"/><path d="M882.9,922.89c-0.2,0-0.41-0.02-0.61-0.05c-66.14-11.6-95.2-56.86-107.94-92.78c-21.01-59.26-10.18-124.94,6.5-144.13
							c30.24-34.77,85.49-35.76,101.5-35.25c-1.71-15.47-3.99-67.84,37.06-101.45c42.21-34.58,96.09,13.84,111.24,29.07
							c5.58-13.99,23.54-48.59,62.7-41.05c16.6,3.2,28.07,10.74,34.1,22.41c8.89,17.21,3.29,38.43-0.07,47.98
							c8.78,0.31,25.8,2.58,33.65,14.86c6.92,10.82,4.87,26.41-6.07,46.32c-6.18,11.23-15.6,18.03-28,20.18
							c-28.15,4.89-64.25-15.22-83.43-27.81c2.21,8.3,1.42,19.61-9.16,32.99c-19.57,24.82-94.02,49.92-110.36,55.2
							c3.5,17.36,8.63,50.92-3,54.76c-11.98,3.93-29.82-5.05-30.57-5.43c-0.27-0.14-0.52-0.31-0.75-0.51
							c-0.17-0.16-17.3-15.21-30.18-11.13c-6.33,2-10.87,8.61-13.49,19.65c-9.93,41.9,35.39,57.63,37.32,58.28
							c1.42,0.48,2.39,1.8,2.41,3.31l0.7,50.99c0.01,1.05-0.44,2.06-1.24,2.74C884.55,922.59,883.73,922.89,882.9,922.89z
							 M878.33,657.73c-18.69,0-66.28,3.1-92.14,32.84c-15.21,17.49-25.03,81.11-5.17,137.12c11.83,33.37,38.47,75.22,98.28,87.37
							l-0.61-44.28c-10.24-4.25-49.56-23.54-39.57-65.7c3.24-13.65,9.39-21.98,18.27-24.78c15.66-4.94,33.73,9.8,36.63,12.28
							c4.75,2.33,17.38,7.24,24.78,4.83c3.54-1.17,3.29-23.14-2.36-49.71c-0.38-1.79,0.66-3.57,2.41-4.12
							c0.9-0.28,89.77-28.17,109.97-53.8c16.4-20.73,5.07-34.46,1.21-38.17c-1.39-1.33-1.45-3.53-0.15-4.95
							c1.31-1.41,3.5-1.53,4.95-0.25c6.06,5.35,56.98,41.48,90.93,35.6c10.32-1.8,17.85-7.23,23.01-16.62
							c9.6-17.46,11.72-30.61,6.32-39.08c-8.33-13.06-32.41-11.6-32.65-11.59c-1.24,0.03-2.44-0.49-3.15-1.52
							c-0.71-1.02-0.83-2.35-0.32-3.48c0.12-0.27,12.23-27.46,2.19-46.86c-4.98-9.63-14.79-15.92-29.14-18.68
							c-42.13-8.13-55.98,39.61-56.55,41.64c-0.35,1.24-1.34,2.2-2.6,2.5c-1.26,0.3-2.57-0.12-3.44-1.07
							c-0.62-0.68-62.18-68.07-105.54-32.57c-44.32,36.29-34.09,98.49-33.98,99.11c0.19,1.07-0.13,2.18-0.87,2.99
							c-0.74,0.81-1.81,1.24-2.89,1.15C886.01,657.93,883.12,657.73,878.33,657.73z"/><ellipse cx="996.1" cy="776.47" rx="11.38" ry="14.86" transform="rotate(-8.428 996.478 776.527)"/><ellipse cx="1080.56" cy="764.09" rx="11.38" ry="14.86" transform="rotate(-8.428 1080.957 764.126)"/><path fill="#fff" d="M1006.63,743.45c0,0-20.96-9.64-41.09,13.08"/><path d="M965.54,760.07c-0.83,0-1.67-0.29-2.34-0.89c-1.46-1.3-1.6-3.53-0.3-4.99c21.61-24.4,44.98-14.07,45.22-13.95
								c1.77,0.82,2.55,2.92,1.74,4.69c-0.82,1.77-2.91,2.55-4.68,1.74c-0.84-0.38-18.99-8.1-36.97,12.21
								C967.49,759.67,966.52,760.07,965.54,760.07z"/><path fill="#fff" d="M1096.23,725.56c0,0-20.96-9.64-41.09,13.08"/><path d="M1055.14,742.18c-0.83,0-1.67-0.29-2.34-0.89c-1.46-1.3-1.6-3.54-0.3-5c21.62-24.4,44.98-14.06,45.21-13.94
								c1.77,0.82,2.55,2.92,1.74,4.69c-0.82,1.77-2.91,2.54-4.68,1.74c-0.82-0.37-18.98-8.11-36.97,12.2
								C1057.09,741.78,1056.12,742.18,1055.14,742.18z"/><path fill="#fff" d="M1042.57,776.88c7.67,21.39,15.34,42.78,23.02,64.18c1.26,3.52,2.55,7.22,2.02,10.92
								c-0.68,4.81-4.37,8.76-8.67,11.03c-4.29,2.27-9.17,3.13-13.95,3.96"/><path d="M1044.98,870.5c-1.69,0-3.19-1.21-3.48-2.94c-0.33-1.92,0.96-3.76,2.89-4.09c4.45-0.77,9.05-1.56,12.9-3.6
								c3.81-2.01,6.36-5.15,6.82-8.4c0.41-2.92-0.79-6.27-1.85-9.23l-23.02-64.18c-0.66-1.84,0.3-3.87,2.14-4.53
								c1.83-0.67,3.86,0.29,4.53,2.14l23.02,64.18c1.27,3.55,2.85,7.96,2.19,12.61c-0.78,5.49-4.71,10.6-10.52,13.67
								c-4.84,2.56-10.24,3.49-15.01,4.31C1045.38,870.48,1045.18,870.5,1044.98,870.5z"/><g><path fill="#fff" d="M1009.59,902.03c15.25,8.68,34.2,10.59,50.88,5.12"/><path d="M1041.02,913.75c-11.56,0-23.15-2.93-33.18-8.64c-1.7-0.97-2.29-3.13-1.33-4.83c0.97-1.69,3.13-2.29,4.83-1.32
								c14.37,8.18,32.32,9.98,48.02,4.83c1.87-0.6,3.86,0.4,4.47,2.26c0.61,1.86-0.4,3.86-2.26,4.46
								C1054.96,912.68,1047.99,913.75,1041.02,913.75z"/></g><g><path d="M1535.94,1618c-0.13,0-0.27-0.01-0.4-0.02l-60.27-6.83c-1.94-0.22-3.34-1.97-3.12-3.91s1.97-3.37,3.92-3.12l60.27,6.83
						c1.94,0.22,3.34,1.97,3.12,3.91C1539.25,1616.67,1537.72,1618,1535.94,1618z"/></g><g><path d="M1527.7,1652.59c-0.17,0-0.33-0.01-0.5-0.03l-71.89-10.19c-1.94-0.28-3.28-2.07-3.01-4c0.27-1.94,2.08-3.27,4-3.01
						l71.89,10.19c1.94,0.28,3.28,2.07,3.01,4C1530.94,1651.31,1529.43,1652.59,1527.7,1652.59z"/></g><g><path fill="#fec524" d="M1067.18,338.16c7.06,2.26,13.1,5.32,18.13,9.16c5.03,3.84,9.02,8.26,11.98,13.23
					c2.95,4.98,4.86,10.43,5.71,16.35c0.85,5.93,0.63,12.09-0.67,18.5l24.83,9.11c1.52,0.58,2.29,2.18,2.31,4.8
					c0.01,2.62-0.7,6.16-2.13,10.63c-0.91,2.84-1.74,5.21-2.49,7.1c-0.75,1.9-1.47,3.35-2.18,4.36c-0.7,1.01-1.44,1.67-2.21,2
					c-0.77,0.32-1.64,0.37-2.61,0.15l-30.83-8.61c-2.78-0.79-4.98-1.64-6.59-2.54c-1.61-0.9-2.78-1.96-3.53-3.2
					c-0.75-1.23-1.09-2.6-1.03-4.1c0.05-1.5,0.38-3.2,0.99-5.09l0.58-1.8c1.46-4.56,1.99-8.73,1.59-12.51
					c-0.4-3.78-1.46-7.14-3.18-10.06c-1.72-2.92-4.05-5.4-7.01-7.44c-2.95-2.04-6.28-3.65-9.98-4.84c-4.13-1.32-8.1-1.96-11.91-1.9
					c-3.81,0.06-7.35,0.87-10.6,2.43c-3.25,1.57-6.12,3.92-8.6,7.06c-2.48,3.14-4.49,7.12-6.03,11.94
					c-1.41,4.39-2.22,8.4-2.44,12.03c-0.21,3.64-0.19,6.82,0.07,9.56c0.26,2.74,0.56,5.05,0.91,6.91s0.39,3.23,0.11,4.09
					c-0.19,0.6-0.57,1.1-1.12,1.5c-0.55,0.39-1.4,0.59-2.54,0.61c-1.14,0.01-2.69-0.18-4.66-0.57c-1.96-0.39-4.41-1.05-7.33-1.99
					c-3.01-0.97-5.16-1.8-6.46-2.5c-1.29-0.7-2.23-1.62-2.82-2.75s-1.07-3.09-1.46-5.88c-0.39-2.78-0.54-6.01-0.45-9.68
					c0.09-3.68,0.45-7.69,1.09-12.04c0.64-4.35,1.67-8.76,3.11-13.24c3.26-10.15,7.44-18.39,12.55-24.73
					c5.11-6.33,10.78-11.04,16.99-14.13c6.21-3.08,12.71-4.72,19.51-4.91C1053.59,334.99,1060.38,335.98,1067.18,338.16z
					 M1165.53,411.84c3.53,1.13,6.41,2.36,8.64,3.69c2.23,1.33,3.85,2.94,4.86,4.83c1.01,1.9,1.45,4.12,1.34,6.7
					c-0.11,2.57-0.72,5.58-1.82,9.02c-1.16,3.62-2.44,6.48-3.83,8.6c-1.39,2.12-3.04,3.66-4.96,4.61s-4.17,1.32-6.76,1.1
					c-2.59-0.21-5.65-0.88-9.18-2.02c-3.62-1.16-6.56-2.41-8.83-3.76s-3.93-2.97-4.98-4.87c-1.05-1.9-1.52-4.12-1.42-6.65
					c0.1-2.53,0.73-5.6,1.89-9.22c1.1-3.44,2.36-6.24,3.76-8.4c1.41-2.16,3.09-3.71,5.05-4.65c1.96-0.94,4.26-1.29,6.89-1.06
					C1158.79,409.99,1161.91,410.68,1165.53,411.84z"/></g><g><path fill="#bf92fb" d="M2008.78,1585.48c-5.28,7.62-11.14,13.73-17.58,18.35c-6.43,4.61-13.17,7.78-20.2,9.51
					c-7.04,1.72-14.26,2.01-21.65,0.87c-7.4-1.14-14.69-3.65-21.9-7.55l-19.96,26.39c-1.25,1.61-3.45,1.95-6.58,1.01
					c-3.14-0.94-7.11-3.08-11.94-6.43c-3.06-2.12-5.59-3.98-7.58-5.57c-2-1.59-3.47-2.99-4.42-4.2c-0.95-1.21-1.48-2.33-1.59-3.37
					c-0.1-1.03,0.15-2.09,0.77-3.18l21.55-33.75c1.97-3.04,3.78-5.36,5.44-6.96c1.66-1.59,3.36-2.61,5.12-3.05
					c1.74-0.44,3.51-0.35,5.28,0.26c1.77,0.61,3.69,1.63,5.73,3.05l1.95,1.35c4.92,3.41,9.72,5.57,14.39,6.47
					c4.67,0.9,9.07,0.86,13.2-0.13c4.12-0.99,7.94-2.88,11.46-5.67c3.51-2.79,6.66-6.18,9.43-10.17c3.09-4.46,5.3-8.98,6.62-13.56
					c1.32-4.59,1.64-9.11,0.96-13.57c-0.69-4.47-2.46-8.75-5.31-12.87c-2.86-4.11-6.88-7.97-12.08-11.58
					c-4.74-3.29-9.25-5.72-13.51-7.3c-4.27-1.58-8.09-2.72-11.46-3.41c-3.37-0.69-6.24-1.17-8.61-1.43s-4.01-0.72-4.93-1.36
					c-0.65-0.45-1.11-1.08-1.38-1.89c-0.27-0.8-0.2-1.89,0.2-3.26c0.41-1.37,1.2-3.16,2.38-5.36c1.18-2.2,2.87-4.89,5.06-8.05
					c2.25-3.25,4.04-5.52,5.35-6.81c1.31-1.29,2.75-2.08,4.32-2.37c1.57-0.28,4.09-0.16,7.57,0.4c3.47,0.55,7.38,1.55,11.75,2.99
					c4.37,1.45,9.03,3.34,14.01,5.69c4.97,2.35,9.87,5.2,14.7,8.55c10.96,7.6,19.29,15.62,25,24.04c5.7,8.43,9.28,16.92,10.7,25.48
					c1.42,8.55,1.01,16.93-1.24,25.13C2017.53,1570.37,2013.86,1578.15,2008.78,1585.48z M1884.73,1676.27
					c-2.64,3.81-5.16,6.81-7.57,8.99c-2.41,2.18-4.92,3.53-7.55,4.05c-2.63,0.51-5.46,0.23-8.5-0.84c-3.03-1.07-6.42-2.9-10.12-5.47
					c-3.9-2.71-6.87-5.28-8.89-7.71c-2.03-2.44-3.26-4.97-3.7-7.62c-0.44-2.64-0.05-5.47,1.15-8.49s3.12-6.43,5.76-10.24
					c2.71-3.9,5.28-6.96,7.72-9.19c2.44-2.23,4.99-3.62,7.65-4.19c2.66-0.56,5.49-0.32,8.48,0.72c2.99,1.04,6.43,2.92,10.34,5.62
					c3.71,2.57,6.61,5.1,8.68,7.56c2.07,2.47,3.31,5.04,3.72,7.74c0.4,2.69-0.01,5.56-1.24,8.63
					C1889.41,1668.89,1887.44,1672.37,1884.73,1676.27z"/></g><g><path fill="#71ffcc" d="M657.64,891.62c4.08,6.39,6.84,12.75,8.3,19.06c1.45,6.31,1.72,12.4,0.8,18.25
					c-0.93,5.86-2.98,11.39-6.18,16.61c-3.2,5.23-7.39,9.94-12.61,14.14l13.62,23.39c0.82,1.45,0.38,3.21-1.32,5.29
					s-4.57,4.4-8.62,6.98c-2.57,1.64-4.77,2.96-6.6,3.97c-1.83,1.01-3.35,1.68-4.56,2.01c-1.21,0.34-2.22,0.38-3.04,0.13
					c-0.81-0.25-1.53-0.77-2.16-1.59l-18.67-26.91c-1.67-2.44-2.85-4.54-3.53-6.3c-0.68-1.76-0.91-3.36-0.69-4.82
					c0.22-1.46,0.84-2.76,1.86-3.9c1.02-1.15,2.39-2.27,4.11-3.36l1.63-1.04c4.13-2.64,7.27-5.58,9.43-8.82
					c2.16-3.24,3.51-6.57,4.07-10c0.55-3.42,0.33-6.9-0.66-10.44c-0.99-3.53-2.56-6.97-4.7-10.33c-2.39-3.74-5.1-6.83-8.14-9.28
					s-6.36-4.11-9.94-5.01c-3.59-0.89-7.38-0.91-11.39-0.05c-4,0.86-8.19,2.68-12.55,5.46c-3.98,2.54-7.23,5.17-9.77,7.89
					c-2.54,2.72-4.61,5.25-6.19,7.58c-1.58,2.33-2.85,4.34-3.8,6.04c-0.94,1.7-1.81,2.8-2.58,3.29c-0.55,0.35-1.16,0.5-1.86,0.45
					c-0.69-0.05-1.49-0.45-2.4-1.18c-0.91-0.74-2.01-1.9-3.29-3.49c-1.29-1.59-2.78-3.71-4.48-6.36c-1.74-2.73-2.89-4.79-3.45-6.19
					c-0.56-1.39-0.7-2.73-0.42-4.01c0.28-1.28,1.17-3.14,2.69-5.59c1.51-2.45,3.5-5.08,5.96-7.92c2.47-2.84,5.38-5.76,8.72-8.78
					c3.34-3.01,7.04-5.81,11.09-8.4c9.2-5.87,17.87-9.63,26.04-11.28c8.16-1.65,15.7-1.66,22.61-0.03
					c6.9,1.63,13.09,4.58,18.57,8.87C649,880.25,653.71,885.47,657.64,891.62z M687,1013.9c2.04,3.2,3.51,6.05,4.39,8.55
					c0.89,2.5,1.11,4.83,0.67,6.98c-0.44,2.15-1.55,4.19-3.32,6.15c-1.77,1.95-4.21,3.93-7.33,5.91c-3.27,2.09-6.15,3.52-8.63,4.27
					c-2.48,0.76-4.78,0.89-6.92,0.39c-2.13-0.51-4.15-1.69-6.05-3.54c-1.9-1.86-3.87-4.38-5.91-7.58c-2.09-3.27-3.59-6.18-4.5-8.73
					c-0.91-2.54-1.16-4.91-0.75-7.09c0.41-2.18,1.49-4.24,3.22-6.17c1.73-1.93,4.23-3.94,7.51-6.03c3.11-1.99,5.93-3.38,8.45-4.16
					c2.52-0.79,4.85-0.9,7.01-0.36c2.16,0.54,4.2,1.76,6.12,3.66S684.91,1010.62,687,1013.9z"/></g><g><path d="M1952.2,1062.28c4.89-1.18,9.47-1.55,13.74-1.1c4.27,0.45,8.15,1.59,11.62,3.43c3.47,1.84,6.51,4.33,9.09,7.45
					c2.59,3.13,4.64,6.78,6.16,10.96l17.61-3.51c1.09-0.2,2.1,0.45,3.03,1.96s1.77,3.81,2.52,6.91c0.48,1.97,0.83,3.63,1.07,4.99
					c0.24,1.37,0.33,2.46,0.28,3.3c-0.05,0.83-0.24,1.48-0.57,1.94c-0.33,0.46-0.82,0.8-1.46,1.01l-20.91,5.92
					c-1.89,0.52-3.46,0.81-4.72,0.86c-1.25,0.05-2.31-0.15-3.18-0.61c-0.87-0.45-1.55-1.12-2.05-2.01c-0.5-0.89-0.91-1.99-1.23-3.3
					l-0.3-1.25c-0.76-3.16-1.93-5.76-3.5-7.81c-1.57-2.05-3.37-3.62-5.4-4.71c-2.03-1.08-4.26-1.7-6.69-1.83
					c-2.43-0.14-4.93,0.11-7.49,0.73c-2.86,0.69-5.39,1.73-7.58,3.11c-2.19,1.38-3.95,3.1-5.28,5.16c-1.33,2.06-2.16,4.44-2.48,7.13
					c-0.32,2.7-0.08,5.71,0.72,9.05c0.74,3.04,1.69,5.65,2.84,7.83c1.16,2.18,2.3,4.02,3.42,5.52c1.12,1.5,2.11,2.72,2.97,3.68
					c0.86,0.96,1.37,1.74,1.51,2.33c0.1,0.42,0.06,0.84-0.12,1.26c-0.18,0.42-0.6,0.84-1.26,1.25c-0.66,0.41-1.62,0.85-2.9,1.31
					c-1.27,0.47-2.93,0.95-4.95,1.44c-2.09,0.51-3.63,0.78-4.63,0.83c-1,0.05-1.87-0.15-2.61-0.6s-1.71-1.41-2.93-2.89
					c-1.21-1.47-2.44-3.29-3.69-5.45c-1.25-2.16-2.46-4.61-3.63-7.36c-1.17-2.75-2.13-5.67-2.88-8.77
					c-1.7-7.03-2.19-13.29-1.47-18.77c0.73-5.47,2.34-10.21,4.85-14.19c2.51-3.98,5.7-7.23,9.56-9.74
					C1943.2,1065.25,1947.49,1063.42,1952.2,1062.28z M2035.24,1070.2c2.44-0.59,4.55-0.9,6.31-0.92c1.76-0.02,3.27,0.34,4.52,1.08
					c1.25,0.74,2.3,1.87,3.14,3.41c0.84,1.53,1.56,3.49,2.13,5.87c0.61,2.5,0.88,4.62,0.82,6.33c-0.06,1.72-0.47,3.19-1.25,4.42
					s-1.95,2.24-3.53,3.03s-3.58,1.49-6.03,2.08c-2.5,0.61-4.65,0.92-6.44,0.94s-3.33-0.33-4.61-1.06
					c-1.28-0.73-2.34-1.85-3.18-3.35c-0.84-1.5-1.56-3.5-2.16-6.01c-0.58-2.38-0.84-4.45-0.79-6.19c0.05-1.75,0.48-3.24,1.28-4.48
					c0.81-1.24,2.01-2.25,3.62-3.05C2030.68,1071.5,2032.73,1070.8,2035.24,1070.2z"/></g><g><path d="M483.88,1676.95c6.39-1.55,12.37-2.02,17.95-1.44c5.58,0.59,10.64,2.08,15.18,4.48c4.54,2.41,8.5,5.65,11.88,9.73
					c3.38,4.09,6.06,8.85,8.04,14.31l23-4.58c1.42-0.26,2.74,0.59,3.96,2.57s2.32,4.98,3.3,9.03c0.62,2.57,1.09,4.74,1.39,6.52
					c0.31,1.78,0.43,3.22,0.36,4.3c-0.07,1.09-0.31,1.93-0.75,2.53c-0.43,0.6-1.06,1.04-1.91,1.32l-27.3,7.73
					c-2.47,0.69-4.52,1.06-6.16,1.12c-1.63,0.06-3.01-0.2-4.15-0.79c-1.13-0.59-2.03-1.47-2.67-2.62c-0.65-1.16-1.19-2.6-1.6-4.31
					l-0.4-1.63c-1-4.13-2.52-7.53-4.58-10.2c-2.05-2.68-4.4-4.73-7.05-6.15c-2.65-1.41-5.56-2.21-8.74-2.39
					c-3.17-0.18-6.43,0.14-9.78,0.95c-3.74,0.9-7.03,2.26-9.89,4.06c-2.86,1.81-5.16,4.05-6.9,6.74c-1.74,2.69-2.82,5.79-3.25,9.32
					c-0.42,3.52-0.11,7.46,0.95,11.82c0.96,3.97,2.2,7.38,3.71,10.23c1.52,2.85,3,5.25,4.47,7.2c1.46,1.95,2.76,3.56,3.88,4.81
					s1.79,2.27,1.97,3.04c0.13,0.55,0.08,1.09-0.16,1.65c-0.24,0.55-0.79,1.09-1.64,1.63c-0.86,0.53-2.12,1.11-3.79,1.72
					c-1.66,0.61-3.82,1.24-6.47,1.88c-2.73,0.66-4.74,1.02-6.04,1.09c-1.3,0.07-2.44-0.19-3.4-0.78c-0.97-0.59-2.24-1.84-3.82-3.77
					c-1.58-1.92-3.18-4.3-4.81-7.11c-1.63-2.82-3.21-6.03-4.74-9.61c-1.53-3.59-2.78-7.4-3.76-11.45
					c-2.22-9.19-2.86-17.35-1.92-24.51c0.95-7.15,3.06-13.33,6.33-18.54c3.27-5.2,7.44-9.44,12.49-12.73
					C472.13,1680.83,477.73,1678.44,483.88,1676.95z M592.34,1687.29c3.19-0.77,5.94-1.17,8.24-1.2c2.3-0.02,4.27,0.45,5.91,1.41
					c1.64,0.97,3,2.45,4.1,4.45c1.1,2,2.03,4.56,2.79,7.67c0.79,3.27,1.15,6.03,1.07,8.27c-0.07,2.24-0.61,4.17-1.63,5.78
					s-2.55,2.92-4.61,3.96c-2.06,1.03-4.68,1.94-7.87,2.71c-3.27,0.79-6.08,1.2-8.42,1.23c-2.34,0.03-4.35-0.43-6.02-1.38
					c-1.67-0.95-3.06-2.42-4.15-4.38c-1.09-1.96-2.03-4.58-2.83-7.85c-0.75-3.11-1.1-5.81-1.03-8.09c0.06-2.29,0.62-4.23,1.67-5.85
					c1.05-1.61,2.62-2.94,4.72-3.99C586.39,1688.99,589.07,1688.08,592.34,1687.29z"/></g><g><path fill="#fff" d="M972.48,698.97c-1.46,0-2.83-0.91-3.34-2.37c-0.65-1.84,0.32-3.86,2.17-4.51c3.46-1.22,6.88-2.54,10.31-3.86
			c7.87-3.04,15.77-6.09,22.29-10.95c6.86-5.12,11.22-11.89,11.97-18.58c0.2-1.79,0.18-3.68,0.15-5.69
			c-0.05-4.41-0.11-9.41,2.48-13.83c3.66-6.25,11.59-9.43,21.23-8.53c12.48,1.17,23.29,7.42,33.74,13.46
			c5.49,3.17,11.17,6.46,16.92,8.87c5.65,2.37,11.59,4.01,17.67,4.87c6.99,0.99,16.82,1.08,23.98-4.05
			c5.81-4.17,9.25-13.32,5.15-19.33c-2.68-3.93-7.66-5.84-12.93-7.88c-1.06-0.4-2.11-0.81-3.13-1.23
			c-9.8-3.99-15.45-10.42-15.5-17.65c-0.03-3.52,1.3-6.62,2.46-9.36c0.83-1.95,1.61-3.79,1.85-5.56c0.53-3.93-1.77-8.42-5.72-11.18
			c-3.51-2.45-8.2-3.79-14.34-4.11c-15.71-0.85-31.63,5.39-42.65,16.58c-1.37,1.39-3.61,1.41-5,0.04c-1.39-1.37-1.41-3.61-0.04-5.01
			c12.42-12.6,30.38-19.58,48.06-18.68c7.5,0.39,13.39,2.15,18.02,5.37c6.17,4.3,9.58,11.34,8.69,17.93
			c-0.37,2.72-1.38,5.09-2.36,7.39c-0.98,2.31-1.91,4.49-1.9,6.54c0.05,6.17,8.5,10.09,11.1,11.15c0.99,0.4,1.99,0.79,3,1.18
			c5.77,2.23,12.31,4.75,16.23,10.49c6.53,9.56,1.62,22.99-6.87,29.07c-7.18,5.14-17.23,6.98-29.09,5.3
			c-6.69-0.95-13.22-2.75-19.43-5.36c-6.17-2.59-12.04-5.99-17.72-9.27c-10.24-5.92-19.92-11.51-30.86-12.54
			c-5.26-0.51-11.83,0.57-14.46,5.06c-1.6,2.72-1.56,6.34-1.51,10.17c0.02,2.14,0.05,4.34-0.2,6.56
			c-0.96,8.63-6.35,17.18-14.77,23.47c-7.29,5.44-15.65,8.67-23.74,11.79c-3.72,1.43-7.21,2.78-10.74,4.02
			C973.27,698.91,972.87,698.97,972.48,698.97z"/></g><g><path fill="#fff" d="M806.42,731.11c-0.24,0-0.48-0.02-0.73-0.08c-1.91-0.4-3.14-2.27-2.74-4.19
			c3.59-17.16,13.07-32.68,26.69-43.71c13.55-10.97,30.59-16.99,48.01-16.99c0.1,0,0.2,0,0.3,0c1.81,0.01,3.63,0.08,5.44,0.15
			c4.01,0.16,7.79,0.31,11.47-0.25c5.48-0.84,9.85-3.46,11.67-7.02c2.7-5.26,0.32-11.77-2.21-18.66c-0.6-1.63-1.19-3.25-1.71-4.84
			c-5.42-16.56-2.64-35.74,7.26-50.08c9.9-14.33,26.86-23.73,44.26-24.52c22.51-0.99,42,10.53,63.37,24.58
			c1.63,1.07,2.09,3.27,1.01,4.9c-1.07,1.63-3.27,2.09-4.9,1.01c-20.32-13.36-38.84-24.42-59.16-23.43
			c-15.24,0.69-30.09,8.92-38.76,21.47c-8.67,12.55-11.1,29.35-6.35,43.85c0.5,1.51,1.06,3.05,1.63,4.6
			c2.8,7.64,5.98,16.31,1.86,24.33c-2.9,5.65-9.07,9.58-16.9,10.78c-4.35,0.66-8.66,0.49-12.82,0.32c-1.73-0.07-3.46-0.14-5.18-0.15
			c-15.52,0.02-31.64,5.56-43.83,15.42c-12.18,9.86-21.01,24.31-24.22,39.66C809.54,729.97,808.06,731.11,806.42,731.11z"/></g></svg>